<svg width="1441" height="352" viewBox="0 0 1441 352" fill="none" xmlns="http://www.w3.org/2000/svg">
<g clip-path="url(#clip0_640_8126)">
<rect width="1441" height="352" fill="#205A99"/>
<path fill-rule="evenodd" clip-rule="evenodd" d="M-4.97103e-05 201.56C29.4259 203.836 58.2849 209.78 84.7596 219.403C89.0699 220.968 93.3492 222.631 97.6335 224.295C112.912 230.231 128.255 236.193 145.299 237.822C182.544 241.371 214.594 224.056 245.851 207.171C253.818 202.867 261.733 198.591 269.669 194.696C330.596 164.815 409.421 155.001 480.57 168.434C507.724 173.569 533.732 181.882 559.655 190.169C598.182 202.484 636.521 214.739 678.159 216.41C729.184 218.469 777.509 204.387 825.83 190.306C874.186 176.214 922.539 162.124 973.594 164.21C1014.5 165.901 1054.81 177.869 1094.46 189.642C1153.38 207.137 1210.84 224.199 1266.64 206.45C1284.36 200.815 1300.16 191.906 1315.82 183.074C1339.47 169.742 1362.8 156.586 1391.95 155.137C1409.47 154.246 1425.72 157.772 1441 163.683V355.412L-4.97103e-05 365.825V201.56Z" fill="url(#paint0_linear_640_8126)"/>
<path fill-rule="evenodd" clip-rule="evenodd" d="M1441 225.009C1411.57 227.209 1382.71 232.955 1356.24 242.257C1351.93 243.77 1347.65 245.376 1343.37 246.985L1343.37 246.986C1328.09 252.725 1312.75 258.487 1295.7 260.062C1258.46 263.493 1226.41 246.756 1195.15 230.432C1187.18 226.272 1179.27 222.139 1171.33 218.373C1110.4 189.488 1031.58 180.001 960.43 192.987C933.276 197.95 907.268 205.987 881.345 213.997C842.818 225.902 804.479 237.749 762.841 239.364C711.816 241.354 663.491 227.741 615.169 214.129C566.814 200.507 518.46 186.886 467.406 188.904C426.5 190.538 386.192 202.107 346.544 213.488C287.621 230.4 230.158 246.894 174.358 229.736C156.64 224.288 140.839 215.676 125.176 207.139C101.53 194.251 78.1972 181.533 49.0537 180.132C31.5255 179.272 15.2813 182.68 0 188.394L0 373.735L1441 383.801V225.009Z" fill="url(#paint1_linear_640_8126)" fill-opacity="0.7"/>
</g>
<defs>
<linearGradient id="paint0_linear_640_8126" x1="2189.32" y1="287.136" x2="-24.4588" y2="298.403" gradientUnits="userSpaceOnUse">
<stop stop-color="#00F3FF"/>
<stop offset="0.731667" stop-color="#5D41C3"/>
<stop offset="0.9998" stop-color="#15DBA3"/>
</linearGradient>
<linearGradient id="paint1_linear_640_8126" x1="-748.316" y1="311.964" x2="1465.45" y2="324.271" gradientUnits="userSpaceOnUse">
<stop stop-color="#312BE3"/>
<stop offset="0.731667" stop-color="#8F4E64"/>
<stop offset="0.9998" stop-color="#5B706F"/>
</linearGradient>
<clipPath id="clip0_640_8126">
<rect width="1441" height="352" fill="white"/>
</clipPath>
</defs>
</svg>
