<svg width="1441" height="214" viewBox="0 0 1441 214" fill="none" xmlns="http://www.w3.org/2000/svg">
<path fill-rule="evenodd" clip-rule="evenodd" d="M-4.97103e-05 46.56C29.4259 48.8359 58.2849 54.7805 84.7596 64.4032C89.0699 65.9679 93.3492 67.6305 97.6335 69.2952C112.912 75.2314 128.255 81.1926 145.299 82.8217C182.544 86.3706 214.594 69.0564 245.851 52.1706C253.818 47.867 261.733 43.5913 269.669 39.6958C330.596 9.81534 409.421 0.00120254 480.57 13.4344C507.724 18.5689 533.732 26.8823 559.655 35.1686C598.182 47.4838 636.521 59.7391 678.159 61.41C729.184 63.4691 777.509 49.3869 825.83 35.3056C874.186 21.2143 922.539 7.1238 973.594 9.21043C1014.5 10.901 1054.81 22.8695 1094.46 34.6418C1153.38 52.1371 1210.84 69.1992 1266.64 51.4498C1284.36 45.8146 1300.16 36.9057 1315.82 28.0742C1339.47 14.7418 1362.8 1.58601 1391.95 0.136786C1409.47 -0.753584 1425.72 2.77241 1441 8.68279V200.412L-4.97103e-05 210.825V46.56Z" fill="url(#paint0_linear_558_5992)"/>
<path fill-rule="evenodd" clip-rule="evenodd" d="M1441 74.6481C1411.57 76.5372 1382.71 81.4717 1356.24 89.4593C1351.93 90.758 1347.65 92.1382 1343.37 93.5199C1328.09 98.4474 1312.75 103.396 1295.7 104.748C1258.46 107.694 1226.41 93.3217 1195.15 79.3053C1187.18 75.733 1179.27 72.1839 1171.33 68.9504C1110.4 44.1474 1031.58 36.001 960.43 47.1515C933.276 51.4136 907.268 58.3143 881.345 65.1925C842.818 75.415 804.479 85.5877 762.841 86.9747C711.816 88.6839 663.491 76.9947 615.17 65.3062C566.814 53.6094 518.461 41.9133 467.406 43.6453C426.5 45.0486 386.192 54.9833 346.544 64.7552C287.621 79.2775 230.158 93.4403 174.358 78.707C156.64 74.0294 140.839 66.6343 125.176 59.3036C101.53 48.2368 78.1973 37.3165 49.0538 36.1135C31.5255 35.3745 15.2813 38.3013 0 43.2074L0 213.681L1441 202.183V74.6481Z" fill="url(#paint1_linear_558_5992)" fill-opacity="0.7"/>
<defs>
<linearGradient id="paint0_linear_558_5992" x1="2189.32" y1="132.136" x2="-24.4588" y2="143.403" gradientUnits="userSpaceOnUse">
<stop stop-color="#00F3FF"/>
<stop offset="0.731667" stop-color="#5D41C3"/>
<stop offset="0.9998" stop-color="#15DBA3"/>
</linearGradient>
<linearGradient id="paint1_linear_558_5992" x1="-748.316" y1="147.362" x2="1465.44" y2="160.731" gradientUnits="userSpaceOnUse">
<stop stop-color="#312BE3"/>
<stop offset="0.731667" stop-color="#8F4E64"/>
<stop offset="0.9998" stop-color="#5B706F"/>
</linearGradient>
</defs>
</svg>
