<svg width="184" height="136" viewBox="0 0 184 136" fill="none" xmlns="http://www.w3.org/2000/svg">
<g filter="url(#filter0_ii_613_7752)">
<rect x="23.729" width="98.542" height="98.542" rx="12.3177" fill="#D9D9D9"/>
</g>
<g clip-path="url(#clip0_613_7752)">
<path d="M84.7989 17.2763C84.9481 17.3951 84.9481 17.3951 85.1002 17.5163C85.7399 18.0397 86.2722 18.6338 86.795 19.2724C86.9055 19.406 87.0159 19.5396 87.1297 19.6773C90.2733 23.5646 91.591 28.4488 91.0871 33.4025C90.567 37.7407 88.6286 41.3889 85.5831 44.4731C85.4969 44.5606 85.4107 44.6482 85.3218 44.7384C84.8504 45.2064 84.3647 45.6325 83.8379 46.0377C83.7238 46.1257 83.6096 46.2137 83.492 46.3044C83.4057 46.3705 83.3194 46.4367 83.2306 46.5048C85.4599 47.8538 87.2375 48.302 89.8237 48.2575C90.1421 48.2578 90.4604 48.2587 90.7788 48.2604C91.6054 48.2628 92.4316 48.2559 93.2581 48.2469C94.1061 48.2394 94.954 48.2409 95.8019 48.2416C97.4573 48.2417 99.1124 48.2319 100.768 48.2157C100.787 48.0604 100.806 47.9051 100.825 47.7451C100.925 47.1253 101.07 46.8361 101.481 46.3622C102.501 45.6462 103.585 45.7047 104.784 45.7176C105.125 45.7206 105.465 45.7176 105.806 45.7139C106.024 45.7143 106.243 45.715 106.462 45.7162C106.563 45.715 106.663 45.7139 106.767 45.7127C107.547 45.7272 107.979 45.9353 108.609 46.3622C109.171 46.9828 109.34 47.3247 109.343 48.152C109.345 48.4045 109.345 48.4045 109.346 48.662C109.347 48.9405 109.347 48.9405 109.348 49.2245C109.348 49.4212 109.349 49.6179 109.35 49.8146C109.353 50.3499 109.354 50.8852 109.356 51.4205C109.356 51.7549 109.357 52.0893 109.358 52.4238C109.361 53.4701 109.363 54.5163 109.364 55.5626C109.365 56.7704 109.369 57.9782 109.375 59.186C109.379 60.1195 109.381 61.0529 109.382 61.9864C109.382 62.5439 109.383 63.1014 109.387 63.659C109.39 64.1837 109.391 64.7084 109.389 65.2332C109.389 65.517 109.392 65.8009 109.395 66.0847C109.386 67.6465 109.386 67.6465 108.752 68.3192C107.962 68.9159 107.375 69.0559 106.407 69.0661C106.302 69.0673 106.198 69.0684 106.091 69.0696C105.87 69.0716 105.649 69.0731 105.428 69.0742C105.204 69.0759 104.979 69.0788 104.755 69.083C102.408 69.1271 102.408 69.1271 101.481 68.4618C101.213 68.1817 101.213 68.1817 101.053 67.9004C100.997 67.808 100.941 67.7155 100.884 67.6203C100.747 67.2666 100.747 66.9844 100.768 66.6083C99.3256 66.8232 97.9106 67.1387 96.4903 67.4638C96.5132 67.5506 96.5362 67.6374 96.5598 67.7268C96.8114 68.7845 96.6911 69.9172 96.2052 70.8857C95.5274 71.9794 94.749 72.6388 93.5407 73.0689C93.124 73.1554 92.7776 73.1748 92.3556 73.1669C92.3371 73.3144 92.3371 73.3144 92.3182 73.4649C92.1247 74.7595 91.7752 75.717 90.7516 76.571C89.887 77.191 89.0103 77.5269 87.9356 77.4442C87.9503 77.603 87.965 77.7618 87.9802 77.9254C87.9819 78.8746 87.464 79.6175 86.9821 80.4027C86.1809 81.1823 85.2445 81.7118 84.1217 81.7305C83.9688 81.7276 83.8158 81.7246 83.6583 81.7216C83.6701 81.8569 83.6818 81.9921 83.6939 82.1315C83.6898 83.1502 83.2062 84.183 82.5076 84.9146C81.3676 85.8631 80.2146 86.1509 78.7689 86.063C77.4856 85.9075 76.7326 85.2963 75.8165 84.4306C75.5794 84.2191 75.3418 84.0082 75.1036 83.7979C74.9135 83.6286 74.7233 83.4593 74.5333 83.2899C73.9995 83.5016 73.7754 83.7899 73.4461 84.2523C72.7828 85.1123 71.9992 85.6555 70.9688 85.9989C69.4566 86.1374 68.2596 86.0524 66.9767 85.1435C66.2692 84.542 65.828 83.7442 65.5509 82.8622C65.5509 82.674 65.5509 82.4858 65.5509 82.2919C65.3715 82.3037 65.1921 82.3154 65.0073 82.3275C63.7798 82.3218 62.6898 81.8626 61.8043 81.0171C61.187 80.2793 60.7793 79.4065 60.7032 78.4423C60.6027 78.4689 60.5021 78.4956 60.3986 78.523C59.4376 78.6686 58.4138 78.3107 57.6378 77.7472C56.8341 77.068 56.3336 76.303 55.9981 75.3056C55.9981 75.1174 55.9981 74.9292 55.9981 74.7353C55.9118 74.7419 55.8254 74.7485 55.7364 74.7553C54.4885 74.8091 53.5142 74.4991 52.5317 73.7194C51.6791 72.9185 51.2311 71.8778 51.1215 70.723C51.1031 69.8963 51.2739 69.228 51.5782 68.4618C49.4901 67.5664 47.2727 67.0264 45.0196 66.7509C44.9752 66.8929 44.9752 66.8929 44.93 67.0377C44.6037 67.9729 44.3172 68.4015 43.4513 68.8896C42.9476 69.0574 42.486 69.0606 41.9614 69.0661C41.8571 69.0673 41.7529 69.0684 41.6454 69.0696C41.4245 69.0716 41.2037 69.0731 40.9828 69.0742C40.7584 69.0759 40.534 69.0788 40.3096 69.083C37.9871 69.1267 37.9871 69.1267 37.0352 68.4618C36.4669 67.8498 36.3048 67.4954 36.3014 66.672C36.2998 66.4196 36.2998 66.4196 36.2983 66.162C36.2979 65.9764 36.2975 65.7908 36.2971 65.5995C36.2962 65.4028 36.2953 65.2061 36.2943 65.0094C36.2918 64.4741 36.2903 63.9388 36.2891 63.4036C36.2884 63.0691 36.2875 62.7347 36.2866 62.4003C36.2839 61.354 36.2819 60.3077 36.2807 59.2614C36.2793 58.0536 36.2755 56.8458 36.2698 55.638C36.2655 54.7046 36.2634 53.7711 36.2629 52.8377C36.2626 52.2801 36.2613 51.7226 36.2577 51.1651C36.2544 50.6403 36.2538 50.1156 36.2552 49.5909C36.2553 49.307 36.2526 49.0232 36.2498 48.7393C36.2589 47.1875 36.2589 47.1875 36.8927 46.5048C37.6188 45.8495 38.1766 45.7676 39.1266 45.7579C39.234 45.7568 39.3415 45.7556 39.4522 45.7544C39.6798 45.7525 39.9074 45.7509 40.135 45.7498C40.3663 45.7482 40.5976 45.7453 40.8289 45.7411C43.2456 45.6969 43.2456 45.6969 44.1642 46.3622C44.4315 46.6424 44.4315 46.6424 44.5919 46.9236C44.6478 47.0161 44.7036 47.1085 44.7612 47.2038C44.8982 47.5575 44.8851 47.8394 44.877 48.2157C46.4378 48.2336 47.9983 48.2427 49.5591 48.2412C50.2843 48.2408 51.0092 48.2432 51.7343 48.2524C56.3761 48.3362 56.3761 48.3362 60.5606 46.5048C60.8908 46.3098 61.2244 46.1223 61.5587 45.9345C61.1632 45.536 60.7641 45.1424 60.3585 44.7543C59.1786 43.6151 58.1706 42.4648 57.2813 41.0868C57.1928 40.9549 57.1042 40.8229 57.0129 40.6869C54.5865 36.846 53.9182 31.8216 54.804 27.3993C55.0821 26.1684 55.4909 24.989 55.9981 23.8349C56.0385 23.7416 56.0789 23.6483 56.1205 23.5522C58.0148 19.2613 61.6616 15.8813 66.0066 14.1579C66.7478 13.8786 67.4979 13.6424 68.2599 13.4267C68.4278 13.378 68.5958 13.3293 68.7689 13.2791C74.4358 11.9402 80.3805 13.6431 84.7989 17.2763ZM63.2696 18.7021C63.0474 18.8719 63.0474 18.8719 62.8207 19.0451C61.8304 19.8334 61.0317 20.6835 60.2755 21.6962C60.1895 21.807 60.1035 21.9179 60.0148 22.032C57.5184 25.3888 56.7192 29.5373 57.1845 33.6492C57.3016 34.3874 57.4824 35.0998 57.7091 35.8114C57.7865 36.0551 57.7865 36.0551 57.8656 36.3038C58.9574 39.3682 61.2543 43.0092 64.2677 44.5087C64.8495 44.4738 65.3699 44.2256 65.9073 44.0097C67.9261 43.1984 69.6836 43.4601 71.6901 44.1873C72.0791 44.2382 72.3154 44.115 72.6709 43.9562C74.2354 43.2646 76.0761 43.2886 77.6678 43.8866C77.9917 44.033 78.303 44.1852 78.6168 44.3511C78.7054 44.3976 78.7939 44.4441 78.8852 44.492C79.1369 44.6268 79.3855 44.7676 79.6338 44.9086C80.0835 45.1201 80.0835 45.1201 80.5338 44.996C81.8281 44.3662 82.9037 43.3488 83.9434 42.37C84.0882 42.2416 84.0882 42.2416 84.2358 42.1105C86.7471 39.7854 88.3037 36.009 88.5378 32.6452C88.6091 30.5975 88.5563 28.6481 87.9356 26.6864C87.9051 26.5886 87.8745 26.4908 87.843 26.3901C87.0576 23.9532 85.7649 21.9349 83.9434 20.1278C83.851 20.0271 83.7586 19.9264 83.6633 19.8226C81.0799 17.0602 77.0426 15.5835 73.3186 15.4278C69.6609 15.3503 66.1604 16.4611 63.2696 18.7021ZM64.0856 47.5738C63.7548 47.7414 63.4235 47.9078 63.092 48.074C62.2105 48.5172 61.3304 48.9616 60.4622 49.4302C60.3539 49.4885 60.2456 49.5468 60.1341 49.6069C59.93 49.7172 59.7264 49.8284 59.5234 49.9406C59.3844 50.0158 59.3844 50.0158 59.2427 50.0925C59.1631 50.1364 59.0834 50.1802 59.0014 50.2253C58.138 50.6041 57.3436 50.6826 56.4178 50.685C56.2905 50.6865 56.1632 50.6879 56.032 50.6894C55.6229 50.6937 55.2138 50.6962 54.8046 50.6986C54.5508 50.701 54.297 50.7036 54.0432 50.7062C53.1057 50.7152 52.1682 50.7218 51.2307 50.7287C49.134 50.7463 47.0373 50.764 44.877 50.7821C44.877 55.1579 44.877 59.5336 44.877 64.0419C45.9753 64.2622 45.9753 64.2622 47.0753 64.4708C48.7639 64.7935 50.3576 65.2101 51.9615 65.8362C52.0901 65.8849 52.2187 65.9337 52.3513 65.984C52.4639 66.0287 52.5765 66.0735 52.6925 66.1196C53.0058 66.2075 53.0058 66.2075 53.3056 66.0797C53.5906 65.8843 53.76 65.7025 53.9642 65.4248C54.0344 65.3324 54.1046 65.2401 54.1769 65.1449C54.3201 64.9523 54.4627 64.7593 54.6047 64.5657C55.3101 63.6419 56.1387 63.0397 57.2813 62.7587C58.7772 62.5954 59.9944 62.836 61.1755 63.7835C61.7402 64.3104 62.087 64.9166 62.4142 65.6103C62.5742 65.6036 62.7343 65.597 62.8993 65.5902C64.5994 65.5403 65.7343 65.7 67.0162 66.9079C67.8678 67.8464 67.9754 68.9482 68.1173 70.1728C68.2362 70.2007 68.3551 70.2286 68.4776 70.2574C69.7676 70.6002 70.6451 71.0643 71.4489 72.146C71.9303 72.9771 72.0007 73.9392 72.1095 74.8778C72.1992 74.9004 72.2888 74.9231 72.3813 74.9463C73.8204 75.3386 74.9004 75.9594 75.6789 77.2638C76.1264 78.2378 76.143 79.5736 75.8226 80.5832C75.773 81.0005 75.773 81.0005 75.9916 81.24C76.258 81.4945 76.5346 81.7246 76.8235 81.9533C76.9189 82.033 77.0144 82.1128 77.1128 82.195C78.2439 83.1949 78.2439 83.1949 79.6616 83.5044C80.2336 83.3625 80.6091 83.0508 80.9493 82.5771C81.1266 82.1325 81.163 81.767 81.0919 81.2939C80.9327 80.9482 80.7463 80.6375 80.5433 80.3159C80.304 79.8713 80.3198 79.5056 80.379 79.0126C80.426 78.8715 80.4731 78.7303 80.5216 78.5849C81.1573 78.3729 81.676 78.3156 82.2993 78.6066C82.4824 78.7061 82.4824 78.7061 82.6692 78.8076C83.1099 79.0417 83.3313 79.1536 83.8365 79.173C84.4746 78.912 84.9306 78.5533 85.289 77.9611C85.398 77.4525 85.3507 77.0939 85.2267 76.5888C85.1296 76.4447 85.0326 76.3006 84.9326 76.1521C84.5558 75.5809 84.6125 75.2024 84.7009 74.5481C84.7332 74.4687 84.7656 74.3893 84.7989 74.3075C85.3334 74.1293 85.8133 74.0716 86.3673 74.1649C86.6602 74.3242 86.6602 74.3242 86.9465 74.5214C87.4881 74.8934 87.8381 74.9891 88.5059 74.8778C89.0808 74.5741 89.4037 74.3378 89.6466 73.7372C89.7467 73.1763 89.759 72.6599 89.4817 72.1521C89.3496 71.9635 89.2172 71.7751 89.0846 71.5868C88.9337 71.3134 88.9337 71.3134 88.9337 70.7698C89.1495 70.082 89.1495 70.082 89.504 69.8876C90.4172 69.7828 90.7403 69.9356 91.5001 70.4579C91.9917 70.6204 92.4228 70.6704 92.9203 70.5108C93.3775 70.2803 93.6201 70.0558 93.9239 69.6381C94.1055 69.0479 94.158 68.6052 93.9239 68.0341C93.1957 67.0608 92.1439 66.339 91.1865 65.603C90.6222 65.1682 90.0722 64.7169 89.5218 64.2647C88.6825 63.5781 87.8275 62.9179 86.9568 62.2719C86.2379 61.7378 85.5305 61.1904 84.8256 60.6379C83.8374 59.8642 82.8336 59.1151 81.8202 58.3748C81.0405 57.8032 80.2749 57.2161 79.5146 56.6189C78.6295 55.9265 77.7377 55.2442 76.8324 54.5783C76.7247 54.4976 76.6169 54.4169 76.506 54.3337C76.4053 54.2604 76.3045 54.1871 76.2008 54.1116C76.0685 54.0141 76.0685 54.0141 75.9335 53.9147C75.6391 53.7315 75.6391 53.7315 75.1036 53.7763C74.8114 54.0049 74.5563 54.2308 74.2927 54.4892C74.213 54.565 74.1333 54.6408 74.0512 54.7189C73.8766 54.8852 73.7025 55.0521 73.5288 55.2194C73.0389 55.6901 72.5424 56.1539 72.0471 56.6189C71.4513 57.1784 70.8564 57.7385 70.2682 58.3059C70.0948 58.4713 69.9214 58.6368 69.748 58.8022C69.6718 58.8769 69.5955 58.9517 69.5169 59.0288C68.3592 60.126 67.1946 60.3901 65.6283 60.3739C64.4266 60.2811 63.492 59.6561 62.6993 58.7665C61.9168 57.5362 61.7533 56.1086 62.0688 54.6886C62.6933 53.1274 64.1093 51.9088 65.2873 50.7584C65.8482 50.2095 66.375 49.6447 66.8868 49.0499C67.2118 48.681 67.5588 48.3435 67.9123 48.0019C68.5226 47.3991 69.0613 46.7865 69.5431 46.0771C67.8626 45.2368 65.5552 46.8292 64.0856 47.5738ZM69.8182 49.6153C69.3483 50.1205 68.8646 50.6094 68.3726 51.093C68.1208 51.3489 67.8861 51.6135 67.6539 51.8871C67.2113 52.403 66.7379 52.8801 66.2549 53.3575C64.9516 54.534 64.9516 54.534 64.3746 56.111C64.4246 56.8355 64.6603 57.1529 65.1499 57.6704C65.6679 57.9813 66.1002 58.0353 66.6915 57.911C67.2919 57.6098 67.7585 57.1843 68.242 56.7259C68.3219 56.6511 68.4018 56.5764 68.4841 56.4994C68.6548 56.3396 68.8253 56.1795 68.9956 56.0192C69.2561 55.7741 69.5175 55.53 69.7792 55.2862C69.8663 55.205 69.9535 55.1238 70.0433 55.0401C70.2212 54.8743 70.3992 54.7085 70.5772 54.5428C71.045 54.1067 71.5104 53.6683 71.9725 53.226C72.067 53.1361 72.1616 53.0462 72.2591 52.9536C72.4388 52.7827 72.6177 52.6111 72.7958 52.4386C73.5389 51.7345 74.3251 51.1107 75.3888 51.0673C76.2981 51.2319 76.8899 51.535 77.6255 52.0832C77.7286 52.158 77.8318 52.2329 77.938 52.31C79.1603 53.2027 80.3607 54.1255 81.5608 55.0478C82.2023 55.5404 82.8456 56.0307 83.489 56.5209C83.614 56.6162 83.739 56.7115 83.8677 56.8098C84.6119 57.3768 85.3591 57.9396 86.1089 58.4992C87.3495 59.426 88.5697 60.3785 89.7892 61.3329C89.9728 61.4762 90.1564 61.6196 90.34 61.7629C91.1044 62.3605 91.8641 62.9626 92.614 63.5785C92.741 63.6798 92.868 63.7811 92.9988 63.8854C93.3536 64.1845 93.3536 64.1845 93.6505 64.5058C93.9744 64.8323 94.2048 65.0204 94.6368 65.1825C95.4796 65.1037 96.239 64.8431 97.0606 64.6122C98.8956 64.3299 98.8956 64.3299 100.768 64.0419C100.768 59.6662 100.768 55.2905 100.768 50.7821C99.1869 50.7766 99.1869 50.7766 97.5741 50.771C96.9049 50.7674 96.2356 50.7637 95.5663 50.7593C94.505 50.7524 93.4437 50.7461 92.3824 50.7435C91.5263 50.7413 90.6703 50.7364 89.8142 50.7296C89.4883 50.7275 89.1623 50.7264 88.8364 50.7263C88.3784 50.7259 87.9206 50.7221 87.4626 50.7174C87.2623 50.7185 87.2623 50.7185 87.0579 50.7196C86.106 50.7047 85.3712 50.4748 84.5138 50.0692C84.3629 49.999 84.2121 49.9288 84.0567 49.8564C83.9261 49.7902 83.7955 49.7239 83.661 49.6556C83.5102 49.5795 83.3593 49.5034 83.204 49.425C83.046 49.3446 82.8881 49.2643 82.7254 49.1815C82.471 49.0532 82.2166 48.9249 81.9621 48.7967C81.3413 48.4835 80.7211 48.1691 80.101 47.8546C79.7507 47.6769 79.4002 47.4998 79.0494 47.3231C78.7209 47.1576 78.3927 46.9913 78.0649 46.8243C74.3052 44.9324 72.3722 46.8597 69.8182 49.6153ZM38.8888 48.3583C38.8888 54.3338 38.8888 60.3092 38.8888 66.4657C40.018 66.4657 41.1472 66.4657 42.3106 66.4657C42.3106 60.4903 42.3106 54.5148 42.3106 48.3583C41.1814 48.3583 40.0522 48.3583 38.8888 48.3583ZM103.334 48.3583C103.334 54.3338 103.334 60.3092 103.334 66.4657C104.463 66.4657 105.593 66.4657 106.756 66.4657C106.756 60.4903 106.756 54.5148 106.756 48.3583C105.627 48.3583 104.498 48.3583 103.334 48.3583ZM56.1645 66.5925C56.089 66.6977 56.0135 66.8029 55.9358 66.9113C55.775 67.1299 55.614 67.3484 55.4529 67.5668C55.3758 67.672 55.2987 67.7771 55.2193 67.8855C54.936 68.2618 54.6312 68.6136 54.3228 68.9698C53.8353 69.5768 53.6778 69.9604 53.7169 70.7431C53.9001 71.3036 54.0905 71.5518 54.5367 71.9372C55.0872 72.2124 55.3899 72.2557 55.9981 72.1689C56.6849 71.7818 57.1368 71.3045 57.6021 70.6807C57.6684 70.5941 57.7346 70.5075 57.8029 70.4182C57.9407 70.2378 58.0781 70.0569 58.2149 69.8757C58.4197 69.6054 58.627 69.3371 58.8352 69.0695C58.9648 68.9026 59.0944 68.7357 59.224 68.5688C59.315 68.4515 59.315 68.4515 59.4079 68.3318C59.9235 67.662 60.0487 67.3265 59.9903 66.4657C59.7191 65.8178 59.3226 65.5083 58.7071 65.1825C57.5458 64.9849 56.8045 65.7331 56.1645 66.5925ZM61.523 69.6648C61.4431 69.7652 61.3632 69.8657 61.2808 69.9691C61.0393 70.2735 60.7997 70.5793 60.5606 70.8857C60.4898 70.976 60.4189 71.0663 60.3459 71.1593C59.0097 72.6431 59.0097 72.6431 58.5083 74.4557C58.6416 75.1184 59.0184 75.5131 59.5626 75.8759C59.8587 75.9316 59.8587 75.9316 60.1775 75.9294C60.2828 75.9334 60.3881 75.9374 60.4966 75.9416C61.4893 75.7548 62.0183 74.9565 62.5746 74.1917C62.736 73.9745 62.8977 73.7575 63.0597 73.5406C63.1412 73.431 63.2228 73.3215 63.3069 73.2086C63.7633 72.6069 64.2435 72.0238 64.7264 71.4433C65.2104 70.8503 65.573 70.3847 65.5241 69.6024C65.3448 68.9403 65.1643 68.5802 64.5796 68.2034C63.1163 67.6583 62.3597 68.5944 61.523 69.6648ZM66.0298 73.7367C65.9044 73.8991 65.7805 74.0628 65.6578 74.2273C65.5223 74.4058 65.3868 74.5842 65.2512 74.7626C65.1832 74.8528 65.1151 74.9431 65.045 75.0361C64.8435 75.2984 64.6358 75.5539 64.4247 75.8085C64.3593 75.8888 64.294 75.9692 64.2266 76.0519C64.0464 76.273 63.8647 76.4927 63.6829 76.7124C63.3386 77.2806 63.2973 77.6387 63.2696 78.2997C63.4494 78.8496 63.6483 79.1096 64.0716 79.5027C64.6181 79.7557 64.9305 79.7612 65.5158 79.7038C66.4692 79.344 67.1476 78.1755 67.7794 77.3977C67.9768 77.1565 68.1778 76.9187 68.379 76.6807C69.285 75.6181 69.285 75.6181 69.5882 74.2886C69.487 73.6915 69.1437 73.2618 68.6876 72.8817C67.5243 72.494 66.8156 72.8451 66.0298 73.7367ZM69.7569 78.8968C69.6893 78.9788 69.6217 79.0608 69.5521 79.1453C69.3569 79.3846 69.1643 79.6258 68.9727 79.8681C68.8766 79.989 68.7805 80.1099 68.6815 80.2345C68.3201 80.7272 68.0667 81.1294 68.0282 81.7483C68.1432 82.4499 68.3734 82.9005 68.9371 83.3434C69.6576 83.5435 70.1713 83.5588 70.8185 83.1992C71.283 82.8398 71.6236 82.4501 71.9669 81.98C72.0278 81.898 72.0887 81.816 72.1514 81.7315C72.2727 81.5673 72.3933 81.4025 72.5131 81.2372C72.6595 81.0365 72.8102 80.8391 72.9616 80.6422C73.3228 80.1509 73.5878 79.7465 73.6333 79.1284C73.4946 78.3597 73.1907 77.9908 72.5461 77.5334C71.2683 77.1461 70.5068 77.9787 69.7569 78.8968Z" fill="#8100DD"/>
<path d="M79.5232 23.9777C79.9269 24.2723 80.0686 24.4781 80.236 24.949C80.236 25.9315 79.5062 26.6112 78.8533 27.272C78.6924 27.4316 78.6924 27.4316 78.5282 27.5944C78.4141 27.7093 78.3 27.8242 78.1824 27.9425C77.8065 28.3203 77.429 28.6965 77.0514 29.0727C76.7889 29.3355 76.5265 29.5983 76.2641 29.8613C75.7147 30.4114 75.1644 30.9606 74.6137 31.5094C73.9781 32.1426 73.344 32.7775 72.7108 33.4131C72.0998 34.0262 71.4877 34.6381 70.875 35.2495C70.6152 35.5091 70.3556 35.769 70.0964 36.0292C69.734 36.3927 69.3703 36.7548 69.0061 37.1165C68.8995 37.224 68.7928 37.3316 68.6829 37.4424C68.1525 37.9663 67.6874 38.3965 66.9763 38.6633C66.4667 38.6531 66.2077 38.5817 65.7911 38.289C65.4534 37.8137 65.3884 37.538 65.4079 36.9523C65.9136 36.0674 66.6909 35.3425 67.4071 34.6289C67.5185 34.5167 67.6299 34.4046 67.7446 34.2891C68.1101 33.9217 68.4766 33.5553 68.8432 33.1891C69.0989 32.9328 69.3545 32.6765 69.6101 32.4202C70.1446 31.8847 70.6797 31.3496 71.2151 30.815C71.8329 30.1981 72.4493 29.5799 73.0651 28.9611C73.6598 28.3636 74.2556 27.7673 74.852 27.1715C75.1047 26.9187 75.3571 26.6655 75.6091 26.412C75.9612 26.0582 76.3147 25.7057 76.6685 25.3535C76.8239 25.1965 76.8239 25.1965 76.9824 25.0363C78.4166 23.6169 78.4166 23.6169 79.5232 23.9777Z" fill="#8100DD"/>
<path d="M79.8092 32.961C80.6412 33.5036 81.1623 34.2735 81.3776 35.2422C81.4831 36.5526 81.3847 37.5826 80.5577 38.6285C79.8949 39.3507 79.1199 39.7523 78.1412 39.8387C76.9287 39.8688 76.1605 39.6202 75.1398 38.9938C74.3712 38.2039 73.9529 37.2479 73.9189 36.1512C73.9345 35.0944 74.2687 34.1946 74.9794 33.4065C76.4169 32.11 78.1539 32.1053 79.8092 32.961ZM76.9844 35.1799C76.6068 35.6006 76.5299 35.8197 76.5299 36.3829C76.7771 36.9145 76.7771 36.9145 77.2428 37.2383C77.8206 37.3154 78.0323 37.2871 78.5082 36.9354C78.8398 36.5495 78.8398 36.5495 78.8914 36.0888C78.7917 35.5684 78.6711 35.4054 78.2408 35.0997C77.6967 34.9144 77.4912 34.8983 76.9844 35.1799Z" fill="#8100DD"/>
<path d="M70.5058 23.5066C71.2744 24.2965 71.6927 25.2525 71.7266 26.3492C71.711 27.406 71.3769 28.3058 70.6662 29.0938C69.8074 29.8684 68.772 30.2161 67.6214 30.1654C66.4743 29.9876 65.5157 29.4846 64.8116 28.5592C64.2013 27.5069 64.0938 26.4121 64.3343 25.218C64.6383 24.2951 65.2353 23.5667 66.068 23.0699C67.6213 22.3221 69.0927 22.6394 70.5058 23.5066ZM67.1374 25.565C66.8058 25.9509 66.8058 25.9509 66.7542 26.4116C66.8539 26.932 66.9744 27.095 67.4047 27.4007C67.8187 27.5668 67.8187 27.5668 68.2602 27.5433C68.7531 27.2695 68.9334 27.0896 69.1157 26.5542C69.1157 26.0359 69.0015 25.8112 68.6879 25.4046C68.0883 25.1048 67.6677 25.173 67.1374 25.565Z" fill="#8100DD"/>
</g>
<path d="M0.63 122.242C0.63 121.006 0.906 119.902 1.458 118.93C2.022 117.946 2.784 117.184 3.744 116.644C4.716 116.092 5.802 115.816 7.002 115.816C8.406 115.816 9.636 116.176 10.692 116.896C11.748 117.616 12.486 118.612 12.906 119.884H10.008C9.72 119.284 9.312 118.834 8.784 118.534C8.268 118.234 7.668 118.084 6.984 118.084C6.252 118.084 5.598 118.258 5.022 118.606C4.458 118.942 4.014 119.422 3.69 120.046C3.378 120.67 3.222 121.402 3.222 122.242C3.222 123.07 3.378 123.802 3.69 124.438C4.014 125.062 4.458 125.548 5.022 125.896C5.598 126.232 6.252 126.4 6.984 126.4C7.668 126.4 8.268 126.25 8.784 125.95C9.312 125.638 9.72 125.182 10.008 124.582H12.906C12.486 125.866 11.748 126.868 10.692 127.588C9.648 128.296 8.418 128.65 7.002 128.65C5.802 128.65 4.716 128.38 3.744 127.84C2.784 127.288 2.022 126.526 1.458 125.554C0.906 124.582 0.63 123.478 0.63 122.242ZM19.4864 128.704C18.5264 128.704 17.6624 128.494 16.8944 128.074C16.1264 127.642 15.5204 127.036 15.0764 126.256C14.6444 125.476 14.4284 124.576 14.4284 123.556C14.4284 122.536 14.6504 121.636 15.0944 120.856C15.5504 120.076 16.1684 119.476 16.9484 119.056C17.7284 118.624 18.5984 118.408 19.5584 118.408C20.5184 118.408 21.3884 118.624 22.1684 119.056C22.9484 119.476 23.5604 120.076 24.0044 120.856C24.4604 121.636 24.6884 122.536 24.6884 123.556C24.6884 124.576 24.4544 125.476 23.9864 126.256C23.5304 127.036 22.9064 127.642 22.1144 128.074C21.3344 128.494 20.4584 128.704 19.4864 128.704ZM19.4864 126.508C19.9424 126.508 20.3684 126.4 20.7644 126.184C21.1724 125.956 21.4964 125.62 21.7364 125.176C21.9764 124.732 22.0964 124.192 22.0964 123.556C22.0964 122.608 21.8444 121.882 21.3404 121.378C20.8484 120.862 20.2424 120.604 19.5224 120.604C18.8024 120.604 18.1964 120.862 17.7044 121.378C17.2244 121.882 16.9844 122.608 16.9844 123.556C16.9844 124.504 17.2184 125.236 17.6864 125.752C18.1664 126.256 18.7664 126.508 19.4864 126.508ZM38.9209 118.426C40.1449 118.426 41.1289 118.804 41.8729 119.56C42.6289 120.304 43.0069 121.348 43.0069 122.692V128.542H40.4869V123.034C40.4869 122.254 40.2889 121.66 39.8929 121.252C39.4969 120.832 38.9569 120.622 38.2729 120.622C37.5889 120.622 37.0429 120.832 36.6349 121.252C36.2389 121.66 36.0409 122.254 36.0409 123.034V128.542H33.5209V123.034C33.5209 122.254 33.3229 121.66 32.9269 121.252C32.5309 120.832 31.9909 120.622 31.3069 120.622C30.6109 120.622 30.0589 120.832 29.6509 121.252C29.2549 121.66 29.0569 122.254 29.0569 123.034V128.542H26.5369V118.57H29.0569V119.776C29.3809 119.356 29.7949 119.026 30.2989 118.786C30.8149 118.546 31.3789 118.426 31.9909 118.426C32.7709 118.426 33.4669 118.594 34.0789 118.93C34.6909 119.254 35.1649 119.722 35.5009 120.334C35.8249 119.758 36.2929 119.296 36.9049 118.948C37.5289 118.6 38.2009 118.426 38.9209 118.426ZM57.7823 118.426C59.0063 118.426 59.9903 118.804 60.7343 119.56C61.4903 120.304 61.8683 121.348 61.8683 122.692V128.542H59.3483V123.034C59.3483 122.254 59.1503 121.66 58.7543 121.252C58.3583 120.832 57.8183 120.622 57.1343 120.622C56.4503 120.622 55.9043 120.832 55.4963 121.252C55.1003 121.66 54.9023 122.254 54.9023 123.034V128.542H52.3823V123.034C52.3823 122.254 52.1843 121.66 51.7883 121.252C51.3923 120.832 50.8523 120.622 50.1683 120.622C49.4723 120.622 48.9203 120.832 48.5123 121.252C48.1163 121.66 47.9183 122.254 47.9183 123.034V128.542H45.3983V118.57H47.9183V119.776C48.2423 119.356 48.6563 119.026 49.1603 118.786C49.6763 118.546 50.2403 118.426 50.8523 118.426C51.6323 118.426 52.3283 118.594 52.9403 118.93C53.5523 119.254 54.0263 119.722 54.3623 120.334C54.6863 119.758 55.1543 119.296 55.7663 118.948C56.3903 118.6 57.0623 118.426 57.7823 118.426ZM65.5376 117.382C65.0936 117.382 64.7216 117.244 64.4216 116.968C64.1336 116.68 63.9896 116.326 63.9896 115.906C63.9896 115.486 64.1336 115.138 64.4216 114.862C64.7216 114.574 65.0936 114.43 65.5376 114.43C65.9816 114.43 66.3476 114.574 66.6356 114.862C66.9356 115.138 67.0856 115.486 67.0856 115.906C67.0856 116.326 66.9356 116.68 66.6356 116.968C66.3476 117.244 65.9816 117.382 65.5376 117.382ZM66.7796 118.57V128.542H64.2596V118.57H66.7796ZM73.0853 128.704C72.2693 128.704 71.5373 128.56 70.8893 128.272C70.2413 127.972 69.7253 127.57 69.3413 127.066C68.9693 126.562 68.7653 126.004 68.7293 125.392H71.2673C71.3153 125.776 71.5013 126.094 71.8253 126.346C72.1613 126.598 72.5753 126.724 73.0673 126.724C73.5473 126.724 73.9193 126.628 74.1833 126.436C74.4593 126.244 74.5973 125.998 74.5973 125.698C74.5973 125.374 74.4293 125.134 74.0933 124.978C73.7693 124.81 73.2473 124.63 72.5273 124.438C71.7833 124.258 71.1713 124.072 70.6913 123.88C70.2233 123.688 69.8153 123.394 69.4673 122.998C69.1313 122.602 68.9633 122.068 68.9633 121.396C68.9633 120.844 69.1193 120.34 69.4313 119.884C69.7553 119.428 70.2113 119.068 70.7993 118.804C71.3993 118.54 72.1013 118.408 72.9053 118.408C74.0933 118.408 75.0413 118.708 75.7493 119.308C76.4573 119.896 76.8473 120.694 76.9193 121.702H74.5073C74.4713 121.306 74.3033 120.994 74.0033 120.766C73.7153 120.526 73.3253 120.406 72.8333 120.406C72.3773 120.406 72.0233 120.49 71.7713 120.658C71.5313 120.826 71.4113 121.06 71.4113 121.36C71.4113 121.696 71.5793 121.954 71.9153 122.134C72.2513 122.302 72.7733 122.476 73.4813 122.656C74.2013 122.836 74.7953 123.022 75.2633 123.214C75.7313 123.406 76.1333 123.706 76.4693 124.114C76.8173 124.51 76.9973 125.038 77.0093 125.698C77.0093 126.274 76.8473 126.79 76.5233 127.246C76.2113 127.702 75.7553 128.062 75.1553 128.326C74.5673 128.578 73.8773 128.704 73.0853 128.704ZM82.8939 128.704C82.0779 128.704 81.3459 128.56 80.6979 128.272C80.0499 127.972 79.5339 127.57 79.1499 127.066C78.7779 126.562 78.5739 126.004 78.5379 125.392H81.0759C81.1239 125.776 81.3099 126.094 81.6339 126.346C81.9699 126.598 82.3839 126.724 82.8759 126.724C83.3559 126.724 83.7279 126.628 83.9919 126.436C84.2679 126.244 84.4059 125.998 84.4059 125.698C84.4059 125.374 84.2379 125.134 83.9019 124.978C83.5779 124.81 83.0559 124.63 82.3359 124.438C81.5919 124.258 80.9799 124.072 80.4999 123.88C80.0319 123.688 79.6239 123.394 79.2759 122.998C78.9399 122.602 78.7719 122.068 78.7719 121.396C78.7719 120.844 78.9279 120.34 79.2399 119.884C79.5639 119.428 80.0199 119.068 80.6079 118.804C81.2079 118.54 81.9099 118.408 82.7139 118.408C83.9019 118.408 84.8499 118.708 85.5579 119.308C86.2659 119.896 86.6559 120.694 86.7279 121.702H84.3159C84.2799 121.306 84.1119 120.994 83.8119 120.766C83.5239 120.526 83.1339 120.406 82.6419 120.406C82.1859 120.406 81.8319 120.49 81.5799 120.658C81.3399 120.826 81.2199 121.06 81.2199 121.36C81.2199 121.696 81.3879 121.954 81.7239 122.134C82.0599 122.302 82.5819 122.476 83.2899 122.656C84.0099 122.836 84.6039 123.022 85.0719 123.214C85.5399 123.406 85.9419 123.706 86.2779 124.114C86.6259 124.51 86.8059 125.038 86.8179 125.698C86.8179 126.274 86.6559 126.79 86.3319 127.246C86.0199 127.702 85.5639 128.062 84.9639 128.326C84.3759 128.578 83.6859 128.704 82.8939 128.704ZM90.1645 117.382C89.7205 117.382 89.3485 117.244 89.0485 116.968C88.7605 116.68 88.6165 116.326 88.6165 115.906C88.6165 115.486 88.7605 115.138 89.0485 114.862C89.3485 114.574 89.7205 114.43 90.1645 114.43C90.6085 114.43 90.9745 114.574 91.2625 114.862C91.5625 115.138 91.7125 115.486 91.7125 115.906C91.7125 116.326 91.5625 116.68 91.2625 116.968C90.9745 117.244 90.6085 117.382 90.1645 117.382ZM91.4065 118.57V128.542H88.8865V118.57H91.4065ZM98.3243 128.704C97.3643 128.704 96.5003 128.494 95.7323 128.074C94.9643 127.642 94.3583 127.036 93.9143 126.256C93.4823 125.476 93.2663 124.576 93.2663 123.556C93.2663 122.536 93.4883 121.636 93.9323 120.856C94.3883 120.076 95.0063 119.476 95.7863 119.056C96.5663 118.624 97.4363 118.408 98.3963 118.408C99.3563 118.408 100.226 118.624 101.006 119.056C101.786 119.476 102.398 120.076 102.842 120.856C103.298 121.636 103.526 122.536 103.526 123.556C103.526 124.576 103.292 125.476 102.824 126.256C102.368 127.036 101.744 127.642 100.952 128.074C100.172 128.494 99.2963 128.704 98.3243 128.704ZM98.3243 126.508C98.7803 126.508 99.2063 126.4 99.6023 126.184C100.01 125.956 100.334 125.62 100.574 125.176C100.814 124.732 100.934 124.192 100.934 123.556C100.934 122.608 100.682 121.882 100.178 121.378C99.6863 120.862 99.0803 120.604 98.3603 120.604C97.6403 120.604 97.0343 120.862 96.5423 121.378C96.0623 121.882 95.8223 122.608 95.8223 123.556C95.8223 124.504 96.0563 125.236 96.5243 125.752C97.0043 126.256 97.6043 126.508 98.3243 126.508ZM110.901 118.426C112.089 118.426 113.049 118.804 113.781 119.56C114.513 120.304 114.879 121.348 114.879 122.692V128.542H112.359V123.034C112.359 122.242 112.161 121.636 111.765 121.216C111.369 120.784 110.829 120.568 110.145 120.568C109.449 120.568 108.897 120.784 108.489 121.216C108.093 121.636 107.895 122.242 107.895 123.034V128.542H105.375V118.57H107.895V119.812C108.231 119.38 108.657 119.044 109.173 118.804C109.701 118.552 110.277 118.426 110.901 118.426ZM118.553 117.382C118.109 117.382 117.737 117.244 117.437 116.968C117.149 116.68 117.005 116.326 117.005 115.906C117.005 115.486 117.149 115.138 117.437 114.862C117.737 114.574 118.109 114.43 118.553 114.43C118.997 114.43 119.363 114.574 119.651 114.862C119.951 115.138 120.101 115.486 120.101 115.906C120.101 116.326 119.951 116.68 119.651 116.968C119.363 117.244 118.997 117.382 118.553 117.382ZM119.795 118.57V128.542H117.275V118.57H119.795ZM127.811 118.426C128.999 118.426 129.959 118.804 130.691 119.56C131.423 120.304 131.789 121.348 131.789 122.692V128.542H129.269V123.034C129.269 122.242 129.071 121.636 128.675 121.216C128.279 120.784 127.739 120.568 127.055 120.568C126.359 120.568 125.807 120.784 125.399 121.216C125.003 121.636 124.805 122.242 124.805 123.034V128.542H122.285V118.57H124.805V119.812C125.141 119.38 125.567 119.044 126.083 118.804C126.611 118.552 127.187 118.426 127.811 118.426ZM138.091 118.408C138.835 118.408 139.489 118.558 140.053 118.858C140.617 119.146 141.061 119.524 141.385 119.992V118.57H143.923V128.614C143.923 129.538 143.737 130.36 143.365 131.08C142.993 131.812 142.435 132.388 141.691 132.808C140.947 133.24 140.047 133.456 138.991 133.456C137.575 133.456 136.411 133.126 135.499 132.466C134.599 131.806 134.089 130.906 133.969 129.766H136.471C136.603 130.222 136.885 130.582 137.317 130.846C137.761 131.122 138.295 131.26 138.919 131.26C139.651 131.26 140.245 131.038 140.701 130.594C141.157 130.162 141.385 129.502 141.385 128.614V127.066C141.061 127.534 140.611 127.924 140.035 128.236C139.471 128.548 138.823 128.704 138.091 128.704C137.251 128.704 136.483 128.488 135.787 128.056C135.091 127.624 134.539 127.018 134.131 126.238C133.735 125.446 133.537 124.54 133.537 123.52C133.537 122.512 133.735 121.618 134.131 120.838C134.539 120.058 135.085 119.458 135.769 119.038C136.465 118.618 137.239 118.408 138.091 118.408ZM141.385 123.556C141.385 122.944 141.265 122.422 141.025 121.99C140.785 121.546 140.461 121.21 140.053 120.982C139.645 120.742 139.207 120.622 138.739 120.622C138.271 120.622 137.839 120.736 137.443 120.964C137.047 121.192 136.723 121.528 136.471 121.972C136.231 122.404 136.111 122.92 136.111 123.52C136.111 124.12 136.231 124.648 136.471 125.104C136.723 125.548 137.047 125.89 137.443 126.13C137.851 126.37 138.283 126.49 138.739 126.49C139.207 126.49 139.645 126.376 140.053 126.148C140.461 125.908 140.785 125.572 141.025 125.14C141.265 124.696 141.385 124.168 141.385 123.556Z" fill="black"/>
<defs>
<filter id="filter0_ii_613_7752" x="23.1743" y="-6.34086" width="99.6515" height="111.224" filterUnits="userSpaceOnUse" color-interpolation-filters="sRGB">
<feFlood flood-opacity="0" result="BackgroundImageFix"/>
<feBlend mode="normal" in="SourceGraphic" in2="BackgroundImageFix" result="shape"/>
<feColorMatrix in="SourceAlpha" type="matrix" values="0 0 0 0 0 0 0 0 0 0 0 0 0 0 0 0 0 0 127 0" result="hardAlpha"/>
<feOffset dx="0.554753" dy="6.34086"/>
<feGaussianBlur stdDeviation="3.18254"/>
<feComposite in2="hardAlpha" operator="arithmetic" k2="-1" k3="1"/>
<feColorMatrix type="matrix" values="0 0 0 0 0.951822 0 0 0 0 0.951822 0 0 0 0 0.951822 0 0 0 1 0"/>
<feBlend mode="normal" in2="shape" result="effect1_innerShadow_613_7752"/>
<feColorMatrix in="SourceAlpha" type="matrix" values="0 0 0 0 0 0 0 0 0 0 0 0 0 0 0 0 0 0 127 0" result="hardAlpha"/>
<feOffset dx="-0.554753" dy="-6.34086"/>
<feGaussianBlur stdDeviation="3.18254"/>
<feComposite in2="hardAlpha" operator="arithmetic" k2="-1" k3="1"/>
<feColorMatrix type="matrix" values="0 0 0 0 0.724929 0 0 0 0 0.724929 0 0 0 0 0.724929 0 0 0 1 0"/>
<feBlend mode="normal" in2="effect1_innerShadow_613_7752" result="effect2_innerShadow_613_7752"/>
</filter>
<clipPath id="clip0_613_7752">
<rect width="73" height="73" fill="white" transform="translate(36.3223 13)"/>
</clipPath>
</defs>
</svg>
