<svg width="184" height="136" viewBox="0 0 184 136" fill="none" xmlns="http://www.w3.org/2000/svg">
<g filter="url(#filter0_ii_613_7733)">
<rect width="98.542" height="98.542" rx="12.3177" fill="#D9D9D9"/>
</g>
<g clip-path="url(#clip0_613_7733)">
<path d="M45.1866 24.5033C45.3455 24.5015 45.3455 24.5015 45.5076 24.4997C45.858 24.4962 46.2084 24.495 46.5589 24.494C46.8025 24.4928 47.0461 24.4915 47.2898 24.4901C47.8007 24.4878 48.3116 24.4867 48.8225 24.4863C49.4769 24.4855 50.1311 24.4801 50.7854 24.4736C51.2887 24.4694 51.792 24.4683 52.2953 24.4682C52.5365 24.4676 52.7777 24.4658 53.0189 24.4629C53.3566 24.459 53.694 24.4597 54.0317 24.4615C54.1808 24.4583 54.1808 24.4583 54.3328 24.4551C54.879 24.4633 55.0961 24.5339 55.5237 24.8909C55.9621 25.4464 55.9734 25.8461 55.9692 26.5408C55.9688 26.6741 55.9683 26.8073 55.9678 26.9446C55.9667 27.0826 55.9655 27.2207 55.9643 27.3629C55.9636 27.5031 55.963 27.6433 55.9623 27.7878C55.9607 28.1333 55.9584 28.4788 55.9555 28.8243C56.0722 28.8459 56.0722 28.8459 56.1912 28.8679C57.0966 29.0511 57.8604 29.3779 58.6837 29.7917C59.2036 30.0515 59.2036 30.0515 59.7661 30.0479C60.1682 29.7088 60.5327 29.34 60.8949 28.958C61.8592 27.9486 61.8592 27.9486 62.5824 27.8975C63.1274 27.9117 63.382 28.0033 63.7802 28.3791C63.8773 28.4702 63.9744 28.5612 64.0745 28.655C64.6826 29.2504 65.2851 29.851 65.8822 30.4578C66.0221 30.5996 66.162 30.7413 66.302 30.883C66.5928 31.1777 66.8834 31.4726 67.1738 31.7677C67.5462 32.1461 67.9193 32.5239 68.2926 32.9015C68.5806 33.193 68.8682 33.4848 69.1557 33.7767C69.2933 33.9162 69.4309 34.0557 69.5687 34.195C69.7602 34.3888 69.9511 34.5831 70.1421 34.7774C70.2508 34.8877 70.3595 34.998 70.4715 35.1117C70.9042 35.5818 70.9355 35.9787 70.9276 36.6043C70.8028 37.2616 70.3398 37.644 69.8774 38.0919C69.6693 38.3057 69.4613 38.5196 69.2533 38.7335C69.0867 38.9002 68.9198 39.0667 68.7524 39.2325C68.9888 39.9831 69.2774 40.7075 69.5788 41.433C69.8006 41.9815 69.9454 42.4938 70.018 43.0821C70.1444 43.0787 70.1444 43.0787 70.2734 43.0753C70.66 43.0664 71.0464 43.0608 71.433 43.0554C71.5656 43.0518 71.6982 43.0482 71.8348 43.0445C72.6538 43.0358 73.2383 43.0955 73.9555 43.5098C74.2938 44.0244 74.2793 44.401 74.2798 44.9957C74.281 45.1031 74.2822 45.2105 74.2834 45.3211C74.2868 45.6764 74.288 46.0317 74.2889 46.387C74.2902 46.634 74.2915 46.8811 74.2928 47.1281C74.2951 47.6461 74.2962 48.1641 74.2966 48.6821C74.2973 49.3455 74.3026 50.0088 74.309 50.6722C74.3132 51.1825 74.3142 51.6928 74.3144 52.2031C74.315 52.4477 74.3167 52.6922 74.3197 52.9368C74.3234 53.2792 74.3228 53.6212 74.321 53.9636C74.3241 54.1148 74.3241 54.1148 74.3273 54.269C74.3192 54.8227 74.2496 55.0428 73.8975 55.4764C73.3496 55.9208 72.9554 55.9323 72.2702 55.9281C72.1387 55.9276 72.0073 55.9271 71.8719 55.9267C71.7358 55.9255 71.5996 55.9243 71.4594 55.923C71.3211 55.9224 71.1828 55.9218 71.0403 55.9211C70.6995 55.9194 70.3587 55.9171 70.018 55.9141C70.0038 55.993 69.9896 56.0719 69.975 56.1532C69.7943 57.0711 69.472 57.8455 69.0638 58.6802C68.8076 59.2074 68.8076 59.2074 68.8111 59.7777C69.1455 60.1854 69.5093 60.5549 69.8861 60.9222C70.8816 61.8999 70.8816 61.8999 70.932 62.6331C70.918 63.1856 70.8277 63.4438 70.4571 63.8476C70.3672 63.946 70.2774 64.0445 70.1849 64.1459C69.5977 64.7625 69.0053 65.3733 68.4068 65.9787C68.267 66.1206 68.1272 66.2624 67.9874 66.4043C67.6968 66.6992 67.4059 66.9938 67.1149 67.2882C66.7416 67.6659 66.369 68.0441 65.9966 68.4226C65.7091 68.7146 65.4213 69.0062 65.1334 69.2977C64.9958 69.4372 64.8582 69.5767 64.7208 69.7164C64.5297 69.9105 64.3381 70.1042 64.1464 70.2978C63.9832 70.4631 63.9832 70.4631 63.8167 70.6318C63.3531 71.0704 62.9616 71.1022 62.3446 71.0942C61.6963 70.9676 61.3191 70.4983 60.8774 70.0294C60.6664 69.8184 60.4555 69.6075 60.2445 69.3967C60.0801 69.2277 59.9159 69.0585 59.7524 68.8887C59.0121 69.1285 58.2975 69.4211 57.582 69.7267C57.041 69.9516 56.5358 70.0984 55.9555 70.1719C55.9588 70.3002 55.9588 70.3002 55.9622 70.431C55.971 70.8228 55.9764 71.2147 55.9818 71.6066C55.9854 71.7411 55.9889 71.8755 55.9926 72.014C56.0011 72.8444 55.9422 73.4369 55.5336 74.1641C55.0261 74.5072 54.6546 74.4924 54.0681 74.493C53.9622 74.4942 53.8563 74.4953 53.7471 74.4966C53.3967 74.5 53.0463 74.5013 52.6958 74.5022C52.4522 74.5035 52.2086 74.5048 51.9649 74.5061C51.454 74.5084 50.9431 74.5095 50.4322 74.51C49.7778 74.5107 49.1236 74.5161 48.4693 74.5226C47.966 74.5269 47.4627 74.5279 46.9594 74.528C46.7182 74.5286 46.477 74.5304 46.2358 74.5334C45.8981 74.5372 45.5607 74.5365 45.223 74.5347C45.0739 74.5379 45.0739 74.5379 44.9219 74.5411C44.3822 74.533 44.1584 74.4619 43.7327 74.1142C43.3272 73.5911 43.2818 73.2261 43.2855 72.5807C43.2859 72.4406 43.2864 72.3004 43.2869 72.1561C43.288 72.01 43.2892 71.864 43.2904 71.7136C43.2911 71.5659 43.2917 71.4182 43.2924 71.2661C43.294 70.9013 43.2963 70.5366 43.2992 70.1719C43.2214 70.1576 43.1436 70.1432 43.0635 70.1284C42.1581 69.9451 41.3943 69.6184 40.571 69.2045C40.0511 68.9447 40.0511 68.9447 39.4886 68.9483C39.0865 69.2874 38.7221 69.6562 38.3598 70.0383C37.3955 71.0476 37.3955 71.0476 36.6723 71.0987C36.1273 71.0845 35.8727 70.993 35.4745 70.6171C35.3774 70.5261 35.2803 70.435 35.1802 70.3412C34.5721 69.7458 33.9696 69.1452 33.3725 68.5384C33.2326 68.3967 33.0927 68.2549 32.9527 68.1132C32.6619 67.8185 32.3713 67.5236 32.0809 67.2285C31.7085 66.8501 31.3354 66.4723 30.9621 66.0947C30.6741 65.8032 30.3865 65.5114 30.099 65.2195C29.9614 65.08 29.8238 64.9405 29.686 64.8012C29.4945 64.6074 29.3036 64.4132 29.1126 64.2189C29.0039 64.1085 28.8952 63.9982 28.7832 63.8845C28.3505 63.4145 28.3192 63.0175 28.3271 62.392C28.4519 61.7346 28.9149 61.3522 29.3774 60.9044C29.5854 60.6905 29.7934 60.4766 30.0014 60.2628C30.168 60.0961 30.3349 59.9296 30.5024 59.7637C30.2659 59.0132 29.9773 58.2887 29.6759 57.5632C29.4541 57.0147 29.3093 56.5025 29.2367 55.9141C29.1103 55.9175 29.1103 55.9175 28.9813 55.9209C28.5947 55.9299 28.2083 55.9354 27.8217 55.9409C27.6891 55.9444 27.5565 55.948 27.4199 55.9517C26.6009 55.9604 26.0164 55.9007 25.2992 55.4864C24.9609 54.9719 24.9754 54.5952 24.9749 54.0005C24.9737 53.8931 24.9725 53.7858 24.9713 53.6751C24.968 53.3198 24.9667 52.9645 24.9658 52.6092C24.9645 52.3622 24.9632 52.1152 24.9619 51.8682C24.9596 51.3501 24.9585 50.8321 24.9581 50.3141C24.9574 49.6507 24.9521 48.9874 24.9457 48.324C24.9415 47.8137 24.9405 47.3034 24.9403 46.7931C24.9397 46.5485 24.938 46.304 24.935 46.0594C24.9313 45.7171 24.9319 45.375 24.9337 45.0326C24.9316 44.9318 24.9295 44.8311 24.9274 44.7273C24.9355 44.1735 25.0051 43.9534 25.3572 43.5199C25.9051 43.0754 26.2993 43.0639 26.9845 43.0682C27.116 43.0686 27.2474 43.0691 27.3828 43.0696C27.5189 43.0708 27.6551 43.072 27.7953 43.0732C27.9336 43.0738 28.0719 43.0745 28.2144 43.0751C28.5552 43.0768 28.896 43.0792 29.2367 43.0821C29.258 42.9638 29.258 42.9638 29.2797 42.8431C29.4604 41.9252 29.7827 41.1507 30.1909 40.316C30.4471 39.7888 30.4471 39.7888 30.4436 39.2186C30.1092 38.8109 29.7454 38.4414 29.3686 38.074C28.3731 37.0964 28.3731 37.0964 28.3227 36.3631C28.3367 35.8106 28.427 35.5524 28.7976 35.1486C28.9324 35.001 28.9324 35.001 29.0698 34.8503C29.657 34.2338 30.2494 33.6229 30.8479 33.0175C30.9877 32.8757 31.1275 32.7338 31.2673 32.5919C31.5579 32.297 31.8488 32.0024 32.1398 31.708C32.5131 31.3304 32.8857 30.9521 33.2581 30.5736C33.5456 30.2817 33.8334 29.99 34.1213 29.6985C34.2589 29.5591 34.3965 29.4195 34.5339 29.2798C34.725 29.0857 34.9166 28.8921 35.1083 28.6985C35.2715 28.5331 35.2715 28.5331 35.438 28.3644C35.9016 27.9258 36.2931 27.894 36.9101 27.902C37.5584 28.0286 37.9356 28.498 38.3774 28.9669C38.5883 29.1778 38.7992 29.3887 39.0102 29.5996C39.1746 29.7685 39.3388 29.9377 39.5024 30.1075C40.2426 29.8677 40.9572 29.5751 41.6727 29.2696C42.2137 29.0446 42.7189 28.8978 43.2992 28.8243C43.2959 28.6885 43.2959 28.6885 43.2925 28.5499C43.2837 28.1364 43.2783 27.723 43.2729 27.3094C43.2693 27.167 43.2658 27.0245 43.2621 26.8778C43.2544 26.0914 43.2627 25.5016 43.7211 24.8321C44.2286 24.4891 44.6001 24.5038 45.1866 24.5033ZM46.2524 27.5411C46.2059 28.5292 46.1595 29.5172 46.1117 30.5352C45.4802 31.1755 45.4802 31.1755 44.8609 31.3706C44.7275 31.4145 44.594 31.4583 44.4565 31.5034C44.3153 31.5486 44.1742 31.5937 44.0287 31.6402C42.8125 32.0463 41.7028 32.5155 40.5944 33.1635C39.9731 33.5202 39.5094 33.6238 38.7992 33.5294C38.3759 33.2452 38.0302 32.8965 37.6742 32.5313C37.5785 32.4361 37.4828 32.3409 37.3842 32.2428C37.1503 32.0086 36.9196 31.7717 36.6899 31.5333C36.0218 32.0984 35.391 32.6879 34.7788 33.3144C34.6959 33.3986 34.613 33.4829 34.5276 33.5696C34.2666 33.8351 34.006 34.101 33.7455 34.367C33.5671 34.5486 33.3887 34.7302 33.2102 34.9117C32.776 35.3535 32.3422 35.7958 31.9086 36.2383C32.043 36.3984 32.1776 36.5584 32.3122 36.7183C32.3871 36.8073 32.462 36.8964 32.5392 36.9882C32.7773 37.2655 33.0274 37.5249 33.2885 37.78C33.7023 38.1847 33.8642 38.3716 33.9175 38.9718C33.8716 39.5956 33.6719 40.018 33.3764 40.5513C32.8106 41.63 32.3866 42.7338 31.985 43.8841C31.9307 44.0393 31.9307 44.0393 31.8753 44.1977C31.8024 44.4084 31.7311 44.6197 31.6612 44.8315C31.3922 45.6174 31.3922 45.6174 30.9242 45.9337C29.9497 45.9807 28.9752 46.0278 27.9711 46.0762C27.9711 48.3347 27.9711 50.5931 27.9711 52.92C29.4329 52.9906 29.4329 52.9906 30.9242 53.0626C31.5557 53.7028 31.5557 53.7028 31.7482 54.3307C31.813 54.5337 31.813 54.5337 31.8792 54.7408C31.9237 54.8839 31.9682 55.027 32.0141 55.1745C32.4146 56.4077 32.8773 57.5327 33.5164 58.6565C33.8683 59.2865 33.9705 59.7566 33.8774 60.4766C33.5971 60.9058 33.2531 61.2563 32.893 61.6173C32.7991 61.7143 32.7052 61.8113 32.6084 61.9113C32.3774 62.1485 32.1438 62.3824 31.9086 62.6153C32.466 63.2927 33.0474 63.9322 33.6653 64.5529C33.7484 64.6369 33.8315 64.721 33.9171 64.8076C34.1789 65.0722 34.4412 65.3364 34.7035 65.6005C34.8826 65.7814 35.0617 65.9623 35.2408 66.1433C35.6765 66.5835 36.1128 67.0234 36.5492 67.463C36.7071 67.3267 36.8649 67.1903 37.0226 67.0538C37.1104 66.9778 37.1983 66.9019 37.2888 66.8236C37.5623 66.5822 37.8181 66.3286 38.0697 66.0639C38.4689 65.6443 38.6533 65.4802 39.2453 65.4262C39.8605 65.4727 40.2771 65.6752 40.8031 65.9748C41.867 66.5484 42.9557 66.9783 44.0902 67.3855C44.2433 67.4406 44.2433 67.4406 44.3995 67.4967C44.6073 67.5706 44.8158 67.6429 45.0246 67.7138C45.7998 67.9866 45.7998 67.9866 46.1117 68.461C46.1581 69.4491 46.2045 70.4371 46.2524 71.4551C48.4799 71.4551 50.7074 71.4551 53.0024 71.4551C53.0488 70.4671 53.0952 69.479 53.143 68.461C53.7745 67.8207 53.7745 67.8207 54.3938 67.6256C54.594 67.5598 54.594 67.5598 54.7982 67.4928C54.9394 67.4477 55.0805 67.4025 55.226 67.356C56.4422 66.9499 57.5519 66.4808 58.6603 65.8328C59.2816 65.476 59.7453 65.3724 60.4555 65.4669C60.8788 65.751 61.2245 66.0998 61.5805 66.4649C61.6762 66.5601 61.7719 66.6553 61.8705 66.7534C62.1044 66.9877 62.3351 67.2245 62.5649 67.463C63.2329 66.8978 63.8637 66.3084 64.4759 65.6818C64.5588 65.5976 64.6417 65.5134 64.7271 65.4266C64.9881 65.1611 65.2487 64.8952 65.5092 64.6292C65.6876 64.4476 65.866 64.2661 66.0445 64.0845C66.4787 63.6427 66.9125 63.2004 67.3461 62.7579C67.2117 62.5978 67.0771 62.4379 66.9425 62.278C66.8676 62.1889 66.7927 62.0998 66.7155 62.008C66.4774 61.7307 66.2273 61.4714 65.9662 61.2163C65.5524 60.8115 65.3905 60.6246 65.3373 60.0244C65.3831 59.4006 65.5828 58.9782 65.8783 58.4449C66.4441 57.3662 66.8681 56.2624 67.2697 55.1121C67.324 54.9569 67.324 54.9569 67.3794 54.7986C67.4523 54.5878 67.5236 54.3765 67.5935 54.1648C67.8625 53.3789 67.8625 53.3789 68.3305 53.0626C69.305 53.0155 70.2795 52.9685 71.2836 52.92C71.2836 50.6616 71.2836 48.4031 71.2836 46.0762C69.8218 46.0057 69.8218 46.0057 68.3305 45.9337C67.699 45.2934 67.699 45.2934 67.5065 44.6655C67.4633 44.5302 67.4201 44.3949 67.3755 44.2554C67.331 44.1123 67.2865 43.9692 67.2406 43.8217C66.8401 42.5886 66.3774 41.4635 65.7383 40.3397C65.3864 39.7098 65.2842 39.2396 65.3774 38.5196C65.6576 38.0904 66.0016 37.7399 66.3617 37.379C66.5026 37.2334 66.5026 37.2334 66.6463 37.0849C66.8773 36.8478 67.1109 36.6138 67.3461 36.3809C66.7887 35.7036 66.2073 35.0641 65.5894 34.4433C65.5063 34.3593 65.4232 34.2752 65.3376 34.1887C65.0758 33.924 64.8135 33.6598 64.5512 33.3957C64.3721 33.2148 64.193 33.0339 64.0139 32.853C63.5782 32.4127 63.1419 31.9729 62.7055 31.5333C62.5476 31.6695 62.3898 31.806 62.2321 31.9425C62.1443 32.0184 62.0564 32.0944 61.9659 32.1726C61.6924 32.4141 61.4366 32.6676 61.185 32.9323C60.7866 33.3511 60.6017 33.5158 60.0111 33.5706C59.3881 33.523 58.9592 33.3144 58.4252 33.0125C57.6495 32.5966 56.8766 32.2309 56.0522 31.9254C55.9125 31.8735 55.9125 31.8735 55.77 31.8207C55.3468 31.6657 54.9219 31.5162 54.4959 31.369C54.3569 31.3203 54.2179 31.2716 54.0746 31.2214C53.9546 31.1811 53.8346 31.1409 53.711 31.0994C53.4242 30.963 53.4242 30.963 53.143 30.5352C53.0966 29.5472 53.0502 28.5591 53.0024 27.5411C50.7749 27.5411 48.5474 27.5411 46.2524 27.5411Z" fill="#8100DD"/>
<path d="M50.7003 35.8471C51.1384 36.0861 51.5694 36.335 51.9996 36.5885C52.1568 36.6795 52.3139 36.7704 52.4759 36.8642C52.9335 37.1298 53.3897 37.3977 53.8453 37.6667C54.0125 37.7654 54.0125 37.7654 54.1832 37.8661C54.6535 38.1444 55.1223 38.4252 55.5905 38.7071C56.1048 39.0158 56.6223 39.3187 57.1406 39.6205C57.2208 39.6672 57.301 39.7139 57.3836 39.762C57.7814 39.9936 58.1795 40.2249 58.5779 40.4556C59.31 40.8817 60.0388 41.3133 60.759 41.7597C60.9454 41.8746 60.9454 41.8746 61.1356 41.9918C61.5241 42.2957 61.692 42.5805 61.7561 43.077C61.7564 43.1744 61.7566 43.2718 61.7569 43.3721C61.7579 43.4846 61.7589 43.5972 61.76 43.7131C61.7596 43.8352 61.7593 43.9574 61.7589 44.0832C61.7596 44.2129 61.7603 44.3426 61.7611 44.4762C61.763 44.9048 61.7629 45.3333 61.7626 45.7619C61.7631 46.0599 61.7637 46.3578 61.7644 46.6558C61.7655 47.2804 61.7654 47.9049 61.7647 48.5295C61.7639 49.3298 61.7662 50.1302 61.7695 50.9305C61.7716 51.5459 61.7717 52.1612 61.7713 52.7766C61.7713 53.0717 61.7721 53.3668 61.7735 53.6619C61.7752 54.0745 61.7743 54.4871 61.7726 54.8997C61.7737 55.0216 61.7748 55.1434 61.7759 55.269C61.7701 55.9356 61.724 56.3729 61.2984 56.9148C60.9729 57.1581 60.9729 57.1581 60.5859 57.377C60.4412 57.4602 60.2964 57.5434 60.1473 57.6291C59.9122 57.7607 59.9122 57.7607 59.6724 57.895C59.5078 57.9889 59.3433 58.083 59.1789 58.1773C58.8372 58.3731 58.4951 58.5681 58.1525 58.7625C57.363 59.2115 56.58 59.6721 55.7965 60.1317C55.6473 60.2188 55.4982 60.3059 55.3445 60.3957C54.5714 60.8475 53.8 61.3019 53.0307 61.7602C52.7997 61.8976 52.7997 61.8976 52.5641 62.0378C52.2714 62.2122 51.9789 62.387 51.6867 62.5622C51.5555 62.6403 51.4244 62.7184 51.2893 62.7989C51.1749 62.8674 51.0604 62.9359 50.9425 63.0065C50.2001 63.4132 49.7605 63.5475 48.9234 63.3308C48.4159 63.0913 47.9375 62.808 47.4556 62.5199C47.3142 62.437 47.1728 62.3542 47.0271 62.2689C46.5801 62.0066 46.1345 61.7421 45.689 61.4773C45.4111 61.3132 45.1332 61.1493 44.8552 60.9855C44.3 60.658 43.7455 60.3294 43.1913 60.0002C42.5684 59.6308 41.9439 59.2643 41.3181 58.8997C41.1937 58.8272 41.1937 58.8272 41.0668 58.7532C40.6648 58.5189 40.2627 58.285 39.8603 58.0516C39.4582 57.8173 39.0574 57.5811 38.6578 57.3425C38.565 57.2872 38.4723 57.2319 38.3767 57.175C37.9383 56.899 37.726 56.6844 37.5328 56.2019C37.497 55.9244 37.497 55.9244 37.4961 55.6293C37.4951 55.5168 37.4941 55.4042 37.4931 55.2883C37.4936 55.1051 37.4936 55.1051 37.4942 54.9181C37.4934 54.7885 37.4927 54.6588 37.492 54.5252C37.49 54.0966 37.4902 53.6681 37.4905 53.2395C37.4899 52.9415 37.4893 52.6436 37.4887 52.3456C37.4876 51.721 37.4877 51.0965 37.4884 50.4719C37.4892 49.6715 37.4868 48.8712 37.4836 48.0709C37.4815 47.4555 37.4814 46.8402 37.4818 46.2248C37.4817 45.9297 37.481 45.6346 37.4796 45.3395C37.4779 44.9269 37.4788 44.5143 37.4804 44.1017C37.4788 43.9189 37.4788 43.9189 37.4772 43.7324C37.483 43.0658 37.529 42.6285 37.9547 42.0866C38.2802 41.8433 38.2802 41.8433 38.6671 41.6244C38.8119 41.5412 38.9566 41.458 39.1058 41.3723C39.2625 41.2846 39.4192 41.1968 39.5806 41.1064C39.7454 41.0124 39.9101 40.9182 40.0747 40.8238C40.4167 40.6279 40.7591 40.4328 41.1018 40.2383C41.8852 39.7927 42.6617 39.335 43.439 38.8786C43.7395 38.703 44.04 38.5273 44.3405 38.3518C44.906 38.021 45.4711 37.6895 46.0357 37.3571C46.3745 37.1576 46.7135 36.9584 47.0525 36.7593C47.2926 36.6181 47.5325 36.4764 47.7723 36.3348C47.9171 36.2498 48.0618 36.1648 48.2109 36.0772C48.3386 36.0019 48.4663 35.9267 48.5979 35.8492C49.3616 35.4302 49.9357 35.483 50.7003 35.8471ZM48.8586 39.1638C48.7273 39.2422 48.5959 39.3206 48.4606 39.4015C48.3175 39.4877 48.1744 39.5739 48.0269 39.6628C47.7225 39.8449 47.418 40.0269 47.1134 40.2086C46.9936 40.2802 46.9936 40.2802 46.8713 40.3532C46.2562 40.7194 45.6371 41.078 45.0161 41.4339C44.9261 41.4856 44.836 41.5373 44.7433 41.5906C44.3873 41.7949 44.0313 41.9991 43.6745 42.2019C43.4259 42.3433 43.1778 42.4856 42.9298 42.628C42.7871 42.7094 42.6443 42.7907 42.4973 42.8746C42.1579 43.0552 42.1579 43.0552 42.0328 43.3698C42.1244 43.4234 42.216 43.477 42.3104 43.5322C42.5894 43.6954 42.8685 43.8587 43.1475 44.022C43.4735 44.2126 43.7997 44.403 44.1261 44.5929C44.9086 45.0487 45.6895 45.5066 46.4632 45.9778C46.7126 46.1295 46.9625 46.2803 47.2126 46.4308C47.5283 46.6211 47.8429 46.8133 48.1562 47.0076C48.3717 47.1367 48.3717 47.1367 48.5916 47.2685C48.7171 47.3452 48.8426 47.4219 48.9719 47.501C49.4489 47.6877 49.6998 47.6443 50.189 47.5046C50.5744 47.3273 50.5744 47.3273 50.9526 47.093C51.0977 47.0071 51.2429 46.9212 51.3924 46.8327C51.6233 46.6933 51.6233 46.6933 51.859 46.5511C52.1019 46.4067 52.3448 46.2622 52.5878 46.1179C52.8389 45.9684 53.0896 45.8183 53.3402 45.6681C53.8377 45.37 54.3368 45.0747 54.8363 44.78C55.6315 44.3109 56.4261 43.8407 57.2203 43.3698C56.8807 42.988 56.5157 42.7561 56.0761 42.5027C55.8564 42.3752 55.8564 42.3752 55.6322 42.2451C55.4747 42.1546 55.3172 42.0641 55.1549 41.9708C54.8246 41.7798 54.4945 41.5885 54.1644 41.3971C54.0802 41.3484 53.996 41.2997 53.9092 41.2495C53.3234 40.9102 52.7406 40.566 52.1594 40.2186C52.0054 40.1267 51.8513 40.0348 51.6926 39.9401C51.397 39.7634 51.1017 39.5862 50.8066 39.4087C50.6739 39.3295 50.5411 39.2503 50.4044 39.1688C50.2294 39.0638 50.2294 39.0638 50.0509 38.9566C49.5416 38.6886 49.3248 38.8833 48.8586 39.1638ZM40.4859 45.9362C40.4859 48.9004 40.4859 51.8646 40.4859 54.9187C41.0602 55.251 41.6345 55.5833 42.2261 55.9256C43.317 56.5569 44.4072 57.1893 45.494 57.8276C45.5785 57.8772 45.663 57.9268 45.7501 57.9779C46.1558 58.2161 46.5614 58.4546 46.9667 58.6937C47.1112 58.7786 47.2557 58.8635 47.4046 58.951C47.5956 59.0636 47.5956 59.0636 47.7905 59.1785C48.0453 59.35 48.0453 59.35 48.2203 59.3386C48.2203 56.3744 48.2203 53.4102 48.2203 50.3562C47.6402 50.0209 47.0601 49.6857 46.4625 49.3403C45.4005 48.7262 44.3394 48.1108 43.2847 47.484C43.1311 47.3928 42.9776 47.3015 42.8194 47.2075C42.5279 47.0339 42.2365 46.8599 41.9454 46.6855C41.8146 46.6075 41.6837 46.5295 41.5488 46.4492C41.4347 46.3808 41.3206 46.3125 41.203 46.242C40.8959 46.0608 40.8959 46.0608 40.4859 45.9362ZM57.9278 46.3228C57.7818 46.4055 57.6358 46.4883 57.4854 46.5736C57.3283 46.6632 57.1712 46.7529 57.0093 46.8452C56.8498 46.936 56.6902 47.0268 56.5258 47.1203C54.7674 48.1195 54.7674 48.1195 53.0407 49.1737C52.7203 49.3581 52.7203 49.3581 52.3018 49.5371C51.8125 49.7679 51.4334 49.9878 51.0328 50.3562C50.7999 51.0401 50.8349 51.7051 50.868 52.4185C50.8711 52.6185 50.8735 52.8185 50.8752 53.0184C50.8816 53.5422 50.8982 54.0652 50.9169 54.5886C50.9342 55.1237 50.9419 55.659 50.9504 56.1943C50.9684 57.2428 50.9972 58.2906 51.0328 59.3386C51.2973 59.206 51.5617 59.073 51.826 58.9399C52.0468 58.8289 52.0468 58.8289 52.2721 58.7157C52.9799 58.3484 53.6624 57.9404 54.3463 57.5296C54.6159 57.3686 54.8857 57.2076 55.1554 57.0468C55.2976 56.956 55.4398 56.8653 55.5862 56.7719C55.9759 56.5363 56.366 56.3846 56.7941 56.2336C57.5734 55.9268 58.2615 55.617 58.7672 54.9187C59.1846 53.5589 59.0312 52.0518 58.9506 50.6471C58.9231 50.1159 58.911 49.5843 58.8976 49.0526C58.8691 48.0129 58.8237 46.9749 58.7672 45.9362C58.4738 45.9362 58.1734 46.1834 57.9278 46.3228Z" fill="#8100DD"/>
<path d="M84.6433 48.073C85.1354 48.3744 85.3051 48.5175 85.4871 49.071C85.999 57.3656 82.6995 66.1551 77.4714 72.4538C77.4119 72.5269 77.3524 72.5999 77.2911 72.6751C75.7749 74.5337 74.1529 76.2503 72.2683 77.7292C72.0921 77.8724 71.9159 78.0158 71.7399 78.1592C69.2327 80.1779 66.3058 82.0651 63.2683 83.1472C63.4075 83.3192 63.4075 83.3192 63.5496 83.4947C63.9234 84.068 63.9638 84.619 63.8308 85.2859C63.5759 85.7225 63.5759 85.7225 63.1277 85.9988C61.9433 86.1759 60.7847 85.856 59.6479 85.5506C59.3559 85.4727 59.063 85.3993 58.7697 85.3263C58.5808 85.2769 58.3919 85.2272 58.2031 85.1773C57.9505 85.1112 57.9505 85.1112 57.6929 85.0438C57.121 84.8186 56.8153 84.5797 56.3777 84.1452C56.1724 83.5416 56.1339 83.2424 56.3874 82.6583C56.9321 81.672 57.5226 80.7287 58.1531 79.7966C58.2452 79.6577 58.3373 79.5187 58.4321 79.3756C58.5217 79.2425 58.6112 79.1094 58.7035 78.9723C58.7836 78.8531 58.8636 78.734 58.9461 78.6112C59.3019 78.1569 59.6094 77.916 60.157 77.7471C60.7136 77.7245 60.9788 77.8451 61.4402 78.157C61.8561 78.677 61.93 79.0643 61.8621 79.7253C61.7725 79.9646 61.6794 80.2026 61.5808 80.4382C69.7276 76.9975 76.3946 70.8105 79.856 62.4934C81.3609 58.7302 82.2469 54.8616 82.4257 50.8048C82.4309 50.6943 82.436 50.5839 82.4412 50.4701C82.45 50.2635 82.4568 50.0569 82.4613 49.8502C82.4844 49.2383 82.5867 48.8457 82.9558 48.3581C83.5216 47.9757 83.9785 47.9748 84.6433 48.073Z" fill="#8100DD"/>
<path d="M38.749 13.2232C39.0356 13.2955 39.3214 13.3702 39.6069 13.4469C39.8989 13.5249 40.1919 13.5982 40.4851 13.6713C40.6741 13.7207 40.8629 13.7703 41.0517 13.8203C41.2201 13.8643 41.3885 13.9084 41.562 13.9538C42.1338 14.1789 42.4395 14.4179 42.8771 14.8523C43.0824 15.4558 43.1207 15.7551 42.8678 16.3393C42.3224 17.3278 41.7276 18.2691 41.0929 19.2009C40.9997 19.3399 40.9064 19.4788 40.8103 19.622C39.8265 21.0765 39.8265 21.0765 39.1769 21.2505C38.5754 21.2712 38.3092 21.1824 37.8146 20.8406C37.3987 20.3205 37.3248 19.9333 37.3928 19.2722C37.4823 19.0329 37.5755 18.7949 37.674 18.5593C29.5332 21.9975 22.7751 28.2167 19.3565 36.567C17.8848 40.3132 17.0056 44.1624 16.8285 48.195C16.8235 48.3051 16.8185 48.4152 16.8133 48.5287C16.8047 48.7348 16.798 48.941 16.7936 49.1472C16.7704 49.7591 16.6682 50.1518 16.299 50.6394C15.7333 51.0218 15.2764 51.0227 14.6115 50.9246C14.1195 50.6232 13.9498 50.4801 13.7678 49.9265C13.5069 44.4284 14.8571 38.9135 17.1428 33.9578C17.1899 33.8546 17.237 33.7514 17.2855 33.6451C18.653 30.6769 20.4994 28.0012 22.6271 25.5456C22.7343 25.421 22.8414 25.2964 22.9518 25.168C24.1954 23.7431 25.5077 22.4403 26.9865 21.2683C27.1632 21.1244 27.3399 20.9806 27.5166 20.8367C30.0239 18.8191 32.9495 16.9322 35.9865 15.8503C35.8473 15.6783 35.8473 15.6783 35.7053 15.5028C35.3314 14.9295 35.291 14.3786 35.424 13.7117C36.1201 12.5192 37.6148 12.9516 38.749 13.2232Z" fill="#8100DD"/>
<path d="M17.2621 56.465C17.5228 56.6211 17.7715 56.7877 18.0203 56.9626C18.1113 57.0243 18.2023 57.086 18.2962 57.1496C18.4869 57.2796 18.6771 57.4107 18.8665 57.5427C19.1559 57.7441 19.4474 57.9421 19.7393 58.1397C19.9252 58.2669 20.111 58.3944 20.2966 58.522C20.4265 58.6105 20.4265 58.6105 20.559 58.7007C21.1609 59.1223 21.5512 59.4611 21.766 60.1767C21.7883 60.741 21.6694 61.0099 21.3617 61.4777C20.8488 61.8994 20.4669 61.9743 19.8149 61.9055C19.5789 61.8147 19.3441 61.7202 19.1117 61.6203C21.9234 68.4638 26.464 74.1736 32.7524 78.0168C32.8378 78.0691 32.9232 78.1214 33.0112 78.1753C37.6768 81.001 42.917 82.509 48.3392 82.7547C48.4482 82.7599 48.5571 82.7651 48.6694 82.7704C48.8731 82.7793 49.0769 82.7863 49.2807 82.7908C49.8842 82.8142 50.2715 82.9179 50.7524 83.2922C51.1295 83.8658 51.1304 84.329 51.0336 85.0031C50.7363 85.502 50.5952 85.674 50.0492 85.8586C41.8692 86.372 33.1981 83.0313 26.9867 77.7316C26.9147 77.6713 26.8427 77.6109 26.7685 77.5487C24.9354 76.0115 23.2423 74.367 21.7836 72.4562C21.6424 72.2776 21.501 72.099 21.3595 71.9204C19.3685 69.3785 17.5071 66.4109 16.4399 63.3312C16.3239 63.4253 16.2078 63.5194 16.0883 63.6164C15.6408 63.9149 15.2814 63.9982 14.748 63.9628C14.361 63.8772 14.0595 63.723 13.7758 63.4417C13.2497 62.5447 13.6867 61.1911 13.9191 60.2433C13.9686 60.0489 14.0187 59.8547 14.0694 59.6606C14.1463 59.3645 14.2186 59.0675 14.2907 58.7701C14.3394 58.5786 14.3884 58.3871 14.4376 58.1956C14.5028 57.9396 14.5028 57.9396 14.5693 57.6783C14.7905 57.1009 15.0311 56.7884 15.4555 56.3449C16.075 56.1355 16.6705 56.1915 17.2621 56.465Z" fill="#8100DD"/>
<path d="M76.4863 25.6889C77.2754 26.0212 77.7019 26.7327 78.1914 27.4087C78.2843 27.5361 78.3772 27.6634 78.473 27.7946C80.19 30.1787 81.8615 32.8646 82.8144 35.6693C82.9841 35.5282 82.9841 35.5282 83.1572 35.3842C83.7226 35.0052 84.266 34.9642 84.9238 35.099C85.3544 35.3574 85.3544 35.3574 85.6269 35.8119C85.8016 37.0127 85.4861 38.1875 85.1849 39.34C85.108 39.6361 85.0357 39.9331 84.9636 40.2304C84.9149 40.422 84.8659 40.6135 84.8167 40.8049C84.7732 40.9756 84.7298 41.1464 84.685 41.3222C84.4629 41.902 84.2273 42.212 83.7988 42.6557C83.2034 42.8638 82.9083 42.9029 82.3322 42.6458C81.3594 42.0935 80.4291 41.4949 79.5097 40.8556C79.3727 40.7622 79.2356 40.6689 79.0944 40.5727C78.8976 40.4365 78.8976 40.4365 78.6967 40.2976C78.5792 40.2164 78.4616 40.1352 78.3405 40.0516C77.8925 39.6908 77.6549 39.3791 77.4882 38.8239C77.466 38.2596 77.5849 37.9907 77.8925 37.5229C78.4055 37.1012 78.7874 37.0263 79.4394 37.0951C79.6754 37.1859 79.9101 37.2804 80.1425 37.3803C78.7917 34.0924 77.1024 31.108 74.9202 28.3132C74.4894 27.7492 74.4468 27.404 74.5175 26.6869C75.0285 25.8171 75.5104 25.6218 76.4863 25.6889Z" fill="#8100DD"/>
<path d="M65.9403 17.0081C66.1181 17.0926 66.1181 17.0926 66.2995 17.1789C66.9952 17.5295 67.406 17.8314 67.7684 18.5586C67.871 19.2056 67.8181 19.4717 67.4872 20.0378C66.9883 20.4804 66.5875 20.577 65.9403 20.5547C65.5779 20.4142 65.2941 20.2779 64.9647 20.0824C60.7099 17.7588 55.8561 16.4526 51.0318 16.2439C50.8599 16.2363 50.8599 16.2363 50.6845 16.2284C50.467 16.2197 50.2494 16.2129 50.0317 16.2085C49.4075 16.1859 48.9986 16.0994 48.5028 15.707C48.1256 15.1334 48.1247 14.6702 48.2215 13.9961C50.4669 10.228 62.9298 15.5364 65.9403 17.0081Z" fill="#8100DD"/>
<path d="M72.3737 21.3144C72.7359 21.5898 72.945 21.8169 73.0186 22.2802C73.0285 22.8688 73.023 23.1822 72.7077 23.6937C72.2543 24.1264 71.9245 24.1809 71.2987 24.1693C70.7565 24.0816 70.5067 23.8215 70.1589 23.4085C70.0103 23.0163 69.9691 22.6851 70.0182 22.2679C70.2444 21.8093 70.4369 21.5194 70.8444 21.2164C71.4153 21.0462 71.8346 21.0535 72.3737 21.3144Z" fill="#8100DD"/>
</g>
<path d="M16.851 128.668C15.975 128.668 15.183 128.518 14.475 128.218C13.779 127.918 13.227 127.486 12.819 126.922C12.411 126.358 12.201 125.692 12.189 124.924H14.889C14.925 125.44 15.105 125.848 15.429 126.148C15.765 126.448 16.221 126.598 16.797 126.598C17.385 126.598 17.847 126.46 18.183 126.184C18.519 125.896 18.687 125.524 18.687 125.068C18.687 124.696 18.573 124.39 18.345 124.15C18.117 123.91 17.829 123.724 17.481 123.592C17.145 123.448 16.677 123.292 16.077 123.124C15.261 122.884 14.595 122.65 14.079 122.422C13.575 122.182 13.137 121.828 12.765 121.36C12.405 120.88 12.225 120.244 12.225 119.452C12.225 118.708 12.411 118.06 12.783 117.508C13.155 116.956 13.677 116.536 14.349 116.248C15.021 115.948 15.789 115.798 16.653 115.798C17.949 115.798 18.999 116.116 19.803 116.752C20.619 117.376 21.069 118.252 21.153 119.38H18.381C18.357 118.948 18.171 118.594 17.823 118.318C17.487 118.03 17.037 117.886 16.473 117.886C15.981 117.886 15.585 118.012 15.285 118.264C14.997 118.516 14.853 118.882 14.853 119.362C14.853 119.698 14.961 119.98 15.177 120.208C15.405 120.424 15.681 120.604 16.005 120.748C16.341 120.88 16.809 121.036 17.409 121.216C18.225 121.456 18.891 121.696 19.407 121.936C19.923 122.176 20.367 122.536 20.739 123.016C21.111 123.496 21.297 124.126 21.297 124.906C21.297 125.578 21.123 126.202 20.775 126.778C20.427 127.354 19.917 127.816 19.245 128.164C18.573 128.5 17.775 128.668 16.851 128.668ZM32.8957 118.57V128.542H30.3577V127.282C30.0337 127.714 29.6077 128.056 29.0797 128.308C28.5637 128.548 27.9997 128.668 27.3877 128.668C26.6077 128.668 25.9177 128.506 25.3177 128.182C24.7177 127.846 24.2437 127.36 23.8957 126.724C23.5597 126.076 23.3917 125.308 23.3917 124.42V118.57H25.9117V124.06C25.9117 124.852 26.1097 125.464 26.5057 125.896C26.9017 126.316 27.4417 126.526 28.1257 126.526C28.8217 126.526 29.3677 126.316 29.7637 125.896C30.1597 125.464 30.3577 124.852 30.3577 124.06V118.57H32.8957ZM37.9021 120.01C38.2261 119.554 38.6701 119.176 39.2341 118.876C39.8101 118.564 40.4641 118.408 41.1961 118.408C42.0481 118.408 42.8161 118.618 43.5001 119.038C44.1961 119.458 44.7421 120.058 45.1381 120.838C45.5461 121.606 45.7501 122.5 45.7501 123.52C45.7501 124.54 45.5461 125.446 45.1381 126.238C44.7421 127.018 44.1961 127.624 43.5001 128.056C42.8161 128.488 42.0481 128.704 41.1961 128.704C40.4641 128.704 39.8161 128.554 39.2521 128.254C38.7001 127.954 38.2501 127.576 37.9021 127.12V133.294H35.3821V118.57H37.9021V120.01ZM43.1761 123.52C43.1761 122.92 43.0501 122.404 42.7981 121.972C42.5581 121.528 42.2341 121.192 41.8261 120.964C41.4301 120.736 40.9981 120.622 40.5301 120.622C40.0741 120.622 39.6421 120.742 39.2341 120.982C38.8381 121.21 38.5141 121.546 38.2621 121.99C38.0221 122.434 37.9021 122.956 37.9021 123.556C37.9021 124.156 38.0221 124.678 38.2621 125.122C38.5141 125.566 38.8381 125.908 39.2341 126.148C39.6421 126.376 40.0741 126.49 40.5301 126.49C40.9981 126.49 41.4301 126.37 41.8261 126.13C42.2341 125.89 42.5581 125.548 42.7981 125.104C43.0501 124.66 43.1761 124.132 43.1761 123.52ZM50.1014 120.01C50.4254 119.554 50.8694 119.176 51.4334 118.876C52.0094 118.564 52.6634 118.408 53.3954 118.408C54.2474 118.408 55.0154 118.618 55.6994 119.038C56.3954 119.458 56.9414 120.058 57.3374 120.838C57.7454 121.606 57.9494 122.5 57.9494 123.52C57.9494 124.54 57.7454 125.446 57.3374 126.238C56.9414 127.018 56.3954 127.624 55.6994 128.056C55.0154 128.488 54.2474 128.704 53.3954 128.704C52.6634 128.704 52.0154 128.554 51.4514 128.254C50.8994 127.954 50.4494 127.576 50.1014 127.12V133.294H47.5814V118.57H50.1014V120.01ZM55.3754 123.52C55.3754 122.92 55.2494 122.404 54.9974 121.972C54.7574 121.528 54.4334 121.192 54.0254 120.964C53.6294 120.736 53.1974 120.622 52.7294 120.622C52.2734 120.622 51.8414 120.742 51.4334 120.982C51.0374 121.21 50.7134 121.546 50.4614 121.99C50.2214 122.434 50.1014 122.956 50.1014 123.556C50.1014 124.156 50.2214 124.678 50.4614 125.122C50.7134 125.566 51.0374 125.908 51.4334 126.148C51.8414 126.376 52.2734 126.49 52.7294 126.49C53.1974 126.49 53.6294 126.37 54.0254 126.13C54.4334 125.89 54.7574 125.548 54.9974 125.104C55.2494 124.66 55.3754 124.132 55.3754 123.52ZM62.3006 115.222V128.542H59.7806V115.222H62.3006ZM74.3303 118.57L68.1563 133.258H65.4743L67.6343 128.29L63.6383 118.57H66.4643L69.0383 125.536L71.6483 118.57H74.3303Z" fill="black"/>
<path d="M122.542 67.771H125.736" stroke="black" stroke-width="6.3886" stroke-linecap="round"/>
<path d="M138.513 67.771H141.708" stroke="black" stroke-width="6.3886" stroke-linecap="round"/>
<path d="M154.485 67.771H157.679" stroke="black" stroke-width="6.3886" stroke-linecap="round"/>
<path d="M182.435 66.3878C183.5 67.0025 183.5 68.5394 182.435 69.1541L172.852 74.6868C171.787 75.3016 170.457 74.5331 170.457 73.3037V62.2383C170.457 61.0088 171.787 60.2404 172.852 60.8551L182.435 66.3878Z" fill="black"/>
<defs>
<filter id="filter0_ii_613_7733" x="-0.554753" y="-6.34086" width="99.6515" height="111.224" filterUnits="userSpaceOnUse" color-interpolation-filters="sRGB">
<feFlood flood-opacity="0" result="BackgroundImageFix"/>
<feBlend mode="normal" in="SourceGraphic" in2="BackgroundImageFix" result="shape"/>
<feColorMatrix in="SourceAlpha" type="matrix" values="0 0 0 0 0 0 0 0 0 0 0 0 0 0 0 0 0 0 127 0" result="hardAlpha"/>
<feOffset dx="0.554753" dy="6.34086"/>
<feGaussianBlur stdDeviation="3.18254"/>
<feComposite in2="hardAlpha" operator="arithmetic" k2="-1" k3="1"/>
<feColorMatrix type="matrix" values="0 0 0 0 0.951822 0 0 0 0 0.951822 0 0 0 0 0.951822 0 0 0 1 0"/>
<feBlend mode="normal" in2="shape" result="effect1_innerShadow_613_7733"/>
<feColorMatrix in="SourceAlpha" type="matrix" values="0 0 0 0 0 0 0 0 0 0 0 0 0 0 0 0 0 0 127 0" result="hardAlpha"/>
<feOffset dx="-0.554753" dy="-6.34086"/>
<feGaussianBlur stdDeviation="3.18254"/>
<feComposite in2="hardAlpha" operator="arithmetic" k2="-1" k3="1"/>
<feColorMatrix type="matrix" values="0 0 0 0 0.724929 0 0 0 0 0.724929 0 0 0 0 0.724929 0 0 0 1 0"/>
<feBlend mode="normal" in2="effect1_innerShadow_613_7733" result="effect2_innerShadow_613_7733"/>
</filter>
<clipPath id="clip0_613_7733">
<rect width="72" height="73" fill="white" transform="translate(13.6272 13)"/>
</clipPath>
</defs>
</svg>
