<svg width="184" height="136" viewBox="0 0 184 136" fill="none" xmlns="http://www.w3.org/2000/svg">
<g filter="url(#filter0_ii_613_7676)">
<rect width="98.542" height="98.542" rx="12.3177" fill="#D9D9D9"/>
</g>
<g clip-path="url(#clip0_613_7676)">
<path d="M64.2651 19.8079C64.4244 19.8049 64.5836 19.802 64.7477 19.799C66.9615 19.7887 68.8324 20.4247 70.4584 21.9549C71.8453 23.4746 72.4633 25.6081 72.4041 27.6373C72.2702 29.2632 71.5028 30.8255 70.9128 32.328C70.7787 32.6781 70.645 33.0283 70.5116 33.3787C70.2668 34.0199 70.0201 34.6602 69.7707 35.2996C69.7173 35.4376 69.664 35.5756 69.6091 35.7177C69.5174 35.9517 69.4235 36.1849 69.3258 36.4164C69.0526 37.0811 68.9733 37.6792 68.9797 38.3898C68.9772 38.6044 68.9747 38.819 68.9722 39.0336C68.9707 39.3672 68.9702 39.7007 68.9705 40.0342C68.97 40.3594 68.9661 40.6845 68.9619 41.0097C68.963 41.1092 68.9642 41.2087 68.9654 41.3112C68.9581 41.79 68.9203 42.0455 68.6292 42.4327C68.2045 42.7391 67.8762 42.7422 67.3573 42.7629C67.1904 42.771 67.0235 42.7791 66.8516 42.7874C66.6608 42.793 66.6608 42.793 66.4662 42.7986C66.6266 42.9491 66.6266 42.9491 66.7903 43.1027C67.8815 44.147 68.7765 45.2432 69.6029 46.5056C69.692 46.6381 69.7812 46.7706 69.873 46.9072C72.3479 50.8346 73.0183 56.0311 72.0038 60.5321C71.5177 62.4573 70.7627 64.4911 69.6269 66.1307C69.5719 66.2415 69.5169 66.3524 69.4603 66.4665C69.6261 66.908 69.8721 67.198 70.2045 67.5263C70.2991 67.6205 70.3936 67.7146 70.491 67.8115C70.5946 67.9132 70.6983 68.0149 70.805 68.1197C70.9143 68.2281 71.0235 68.3364 71.136 68.448C71.3732 68.6832 71.6107 68.9181 71.8485 69.1526C72.225 69.5241 72.6004 69.8966 72.9755 70.2694C74.0423 71.3292 75.1106 72.3873 76.1802 73.4442C76.8344 74.0908 77.4872 74.7387 78.1392 75.3876C78.3878 75.6344 78.637 75.8807 78.8867 76.1265C79.2361 76.4704 79.5838 76.8162 79.9312 77.1623C80.0345 77.2631 80.1378 77.364 80.2443 77.4679C81.0979 78.3248 81.4979 79.0423 81.4993 80.2877C81.4719 81.3204 81.3138 81.9656 80.5998 82.7154C79.7902 83.4638 79.1598 83.7596 78.0417 83.772C77.8762 83.776 77.7106 83.7801 77.5399 83.7842C76.3092 83.6296 75.5447 82.8961 74.7088 82.0341C74.5431 81.8668 74.5431 81.8668 74.374 81.696C74.1356 81.455 73.8979 81.2134 73.6608 80.9711C73.2858 80.5882 72.909 80.2072 72.5317 79.8266C71.5958 78.8819 70.6627 77.9345 69.7303 76.9864C68.9406 76.1835 68.1494 75.3821 67.3562 74.5827C66.9842 74.2065 66.6144 73.8284 66.2445 73.4502C66.0177 73.2213 65.7908 72.9925 65.5638 72.7638C65.461 72.6575 65.3582 72.5512 65.2522 72.4417C65.1096 72.2993 65.1096 72.2993 64.964 72.154C64.8819 72.0705 64.7998 71.987 64.7152 71.9009C64.4763 71.7089 64.4763 71.7089 64.1708 71.7774C63.8578 71.9011 63.6086 72.0615 63.3295 72.2499C59.4518 74.6234 54.2845 75.2842 49.8731 74.285C48.7623 74.0048 47.6959 73.6283 46.6478 73.1677C46.5079 73.1071 46.5079 73.1071 46.3652 73.0453C41.9546 71.0982 38.622 67.3583 36.8667 62.9054C36.3822 61.6189 36.3822 61.6189 36.3822 60.906C36.247 60.909 36.1118 60.912 35.9724 60.9151C35.4697 60.9248 34.967 60.9319 34.4642 60.9373C34.2468 60.9402 34.0294 60.9441 33.812 60.949C33.4991 60.956 33.1864 60.9592 32.8734 60.9617C32.6853 60.9647 32.4971 60.9677 32.3033 60.9707C31.8197 60.906 31.8197 60.906 31.4722 60.6774C31.1743 60.2206 31.1842 59.9185 31.1937 59.3755C31.1955 59.1908 31.1974 59.0061 31.1993 58.8158C31.204 58.6214 31.2089 58.427 31.2137 58.2327C31.2166 58.0361 31.2192 57.8395 31.2215 57.6429C31.2283 57.1621 31.2377 56.6816 31.2494 56.2009C31.1602 56.1861 31.071 56.1713 30.9792 56.1561C30.1395 56.0045 29.4094 55.7784 28.6384 55.4167C28.4459 55.329 28.2534 55.2414 28.0609 55.1539C27.8898 55.0759 27.7187 54.998 27.5424 54.9177C27.3051 54.8217 27.0676 54.7265 26.8295 54.6326C26.7489 54.7139 26.6683 54.7952 26.5853 54.879C26.2215 55.2457 25.8572 55.6119 25.4928 55.9781C25.3026 56.1702 25.3026 56.1702 25.1085 56.3661C24.9872 56.4878 24.8659 56.6096 24.7409 56.735C24.5729 56.9042 24.5729 56.9042 24.4015 57.0767C23.9654 57.4877 23.6097 57.5603 23.0068 57.5502C22.6227 57.4689 22.4616 57.3334 22.174 57.0681C22.0754 56.9775 21.9768 56.8869 21.8752 56.7936C21.2886 56.2318 20.7102 55.6627 20.1372 55.087C20.0143 54.9647 19.8915 54.8424 19.7649 54.7164C19.6483 54.5996 19.5317 54.4828 19.4115 54.3624C19.2533 54.204 19.2533 54.204 19.0919 54.0423C18.6938 53.6145 18.6248 53.2505 18.6385 52.6638C18.7687 52.0285 19.2509 51.6495 19.7006 51.2107C19.8605 51.0496 20.0201 50.8882 20.1795 50.7267C20.6347 50.2671 21.0936 49.8114 21.5541 49.3572C21.5167 49.2739 21.4793 49.1907 21.4408 49.1049C21.2691 48.7204 21.0997 48.3348 20.9303 47.9492C20.8715 47.8184 20.8127 47.6875 20.7521 47.5527C20.3756 46.6905 20.1281 45.8676 19.9857 44.9373C19.898 44.9402 19.8103 44.9432 19.7199 44.9463C19.3214 44.9582 18.9229 44.9656 18.5243 44.9729C18.3863 44.9777 18.2482 44.9825 18.106 44.9874C17.9728 44.9892 17.8395 44.9911 17.7022 44.9929C17.5798 44.9959 17.4573 44.9989 17.3312 45.002C16.9916 44.9373 16.9916 44.9373 16.6667 44.7288C16.3032 44.1929 16.3394 43.7179 16.3455 43.0837C16.345 42.9593 16.3444 42.8349 16.3439 42.7067C16.3435 42.444 16.3445 42.1813 16.3469 41.9186C16.35 41.5167 16.3469 41.1152 16.3433 40.7134C16.3437 40.4579 16.3444 40.2025 16.3455 39.947C16.3444 39.827 16.3432 39.707 16.342 39.5833C16.3506 39.0486 16.3612 38.7524 16.6667 38.3019C17.0491 38.0566 17.251 38.0268 17.7022 38.0378C17.8355 38.0396 17.9687 38.0415 18.106 38.0434C18.2441 38.0482 18.3821 38.0529 18.5243 38.0579C18.6645 38.0604 18.8048 38.063 18.9492 38.0657C19.2949 38.0724 19.6402 38.0817 19.9857 38.0935C20.0005 38.0043 20.0153 37.9152 20.0306 37.8233C20.1822 36.9836 20.4082 36.2535 20.7699 35.4825C20.8576 35.2901 20.9452 35.0975 21.0328 34.905C21.1497 34.6483 21.1497 34.6483 21.2689 34.3865C21.3649 34.1492 21.4602 33.9117 21.5541 33.6736C21.4728 33.593 21.3914 33.5124 21.3077 33.4294C20.9409 33.0656 20.5747 32.7013 20.2085 32.3369C20.0165 32.1467 20.0165 32.1467 19.8206 31.9526C19.6988 31.8313 19.5771 31.71 19.4516 31.585C19.3389 31.473 19.2261 31.361 19.11 31.2456C18.6989 30.8095 18.6264 30.4538 18.6364 29.851C18.7178 29.4668 18.8533 29.3057 19.1186 29.0181C19.2091 28.9195 19.2997 28.8209 19.3931 28.7193C19.9548 28.1327 20.524 27.5543 21.0996 26.9813C21.2831 26.797 21.2831 26.797 21.4703 26.609C21.5871 26.4924 21.7039 26.3758 21.8242 26.2556C21.9298 26.1501 22.0355 26.0447 22.1443 25.936C22.5722 25.5379 22.9362 25.4689 23.5229 25.4826C24.1582 25.6128 24.5372 26.095 24.976 26.5447C25.1371 26.7046 25.2984 26.8642 25.4599 27.0237C25.9196 27.4788 26.3752 27.9377 26.8295 28.3982C26.9127 28.3608 26.9959 28.3234 27.0817 28.2849C27.4663 28.1132 27.8518 27.9438 28.2374 27.7744C28.3683 27.7156 28.4991 27.6568 28.634 27.5962C29.4962 27.2197 30.3191 26.9722 31.2494 26.8298C31.2449 26.6464 31.2449 26.6464 31.2403 26.4593C31.2306 26.0044 31.2235 25.5496 31.2181 25.0946C31.2152 24.8979 31.2113 24.7013 31.2064 24.5047C31.1994 24.2216 31.1965 23.9384 31.1937 23.6552C31.1892 23.3999 31.1892 23.3999 31.1846 23.1394C31.2494 22.6951 31.2494 22.6951 31.4578 22.3546C31.9962 22.0127 32.477 22.043 33.1029 22.049C33.2273 22.0485 33.3518 22.0479 33.48 22.0474C33.7427 22.047 34.0054 22.048 34.268 22.0504C34.6699 22.0535 35.0714 22.0504 35.4733 22.0468C35.7287 22.0472 35.9842 22.0479 36.2396 22.049C36.3596 22.0479 36.4797 22.0467 36.6033 22.0455C37.1275 22.0539 37.4356 22.0693 37.8847 22.3546C38.164 22.8109 38.1582 23.122 38.1488 23.6552C38.147 23.84 38.1452 24.0247 38.1433 24.215C38.1385 24.4093 38.1337 24.6037 38.1288 24.7981C38.1259 24.9947 38.1233 25.1913 38.121 25.3879C38.1143 25.8686 38.1049 26.3492 38.0931 26.8298C38.1823 26.8446 38.2715 26.8594 38.3634 26.8747C39.2031 27.0263 39.9331 27.2524 40.7041 27.614C40.8966 27.7017 41.0891 27.7893 41.2817 27.8769C41.4528 27.9548 41.6239 28.0327 41.8002 28.113C42.0374 28.209 42.275 28.3043 42.5131 28.3982C42.5936 28.3169 42.6742 28.2356 42.7572 28.1518C43.121 27.785 43.4854 27.4188 43.8497 27.0526C43.9766 26.9246 44.1034 26.7966 44.234 26.6647C44.3553 26.5429 44.4766 26.4212 44.6016 26.2957C44.7136 26.183 44.8256 26.0702 44.941 25.9541C45.3772 25.543 45.7329 25.4705 46.3357 25.4805C46.7199 25.5619 46.881 25.6974 47.1686 25.9627C47.3165 26.0985 47.3165 26.0985 47.4674 26.2372C48.054 26.799 48.6323 27.3681 49.2053 27.9437C49.3282 28.066 49.4511 28.1884 49.5776 28.3144C49.6943 28.4312 49.8109 28.548 49.931 28.6683C50.0893 28.8268 50.0893 28.8268 50.2507 28.9885C50.6487 29.4163 50.7177 29.7803 50.7041 30.367C50.5738 31.0023 50.0916 31.3813 49.642 31.8201C49.4821 31.9812 49.3224 32.1425 49.163 32.3041C48.7079 32.7637 48.249 33.2193 47.7885 33.6736C47.8258 33.7568 47.8632 33.8401 47.9017 33.9258C48.0734 34.3104 48.2428 34.6959 48.4122 35.0815C48.5005 35.2778 48.5005 35.2778 48.5905 35.4781C48.6474 35.6086 48.7044 35.7391 48.7631 35.8735C48.8154 35.9915 48.8676 36.1095 48.9215 36.231C49.1308 36.8398 49.242 37.461 49.3568 38.0935C49.4786 38.0916 49.4786 38.0916 49.6029 38.0897C50.4636 38.0768 51.3243 38.0684 52.1851 38.0622C52.5044 38.0593 52.8238 38.0555 53.1431 38.0505C55.3617 38.0167 57.4982 38.0983 59.6224 38.8064C59.7001 37.6266 59.5126 36.7225 59.0861 35.6268C59.0308 35.4787 58.9756 35.3306 58.9186 35.178C58.7427 34.7082 58.5634 34.2399 58.3838 33.7716C58.2659 33.4592 58.1483 33.1466 58.031 32.834C57.8062 32.2363 57.5811 31.6388 57.3552 31.0416C57.3039 30.906 57.2527 30.7704 57.1998 30.6308C57.1103 30.3947 57.0203 30.1587 56.9298 29.923C56.136 27.8548 56.042 25.93 56.9497 23.8546C57.9496 21.8875 59.3403 20.8152 61.3985 20.0947C62.3542 19.8084 63.2741 19.8123 64.2651 19.8079ZM60.0101 23.7249C58.9797 24.7904 58.705 26.0609 58.7227 27.5043C58.7997 28.315 59.0864 29.0285 59.3857 29.7805C59.4487 29.9452 59.5116 30.1098 59.5765 30.2794C59.7763 30.8 59.98 31.3189 60.1838 31.8379C60.3206 32.1915 60.4564 32.5455 60.5924 32.8994C61.1309 34.3756 61.1309 34.3756 61.7611 35.8123C63.4549 35.8123 65.1488 35.8123 66.8939 35.8123C67.2808 34.864 67.6603 33.9139 68.0345 32.9607C68.0724 32.8649 68.1102 32.7691 68.1492 32.6705C68.4048 32.0235 68.6567 31.3752 68.9052 30.7254C68.9894 30.5066 69.0746 30.2881 69.1608 30.0701C69.857 28.3058 70.213 26.8129 69.5255 24.9618C68.9595 23.8359 68.0843 22.9748 66.8939 22.5525C66.741 22.4966 66.5881 22.4407 66.4305 22.3832C64.1386 21.8866 61.7735 22.0699 60.0101 23.7249ZM33.5306 24.406C33.5253 24.6892 33.52 24.9725 33.5145 25.2643C33.5076 25.5389 33.5006 25.8135 33.4932 26.0882C33.4862 26.3726 33.4812 26.657 33.4763 26.9415C33.4688 27.2096 33.4688 27.2096 33.461 27.4831C33.4573 27.6481 33.4536 27.8132 33.4497 27.9832C33.3881 28.3982 33.3881 28.3982 33.2082 28.6575C32.9204 28.8531 32.6819 28.9328 32.3438 29.0147C32.2216 29.0461 32.0995 29.0775 31.9736 29.1098C31.8434 29.1426 31.7132 29.1754 31.5791 29.2091C30.0231 29.6242 28.6014 30.211 27.2572 31.1072C26.6953 31.1929 26.3343 31.2414 25.8437 30.939C25.5378 30.6759 25.2576 30.3982 24.976 30.1091C24.836 29.9704 24.6958 29.8319 24.5555 29.6936C24.1697 29.3124 23.788 28.9274 23.4076 28.5408C22.9154 28.7514 22.6021 29.0309 22.2313 29.4141C22.1306 29.5174 22.0299 29.6206 21.9261 29.7271C21.8125 29.8456 21.8125 29.8456 21.6967 29.9666C21.8943 30.4134 22.1231 30.7106 22.4725 31.0504C22.5674 31.1437 22.6623 31.2371 22.7601 31.3333C22.9086 31.4772 22.9086 31.4772 23.0601 31.624C23.2566 31.8157 23.4528 32.0076 23.6488 32.1999C23.7793 32.3266 23.7793 32.3266 23.9125 32.4559C24.3039 32.8693 24.3078 33.2418 24.3 33.8013C24.2407 34.2828 24.0104 34.6095 23.7462 35.0103C22.8248 36.4905 22.377 38.1798 21.9306 39.854C21.8392 40.0896 21.8392 40.0896 21.5541 40.2322C21.3374 40.2537 21.12 40.2677 20.9025 40.2773C20.7747 40.2833 20.647 40.2892 20.5154 40.2954C20.3818 40.301 20.2481 40.3066 20.1105 40.3124C19.9758 40.3185 19.841 40.3247 19.7022 40.331C19.369 40.3462 19.0358 40.3605 18.7025 40.3748C18.7025 41.1276 18.7025 41.8804 18.7025 42.656C18.9034 42.6613 19.1043 42.6667 19.3113 42.6722C19.5747 42.6815 19.8381 42.691 20.1016 42.7006C20.3002 42.7054 20.3002 42.7054 20.5028 42.7103C20.6301 42.7154 20.7574 42.7204 20.8885 42.7256C21.0644 42.7312 21.0644 42.7312 21.2438 42.7369C21.6282 42.8133 21.7496 42.9136 21.9818 43.2263C22.0908 43.5135 22.0908 43.5135 22.1706 43.8429C22.202 43.965 22.2334 44.0872 22.2657 44.213C22.2985 44.3432 22.3312 44.4734 22.365 44.6075C22.7801 46.1635 23.3669 47.5853 24.2631 48.9294C24.3488 49.4913 24.3973 49.8523 24.0949 50.343C23.8318 50.6489 23.554 50.9291 23.265 51.2107C23.1263 51.3506 22.9878 51.4908 22.8495 51.6312C22.4682 52.0169 22.0833 52.3987 21.6967 52.779C21.9073 53.2712 22.1868 53.5846 22.5699 53.9553C22.6732 54.056 22.7765 54.1568 22.883 54.2605C23.0015 54.3741 23.0015 54.3741 23.1224 54.49C23.5693 54.2924 23.8665 54.0636 24.2063 53.7142C24.2996 53.6192 24.393 53.5243 24.4892 53.4265C24.5851 53.3275 24.6811 53.2286 24.7799 53.1266C24.9716 52.93 25.1635 52.7338 25.3558 52.5379C25.4403 52.4509 25.5247 52.3638 25.6118 52.2741C26.0252 51.8827 26.3977 51.8789 26.9571 51.8867C27.4387 51.9459 27.7654 52.1762 28.1661 52.4404C29.6464 53.3618 31.3357 53.8096 33.0099 54.2561C33.2455 54.3474 33.2455 54.3474 33.3881 54.6326C33.4101 54.9325 33.4237 55.2331 33.4332 55.5337C33.4391 55.7129 33.4451 55.8921 33.4513 56.0767C33.4569 56.2647 33.4625 56.4528 33.4683 56.6465C33.4744 56.8375 33.4806 57.0285 33.4869 57.2196C33.5021 57.688 33.5164 58.1563 33.5306 58.6248C34.2835 58.6248 35.0363 58.6248 35.8119 58.6248C35.8156 58.3285 35.8192 58.0322 35.823 57.727C35.8671 55.0514 35.9464 52.4364 36.9904 49.9269C37.1197 49.626 37.1197 49.626 37.0951 49.2146C36.9846 49.237 36.8742 49.2594 36.7604 49.2825C34.425 49.6172 32.1546 49.4918 30.1622 48.1363C29.9517 47.9764 29.7437 47.813 29.5385 47.6462C29.4214 47.5599 29.3043 47.4735 29.1837 47.3845C27.5858 46.0078 26.9012 43.9907 26.7142 41.9509C26.5782 39.8383 27.2909 37.8499 28.6011 36.2105C30.1278 34.554 32.0234 33.7431 34.2458 33.5533C36.4525 33.4667 38.4235 34.1653 40.1054 35.5722C40.69 36.1157 41.1196 36.69 41.515 37.3806C41.5714 37.4773 41.6279 37.574 41.686 37.6736C42.4232 39.0384 42.5915 40.4082 42.6556 41.9431C42.749 41.8826 42.8424 41.8222 42.9386 41.7599C44.281 40.8971 45.6363 40.0687 47.0756 39.3767C47.018 37.7662 46.3691 36.2391 45.525 34.8855C45.0934 34.1725 44.8868 33.7864 45.0795 32.9607C45.3585 32.5235 45.7072 32.1809 46.0775 31.8201C46.2162 31.6801 46.3547 31.54 46.493 31.3996C46.8743 31.0138 47.2592 30.6321 47.6459 30.2517C47.4353 29.7595 47.1557 29.4462 46.7726 29.0754C46.6176 28.9244 46.6176 28.9244 46.4596 28.7702C46.3806 28.6945 46.3015 28.6188 46.2201 28.5408C45.7732 28.7384 45.4761 28.9672 45.1363 29.3166C45.0429 29.4115 44.9495 29.5065 44.8534 29.6043C44.7574 29.7032 44.6615 29.8022 44.5626 29.9042C44.371 30.1007 44.179 30.297 43.9867 30.4929C43.9023 30.5799 43.8178 30.6669 43.7308 30.7566C43.3174 31.148 42.9448 31.1519 42.3854 31.1441C41.9039 31.0849 41.5771 30.8545 41.1764 30.5903C39.6961 29.669 38.0069 29.2212 36.3326 28.7747C36.097 28.6833 36.097 28.6833 35.9545 28.3982C35.9325 28.0982 35.9188 27.7977 35.9094 27.4971C35.9034 27.3179 35.8974 27.1387 35.8913 26.954C35.8857 26.766 35.88 26.578 35.8743 26.3843C35.8681 26.1932 35.8619 26.0022 35.8556 25.8112C35.8405 25.3428 35.8261 24.8744 35.8119 24.406C35.0591 24.406 34.3063 24.406 33.5306 24.406ZM30.5721 37.541C29.3515 38.834 29.04 40.3641 29.0712 42.0684C29.1436 43.64 29.9522 44.8284 31.0533 45.8907C32.4006 46.9969 33.8415 47.2507 35.5329 47.11C37.0616 46.9231 38.2358 46.0543 39.207 44.9016C40.2319 43.4812 40.4539 41.9423 40.2318 40.2322C39.8565 38.6588 38.8565 37.4446 37.4961 36.5964C35.1327 35.3076 32.5624 35.7632 30.5721 37.541ZM62.0463 38.0935C61.8693 39.6637 61.8693 39.6637 62.3548 40.1943C63.101 40.5444 64.0072 40.433 64.8087 40.4104C64.9817 40.4078 65.1546 40.4053 65.3328 40.4026C65.7582 40.3959 66.1835 40.3857 66.6088 40.3748C66.6088 39.6219 66.6088 38.8691 66.6088 38.0935C65.1031 38.0935 63.5975 38.0935 62.0463 38.0935ZM42.9547 44.9122C39.8281 47.9994 38.1839 51.9691 38.1466 56.3435C38.1839 60.7161 39.8167 64.6009 42.8868 67.7102C46.0953 70.8633 50.1702 72.2357 54.5928 72.2315C58.8458 72.1669 62.7123 70.3202 65.6602 67.2888C68.9688 63.7515 70.0096 59.5525 69.9075 54.815C69.87 53.9123 69.7157 53.0769 69.4603 52.2087C69.4118 52.0347 69.3633 51.8606 69.3133 51.6813C68.0751 47.6113 65.1713 44.2576 61.4583 42.2267C55.3632 39.0142 47.8961 40.1749 42.9547 44.9122ZM67.2983 68.8859C67.1825 69.005 67.0667 69.1241 66.9474 69.2468C66.7726 69.4255 66.7726 69.4255 66.5943 69.6077C66.505 69.7004 66.4156 69.793 66.3236 69.8884C66.513 70.3079 66.7194 70.6055 67.0433 70.9314C67.1324 71.0217 67.2215 71.1121 67.3134 71.2051C67.411 71.3026 67.5086 71.4001 67.6092 71.5006C67.7121 71.6045 67.8151 71.7084 67.9212 71.8155C68.2619 72.159 68.6038 72.5013 68.9457 72.8436C69.183 73.0818 69.4203 73.3201 69.6576 73.5583C70.1552 74.0577 70.6534 74.5564 71.152 75.0548C71.7908 75.6936 72.4276 76.3343 73.0639 76.9755C73.5534 77.4682 74.0442 77.9596 74.5354 78.4506C74.7707 78.6863 75.0056 78.9224 75.24 79.159C75.568 79.4898 75.8977 79.8187 76.2279 80.1472C76.3244 80.2452 76.4209 80.3433 76.5202 80.4443C77.0296 80.947 77.4288 81.3042 78.1576 81.4372C78.6204 81.2584 78.8151 81.095 79.0844 80.6798C79.1869 80.1287 79.0161 79.9214 78.7279 79.4412C78.4022 79.0563 78.0475 78.7037 77.6892 78.3493C77.5839 78.2435 77.4786 78.1377 77.3701 78.0287C77.023 77.6805 76.6745 77.3338 76.3258 76.9873C76.0841 76.7456 75.8424 76.5039 75.6009 76.2621C75.0951 75.7564 74.5887 75.2514 74.0817 74.747C73.4305 74.099 72.7808 73.4495 72.1317 72.7994C71.6334 72.3006 71.1343 71.8024 70.635 71.3045C70.3951 71.0652 70.1554 70.8256 69.9158 70.5858C69.582 70.252 69.2473 69.919 68.9123 69.5863C68.7628 69.4364 68.7628 69.4364 68.6104 69.2834C68.5194 69.1934 68.4285 69.1035 68.3348 69.0108C68.2161 68.8926 68.2161 68.8926 68.0951 68.7721C67.7363 68.4774 67.6311 68.5831 67.2983 68.8859Z" fill="#8100DD"/>
<path d="M62.4742 45.3664C65.2307 47.6571 67.3264 50.7118 67.7496 54.3489C68.0357 58.3947 67.3436 62.0356 64.6747 65.1976C62.867 67.2706 60.6806 68.7643 58.0543 69.6047C57.9159 69.6503 57.7775 69.6959 57.6349 69.7428C54.2164 70.667 50.4576 70.1 47.3609 68.4641C44.0778 66.5692 41.7683 63.5899 40.683 59.9644C39.7061 56.314 40.3483 52.4068 42.2159 49.1709C44.2562 45.9885 47.3265 43.6954 51.0249 42.8191C55.0359 42.0254 59.2352 42.8526 62.4742 45.3664ZM45.7926 48.5032C43.4855 50.9041 42.7172 53.9431 42.76 57.1859C42.8324 59.5121 43.8488 61.851 45.3648 63.6164C45.4356 63.7074 45.5063 63.7984 45.5793 63.8921C47.1765 65.8665 49.8326 67.2832 52.3512 67.6086C55.8257 67.8897 58.9218 67.1083 61.6237 64.8545C63.6076 63.0589 65.1609 60.4152 65.351 57.6948C65.4246 54.4803 64.9168 51.5857 62.7594 49.0735C62.6886 48.9825 62.6178 48.8915 62.5449 48.7978C60.9037 46.7689 58.3293 45.4705 55.773 45.0813C55.6379 45.0596 55.5029 45.0379 55.3637 45.0156C51.7661 44.5762 48.3451 46.034 45.7926 48.5032Z" fill="#8100DD"/>
<path d="M46.078 55.1314C46.1721 55.1299 46.2662 55.1285 46.3632 55.127C46.796 55.2419 46.9513 55.4139 47.2186 55.773C47.3138 56.1677 47.3814 56.5316 47.4325 56.9315C47.7406 58.9253 48.4739 60.3677 50.0457 61.6805C51.3181 62.5982 52.6712 62.9094 54.2066 63.079C54.7062 63.2057 54.8955 63.3479 55.203 63.7574C55.2788 64.0425 55.2788 64.0425 55.2743 64.3277C55.2765 64.4689 55.2765 64.4689 55.2788 64.6129C55.1648 65.0417 54.988 65.2059 54.6327 65.4683C52.4789 65.7971 50.4213 65.0831 48.6444 63.9C46.8688 62.5929 45.4471 60.5834 44.978 58.4024C44.9188 57.8948 44.8956 57.3884 44.8839 56.878C44.8802 56.7784 44.8765 56.6789 44.8726 56.5763C44.871 56.0923 44.9037 55.8196 45.1902 55.4232C45.5245 55.191 45.6768 55.1251 46.078 55.1314Z" fill="#8100DD"/>
<path d="M76.3043 18.7032C76.6966 18.9748 76.8344 19.1716 77.0083 19.6121C77.021 20.1472 76.8829 20.3916 76.5894 20.8418C76.2013 21.1273 75.785 21.3305 75.3508 21.5369C75.2399 21.5943 75.1289 21.6516 75.0147 21.7107C74.2664 22.0777 73.7152 22.2098 72.8824 22.125C72.4901 21.8534 72.3523 21.6566 72.1784 21.2161C72.1657 20.681 72.3038 20.4366 72.5972 19.9864C72.9854 19.7009 73.4017 19.4977 73.8359 19.2913C74.0023 19.2053 74.0023 19.2053 74.172 19.1175C74.9203 18.7506 75.4714 18.6184 76.3043 18.7032Z" fill="#8100DD"/>
<path d="M53.4922 18.7035C53.9876 18.875 54.4389 19.1066 54.9002 19.354C55.0219 19.4137 55.1435 19.4733 55.2689 19.5348C55.872 19.8521 56.1473 20.0107 56.4363 20.6467C56.4974 21.2327 56.3823 21.4973 56.0586 21.9828C55.5925 22.2159 55.1367 22.1985 54.6329 22.1254C54.1348 21.9381 53.6796 21.6902 53.216 21.4303C53.0931 21.3647 52.9703 21.2991 52.8437 21.2315C51.9457 20.7432 51.9457 20.7432 51.7813 20.4145C51.7002 19.409 51.7002 19.409 51.9952 18.9174C52.4931 18.6186 52.9321 18.6226 53.4922 18.7035Z" fill="#8100DD"/>
<path d="M72.1695 14.424C72.4025 14.8901 72.3852 15.3459 72.312 15.8498C72.1247 16.3479 71.8769 16.803 71.617 17.2666C71.5514 17.3895 71.4858 17.5124 71.4182 17.639C70.9299 18.5369 70.9299 18.5369 70.6011 18.7013C69.5956 18.7824 69.5956 18.7824 69.104 18.4875C68.8052 17.9894 68.8081 17.5505 68.8902 16.9904C69.065 16.4951 69.2997 16.0436 69.5496 15.5824C69.6104 15.4608 69.6713 15.3391 69.7339 15.2137C70.0264 14.662 70.1967 14.3449 70.7576 14.0464C71.3777 13.9713 71.6273 14.1263 72.1695 14.424Z" fill="#8100DD"/>
<path d="M57.7691 14.0645C58.2652 14.1962 58.5099 14.5275 58.7763 14.9528C58.9362 15.2366 59.0844 15.5243 59.2305 15.8155C59.2823 15.9122 59.3341 16.0088 59.3875 16.1084C59.7465 16.8183 59.8368 17.3376 59.7652 18.1324C59.5513 18.4888 59.5513 18.4888 59.1948 18.7027C58.7985 18.7807 58.446 18.8068 58.0542 18.7027C57.4829 18.2573 57.1964 17.6619 56.8779 17.0274C56.8002 16.8824 56.8002 16.8824 56.7209 16.7345C56.3619 16.0246 56.2716 15.5053 56.3433 14.7105C56.7073 14.1038 57.1118 14.0747 57.7691 14.0645Z" fill="#8100DD"/>
<path d="M64.3277 12.93C64.4218 12.9285 64.5159 12.9271 64.6129 12.9255C65.0289 13.036 65.1965 13.2424 65.4684 13.5716C65.5421 13.9414 65.5421 13.9414 65.5441 14.3558C65.5448 14.5057 65.5456 14.6557 65.5463 14.8102C65.5441 14.9661 65.5419 15.122 65.5396 15.2825C65.5418 15.4384 65.5441 15.5942 65.5463 15.7548C65.5456 15.9048 65.5449 16.0548 65.5441 16.2093C65.5435 16.346 65.5428 16.4828 65.5421 16.6237C65.4481 17.0951 65.2672 17.2657 64.898 17.5638C64.6129 17.6395 64.6129 17.6395 64.3277 17.6351C64.1866 17.6373 64.1866 17.6373 64.0426 17.6395C63.6265 17.529 63.459 17.3227 63.1871 16.9935C63.1133 16.6237 63.1133 16.6237 63.1114 16.2093C63.1106 16.0593 63.1099 15.9093 63.1091 15.7548C63.1113 15.599 63.1135 15.4431 63.1158 15.2825C63.1136 15.1267 63.1114 14.9708 63.1091 14.8102C63.1102 14.5853 63.1102 14.5853 63.1114 14.3558C63.112 14.219 63.1126 14.0823 63.1133 13.9414C63.2437 13.2881 63.6613 12.9196 64.3277 12.93Z" fill="#8100DD"/>
</g>
<path d="M37.7713 128.542L34.9993 123.646H33.8113V128.542H31.2913V115.978H36.0073C36.9793 115.978 37.8073 116.152 38.4913 116.5C39.1753 116.836 39.6853 117.298 40.0213 117.886C40.3693 118.462 40.5433 119.11 40.5433 119.83C40.5433 120.658 40.3033 121.408 39.8233 122.08C39.3433 122.74 38.6293 123.196 37.6813 123.448L40.6873 128.542H37.7713ZM33.8113 121.756H35.9173C36.6013 121.756 37.1113 121.594 37.4473 121.27C37.7833 120.934 37.9513 120.472 37.9513 119.884C37.9513 119.308 37.7833 118.864 37.4473 118.552C37.1113 118.228 36.6013 118.066 35.9173 118.066H33.8113V121.756ZM52.4886 128.542L51.1206 127.192C49.9566 128.236 48.5346 128.758 46.8546 128.758C45.9306 128.758 45.1146 128.602 44.4066 128.29C43.7106 127.966 43.1706 127.516 42.7866 126.94C42.4026 126.352 42.2106 125.674 42.2106 124.906C42.2106 124.078 42.4446 123.334 42.9126 122.674C43.3806 122.014 44.0706 121.48 44.9826 121.072C44.6586 120.676 44.4246 120.298 44.2806 119.938C44.1366 119.566 44.0646 119.17 44.0646 118.75C44.0646 118.174 44.2146 117.658 44.5146 117.202C44.8146 116.734 45.2406 116.368 45.7926 116.104C46.3566 115.84 47.0106 115.708 47.7546 115.708C48.5106 115.708 49.1586 115.852 49.6986 116.14C50.2386 116.428 50.6406 116.812 50.9046 117.292C51.1686 117.772 51.2826 118.306 51.2466 118.894H48.7986C48.8106 118.498 48.7146 118.198 48.5106 117.994C48.3066 117.778 48.0306 117.67 47.6826 117.67C47.3466 117.67 47.0646 117.772 46.8366 117.976C46.6206 118.168 46.5126 118.42 46.5126 118.732C46.5126 119.032 46.6026 119.332 46.7826 119.632C46.9626 119.92 47.2566 120.28 47.6646 120.712L50.8326 123.844C50.8566 123.82 50.8746 123.796 50.8866 123.772C50.8986 123.748 50.9106 123.724 50.9226 123.7L51.9486 121.99H54.5766L53.3166 124.204C53.0766 124.672 52.8186 125.116 52.5426 125.536L55.5846 128.542H52.4886ZM46.9266 126.67C47.9106 126.67 48.7806 126.322 49.5366 125.626L46.4406 122.566C45.2766 123.082 44.6946 123.814 44.6946 124.762C44.6946 125.302 44.8986 125.758 45.3066 126.13C45.7146 126.49 46.2546 126.67 46.9266 126.67ZM61.2243 115.978C62.5443 115.978 63.7023 116.236 64.6983 116.752C65.7063 117.268 66.4803 118.006 67.0203 118.966C67.5723 119.914 67.8483 121.018 67.8483 122.278C67.8483 123.538 67.5723 124.642 67.0203 125.59C66.4803 126.526 65.7063 127.252 64.6983 127.768C63.7023 128.284 62.5443 128.542 61.2243 128.542H56.8323V115.978H61.2243ZM61.1343 126.4C62.4543 126.4 63.4743 126.04 64.1943 125.32C64.9143 124.6 65.2743 123.586 65.2743 122.278C65.2743 120.97 64.9143 119.95 64.1943 119.218C63.4743 118.474 62.4543 118.102 61.1343 118.102H59.3523V126.4H61.1343Z" fill="black"/>
<path d="M122.542 67.771H125.736" stroke="black" stroke-width="6.3886" stroke-linecap="round"/>
<path d="M138.514 67.771H141.708" stroke="black" stroke-width="6.3886" stroke-linecap="round"/>
<path d="M154.485 67.771H157.679" stroke="black" stroke-width="6.3886" stroke-linecap="round"/>
<path d="M182.435 66.3878C183.5 67.0025 183.5 68.5394 182.435 69.1541L172.852 74.6868C171.787 75.3016 170.456 74.5331 170.456 73.3037V62.2383C170.456 61.0088 171.787 60.2404 172.852 60.8551L182.435 66.3878Z" fill="black"/>
<defs>
<filter id="filter0_ii_613_7676" x="-0.554753" y="-6.34086" width="99.6515" height="111.224" filterUnits="userSpaceOnUse" color-interpolation-filters="sRGB">
<feFlood flood-opacity="0" result="BackgroundImageFix"/>
<feBlend mode="normal" in="SourceGraphic" in2="BackgroundImageFix" result="shape"/>
<feColorMatrix in="SourceAlpha" type="matrix" values="0 0 0 0 0 0 0 0 0 0 0 0 0 0 0 0 0 0 127 0" result="hardAlpha"/>
<feOffset dx="0.554753" dy="6.34086"/>
<feGaussianBlur stdDeviation="3.18254"/>
<feComposite in2="hardAlpha" operator="arithmetic" k2="-1" k3="1"/>
<feColorMatrix type="matrix" values="0 0 0 0 0.951822 0 0 0 0 0.951822 0 0 0 0 0.951822 0 0 0 1 0"/>
<feBlend mode="normal" in2="shape" result="effect1_innerShadow_613_7676"/>
<feColorMatrix in="SourceAlpha" type="matrix" values="0 0 0 0 0 0 0 0 0 0 0 0 0 0 0 0 0 0 127 0" result="hardAlpha"/>
<feOffset dx="-0.554753" dy="-6.34086"/>
<feGaussianBlur stdDeviation="3.18254"/>
<feComposite in2="hardAlpha" operator="arithmetic" k2="-1" k3="1"/>
<feColorMatrix type="matrix" values="0 0 0 0 0.724929 0 0 0 0 0.724929 0 0 0 0 0.724929 0 0 0 1 0"/>
<feBlend mode="normal" in2="effect1_innerShadow_613_7676" result="effect2_innerShadow_613_7676"/>
</filter>
<clipPath id="clip0_613_7676">
<rect width="73" height="73" fill="white" transform="translate(13 13)"/>
</clipPath>
</defs>
</svg>
