<svg width="184" height="136" viewBox="0 0 184 136" fill="none" xmlns="http://www.w3.org/2000/svg">
<g filter="url(#filter0_ii_613_7695)">
<rect width="98.542" height="98.542" rx="12.3177" fill="#D9D9D9"/>
</g>
<g clip-path="url(#clip0_613_7695)">
<path d="M73.9715 13.9125C74.2177 14.1393 74.4542 14.3727 74.6886 14.6117C74.7746 14.6975 74.8605 14.7833 74.9491 14.8716C75.1291 15.0519 75.3085 15.2329 75.4871 15.4145C75.7596 15.6911 76.0346 15.9649 76.3101 16.2386C76.4856 16.4149 76.661 16.5915 76.8362 16.7682C76.9585 16.8899 76.9585 16.8899 77.0832 17.014C77.8788 17.8285 78.2183 18.5911 78.2892 19.7289C78.2544 21.5155 76.8161 22.6142 75.6354 23.7868C75.5229 23.8992 75.4103 24.0115 75.2944 24.1272C74.9389 24.4819 74.5829 24.8361 74.2269 25.1903C73.9841 25.4324 73.7414 25.6745 73.4987 25.9166C72.9071 26.5066 72.3151 27.0962 71.7228 27.6855C71.8759 27.6858 71.8759 27.6858 72.032 27.6861C72.9949 27.6886 73.9577 27.6946 74.9205 27.7043C75.4155 27.7092 75.9105 27.7128 76.4055 27.7133C76.975 27.7141 77.5443 27.7205 78.1138 27.7272C78.291 27.7267 78.4682 27.7261 78.6508 27.7255C78.8163 27.7283 78.9818 27.7311 79.1523 27.734C79.2976 27.735 79.443 27.7359 79.5927 27.7369C80.1465 27.8632 80.3464 28.1068 80.7053 28.5409C80.7952 28.9693 80.7952 28.9693 80.7964 29.4548C80.7986 29.6393 80.8008 29.8239 80.803 30.014C80.8018 30.2175 80.8006 30.4209 80.7993 30.6244C80.8005 30.8394 80.802 31.0544 80.8038 31.2694C80.8078 31.8524 80.8075 32.4352 80.8063 33.0182C80.8059 33.6277 80.8095 34.2372 80.8126 34.8467C80.8179 36.0005 80.8197 37.1542 80.8201 38.308C80.8208 39.6218 80.8255 40.9355 80.8305 42.2492C80.8408 44.9512 80.846 47.6533 80.8478 50.3554C80.9817 50.2204 80.9817 50.2204 81.1182 50.0828C81.449 49.7496 81.7801 49.4167 82.1114 49.084C82.2548 48.9399 82.3981 48.7956 82.5412 48.6512C82.7469 48.4439 82.953 48.237 83.1592 48.0301C83.2831 47.9054 83.4071 47.7807 83.5348 47.6523C83.9321 47.2759 84.0556 47.2253 84.6083 47.1741C85.1252 47.2187 85.1252 47.2187 85.4382 47.4132C85.8429 48.0043 85.7736 48.5832 85.7669 49.2837C85.7677 49.4376 85.7685 49.5914 85.7693 49.75C85.7713 50.2674 85.7691 50.7848 85.767 51.3022C85.7676 51.6725 85.7683 52.0427 85.7694 52.4129C85.7713 53.3151 85.7703 54.2173 85.7681 55.1195C85.7657 56.1697 85.7662 57.2199 85.7667 58.2701C85.7675 60.1435 85.7655 62.0169 85.762 63.8903C85.7586 65.7092 85.7576 67.528 85.7591 69.3469C85.7607 71.3266 85.761 73.3063 85.7589 75.286C85.7587 75.497 85.7585 75.7079 85.7583 75.9189C85.7582 76.0227 85.7581 76.1266 85.758 76.2335C85.7573 76.966 85.7575 77.6985 85.7582 78.4309C85.7589 79.4162 85.7574 80.4014 85.7543 81.3866C85.7535 81.749 85.7534 82.1114 85.7542 82.4738C85.755 82.9669 85.7532 83.4599 85.7508 83.953C85.752 84.1703 85.7521 84.1703 85.7534 84.3919C85.7522 84.5235 85.751 84.6551 85.7497 84.7907C85.7495 84.9615 85.7495 84.9615 85.7493 85.1358C85.6813 85.5073 85.564 85.629 85.2678 85.8573C84.8677 85.9907 84.6263 86.018 84.2127 86.0186C84.0836 86.0192 83.9546 86.0197 83.8216 86.0203C83.6797 86.0202 83.5377 86.0201 83.3915 86.0199C83.1655 86.0206 83.1655 86.0206 82.9349 86.0212C82.4276 86.0225 81.9203 86.0227 81.4129 86.0229C81.0502 86.0235 80.6875 86.0243 80.3248 86.025C79.3376 86.0269 78.3505 86.0278 77.3633 86.0285C76.7471 86.0288 76.1309 86.0294 75.5147 86.0301C73.809 86.0318 72.1032 86.0333 70.3975 86.0338C70.2337 86.0338 70.2337 86.0338 70.0666 86.0339C69.9572 86.0339 69.8478 86.0339 69.735 86.034C69.5132 86.034 69.2915 86.0341 69.0697 86.0342C68.9597 86.0342 68.8497 86.0342 68.7363 86.0343C66.9533 86.0348 65.1702 86.0373 63.3871 86.0406C61.557 86.044 59.7269 86.0458 57.8967 86.046C56.869 86.0461 55.8412 86.0469 54.8135 86.0495C53.847 86.0519 52.8807 86.0522 51.9143 86.0509C51.5591 86.0508 51.204 86.0514 50.8488 86.0528C50.3649 86.0546 49.881 86.0538 49.3971 86.0523C49.2557 86.0535 49.1144 86.0546 48.9688 86.0558C48.2673 86.0507 47.7619 86.0436 47.1994 85.5722C46.967 85.1073 46.9902 84.8054 47.0568 84.289C47.2403 84.0278 47.2403 84.0278 47.486 83.7593C47.5769 83.6597 47.6678 83.5601 47.7615 83.4575C48.2477 82.9452 48.7428 82.443 49.2439 81.9453C49.3533 81.8362 49.4626 81.727 49.5753 81.6146C49.9207 81.27 50.2665 80.926 50.6124 80.5819C50.8483 80.3468 51.0841 80.1115 51.32 79.8763C51.8946 79.3032 52.4697 78.7305 53.0451 78.1581C52.7966 78.1574 52.7966 78.1574 52.543 78.1567C48.603 78.1454 44.6631 78.1327 40.7231 78.1182C40.2374 78.1164 39.7516 78.1146 39.2659 78.1129C39.1692 78.1125 39.0725 78.1122 38.9729 78.1118C37.4106 78.1061 35.8482 78.1015 34.2859 78.0972C32.6808 78.0927 31.0758 78.0872 29.4708 78.0807C28.5701 78.0771 27.6694 78.074 26.7686 78.0721C25.9197 78.0703 25.0708 78.0671 24.2219 78.063C23.9115 78.0617 23.601 78.0609 23.2905 78.0606C20.1827 78.0571 17.4179 77.9104 15.0291 75.6669C13.222 73.7923 12.6281 71.7239 12.6402 69.1715C12.6396 68.9733 12.6388 68.7751 12.6379 68.5769C12.6358 68.0361 12.6364 67.4955 12.6375 66.9547C12.6382 66.37 12.6364 65.7853 12.6349 65.2006C12.6325 64.0566 12.6323 62.9127 12.6331 61.7687C12.6337 60.8385 12.6335 59.9083 12.6327 58.9781C12.6326 58.8455 12.6325 58.7129 12.6324 58.5763C12.6322 58.3068 12.6319 58.0374 12.6317 57.768C12.6298 55.2438 12.6305 52.7196 12.6322 50.1953C12.6336 47.8885 12.6317 45.5817 12.6283 43.2748C12.6248 40.9033 12.6235 38.5318 12.6244 36.1603C12.6249 34.83 12.6246 33.4997 12.6221 32.1694C12.62 31.037 12.6199 29.9046 12.6224 28.7721C12.6236 28.1949 12.6239 27.6178 12.6217 27.0406C12.6198 26.5111 12.6205 25.9817 12.6232 25.4522C12.624 25.1723 12.622 24.8924 12.6199 24.6125C12.6391 22.2793 13.4766 20.2796 15.0798 18.5911C16.633 17.0805 18.6454 16.1698 20.8224 16.0832C21.3472 16.1025 21.6906 16.2271 22.1056 16.5644C22.3183 16.9896 22.2668 17.4236 22.2644 17.8897C22.2644 17.9968 22.2644 18.1039 22.2645 18.2143C22.2644 18.5692 22.2633 18.924 22.2621 19.2789C22.2619 19.5247 22.2617 19.7704 22.2615 20.0161C22.261 20.6635 22.2596 21.3109 22.258 21.9583C22.2566 22.6187 22.2559 23.2791 22.2552 23.9394C22.2537 25.2356 22.2512 26.5318 22.2482 27.828C27.3882 28.2269 32.5314 28.4943 37.6849 28.6312C37.8789 28.6364 38.0729 28.6416 38.2669 28.6469C50.9572 29.2386 50.9572 29.2386 61.8334 23.6136C62.8066 22.6854 63.6865 21.6833 64.5405 20.6457C64.6097 20.5618 64.679 20.478 64.7504 20.3916C66.2831 18.5283 67.7123 16.6022 68.9335 14.5176C69.3992 13.7475 69.7098 13.3989 70.5822 13.1425C70.694 13.1072 70.8057 13.0719 70.9208 13.0356C72.0638 12.9267 73.0642 13.1951 73.9715 13.9125ZM71.1692 15.4176C70.6224 15.776 70.1952 16.1919 69.7446 16.6624C69.66 16.7489 69.5755 16.8353 69.4884 16.9244C69.2817 17.1361 69.0763 17.3491 68.8713 17.5624C69.0586 17.9767 69.2592 18.2705 69.5814 18.5901C69.6671 18.6757 69.7527 18.7613 69.8409 18.8495C69.933 18.9401 70.0251 19.0307 70.1199 19.1241C70.2618 19.2653 70.2617 19.2653 70.4064 19.4093C70.7079 19.7092 71.0104 20.0082 71.3129 20.307C71.5178 20.5104 71.7225 20.7139 71.9272 20.9175C72.4287 21.4157 72.931 21.9131 73.4338 22.4101C74.0576 22.109 74.4701 21.7113 74.9576 21.2249C75.0845 21.1032 75.0845 21.1032 75.2141 20.979C75.5635 20.6319 75.8217 20.358 76.0119 19.8999C75.9766 18.8701 74.8627 18.088 74.1783 17.4064C73.951 17.1797 73.7258 16.9511 73.5006 16.7223C73.3555 16.5769 73.2104 16.4316 73.0651 16.2864C72.9341 16.1551 72.8032 16.0237 72.6683 15.8884C72.1598 15.4518 71.8264 15.1995 71.1692 15.4176ZM66.6156 19.7902C66.4579 19.9499 66.3008 20.1103 66.1445 20.2714C66.024 20.3938 66.024 20.3938 65.9011 20.5187C65.7024 20.7208 65.5045 20.9237 65.3068 21.1269C65.872 21.8042 66.4614 22.4437 67.0879 23.0645C67.1722 23.1485 67.2564 23.2325 67.3432 23.3191C67.6086 23.5838 67.8746 23.8479 68.1406 24.1121C68.3222 24.293 68.5037 24.4739 68.6853 24.6548C69.1271 25.0951 69.5694 25.5349 70.0119 25.9745C70.1724 25.8377 70.3328 25.7007 70.4931 25.5637C70.6271 25.4493 70.6271 25.4493 70.7638 25.3326C71.0199 25.1104 71.2633 24.8804 71.5001 24.6379C71.6206 24.5143 71.7412 24.3908 71.8654 24.2636C71.6786 23.8515 71.4787 23.5558 71.1598 23.2359C71.0751 23.1503 70.9904 23.0647 70.9031 22.9765C70.8119 22.8859 70.7207 22.7953 70.6268 22.7019C70.486 22.5607 70.486 22.5607 70.3423 22.4167C70.1442 22.2183 69.9457 22.0204 69.7469 21.8228C69.4417 21.5191 69.1381 21.2139 68.8345 20.9085C68.6419 20.7161 68.4492 20.5238 68.2564 20.3315C68.1652 20.2398 68.074 20.148 67.9801 20.0534C67.3379 19.3268 67.3379 19.3268 66.6156 19.7902ZM16.696 20.2497C15.3518 21.7101 14.9321 23.1306 14.9424 25.0762C14.9422 25.2436 14.942 25.4109 14.9417 25.5834C14.9413 26.0461 14.9422 26.5087 14.9436 26.9714C14.9449 27.471 14.9445 27.9707 14.9442 28.4703C14.9441 29.3354 14.945 30.2004 14.9466 31.0654C14.9489 32.3161 14.9496 33.5668 14.95 34.8175C14.9506 36.8468 14.9525 38.8761 14.9552 40.9054C14.9578 42.8764 14.9599 44.8473 14.9611 46.8183C14.9611 46.9399 14.9612 47.0614 14.9613 47.1866C14.9617 47.7964 14.962 48.4061 14.9624 49.0159C14.9653 54.0724 14.9704 59.1289 14.9767 64.1855C15.0547 64.1266 15.1327 64.0677 15.2131 64.007C15.3156 63.9298 15.4181 63.8526 15.5237 63.7731C15.6759 63.6583 15.6759 63.6583 15.8313 63.5411C16.7704 62.848 17.7703 62.4248 18.8798 62.0919C18.9848 62.0598 19.0897 62.0277 19.1978 61.9946C19.454 61.9163 19.7105 61.8389 19.967 61.7616C19.9677 61.6296 19.9678 61.6296 19.9685 61.4948C19.9745 60.5789 19.9844 59.663 19.9966 58.7472C20.0006 58.4053 20.0036 58.0634 20.0056 57.7215C20.0087 57.2302 20.0153 56.7391 20.0227 56.2479C20.0229 56.0184 20.0229 56.0184 20.0232 55.7843C20.026 55.6416 20.0288 55.4989 20.0317 55.3519C20.033 55.2265 20.0342 55.1011 20.0356 54.972C20.1345 54.5183 20.3181 54.3454 20.6799 54.0624C21.5257 53.9585 21.5257 53.9585 21.919 54.2269C22.186 54.6035 22.16 54.8842 22.161 55.3434C22.1623 55.519 22.1637 55.6945 22.1651 55.8754C22.1643 56.0671 22.1634 56.2589 22.1624 56.4506C22.1627 56.6471 22.1632 56.8437 22.1637 57.0403C22.1643 57.4521 22.1634 57.8639 22.1614 58.2757C22.159 58.8036 22.1604 59.3314 22.1629 59.8593C22.1645 60.2651 22.164 60.671 22.1629 61.0768C22.1626 61.2715 22.1629 61.4661 22.1639 61.6607C22.165 61.9327 22.1631 62.2047 22.161 62.4767C22.1607 62.6315 22.1603 62.7864 22.16 62.9458C22.1056 63.33 22.1056 63.33 21.9203 63.5906C21.5113 63.8726 21.0281 63.8828 20.5462 63.9449C18.8537 64.2068 17.4037 64.8691 16.2599 66.1816C15.175 67.7424 14.8175 69.1329 14.9767 71.0292C15.3663 72.6607 16.4414 73.9797 17.8027 74.9145C19.1615 75.7431 20.7253 75.7502 22.2687 75.7802C22.4088 75.7834 22.549 75.7865 22.6934 75.7897C23.1602 75.7999 23.627 75.8092 24.0938 75.8183C24.2578 75.8218 24.4219 75.8252 24.5909 75.8287C27.7294 75.8936 30.8682 75.9343 34.0072 75.9646C34.5207 75.9696 35.0343 75.9748 35.5478 75.98C35.65 75.981 35.7522 75.9821 35.8575 75.9832C37.5061 76.0004 39.1541 76.0332 40.8024 76.072C42.5022 76.1117 44.2016 76.1346 45.9018 76.1425C46.8538 76.1474 47.8041 76.16 48.7557 76.1909C53.375 76.457 53.375 76.457 57.3585 74.4799C58.1837 73.6835 58.9083 72.8075 59.5743 71.8753C59.8889 71.4569 59.8889 71.4569 60.3166 71.1718C60.7774 71.1228 61.0823 71.134 61.5107 71.3144C61.8045 71.676 61.8228 71.9682 61.8112 72.427C61.6736 73.0529 61.1965 73.4324 60.7477 73.8621C60.5891 74.0205 60.5891 74.0205 60.4274 74.1822C60.0782 74.5298 59.7252 74.8733 59.372 75.2169C59.1288 75.4576 58.8859 75.6986 58.6432 75.9398C58.0043 76.5735 57.3622 77.2038 56.7192 77.8333C55.9367 78.6007 55.158 79.3719 54.3789 80.1427C53.7731 80.7419 53.1667 81.3404 52.5585 81.9371C52.4473 82.0465 52.336 82.1558 52.2214 82.2685C52.0126 82.4738 51.8035 82.6787 51.5941 82.8834C51.5029 82.9731 51.4117 83.0628 51.3178 83.1552C51.2379 83.2335 51.158 83.3118 51.0757 83.3925C50.8903 83.5519 50.8903 83.5519 50.9064 83.7187C61.634 83.7187 72.3616 83.7187 83.4142 83.7187C83.4142 82.0719 83.4142 80.4251 83.4142 78.7284C82.7085 78.6814 82.0027 78.6343 81.2756 78.5858C81.0874 78.5388 80.8992 78.4917 80.7053 78.4433C80.6657 78.242 80.631 78.0398 80.5983 77.8373C80.5785 77.7248 80.5586 77.6124 80.5382 77.4965C80.5627 77.1601 80.5627 77.1601 80.7721 76.8393C81.2667 76.4973 81.7281 76.4943 82.3093 76.4828C82.6739 76.4711 83.0386 76.4593 83.4142 76.4472C83.4142 75.4121 83.4142 74.3769 83.4142 73.3105C82.6828 73.2749 82.6828 73.2749 81.9513 73.2423C81.4225 73.213 81.154 73.1819 80.7053 72.8827C80.5811 72.3238 80.5087 71.8604 80.7053 71.3144C81.254 71.1461 81.8115 71.1244 82.3806 71.0916C82.7217 71.071 83.0628 71.0504 83.4142 71.0292C83.4142 69.9941 83.4142 68.959 83.4142 67.8925C82.6359 67.8682 82.6359 67.8682 81.8574 67.85C81.0626 67.8144 81.0626 67.8144 80.6991 67.4898C80.4855 67.0041 80.5595 66.6827 80.7053 66.1816C81.2667 65.7358 81.7571 65.6887 82.4608 65.6558C82.7754 65.6411 83.0901 65.6264 83.4142 65.6112C83.4142 64.6232 83.4142 63.6351 83.4142 62.6171C82.7361 62.576 82.7361 62.576 82.0579 62.5361C81.5926 62.5065 81.1522 62.469 80.7053 62.3319C80.6657 62.1307 80.631 61.9285 80.5983 61.726C80.5785 61.6135 80.5586 61.501 80.5382 61.3851C80.5627 61.0487 80.5627 61.0487 81.133 60.4784C81.8858 60.4314 82.6386 60.3843 83.4142 60.3358C83.4142 57.3246 83.4142 54.3133 83.4142 51.2108C82.7865 51.7489 82.2033 52.2622 81.6263 52.8448C81.5534 52.9182 81.4804 52.9917 81.4053 53.0673C81.1641 53.3103 80.9234 53.5537 80.6827 53.7972C80.5086 53.9727 80.3345 54.1482 80.1604 54.3236C79.7869 54.6999 79.4137 55.0764 79.0406 55.453C78.4504 56.0486 77.8593 56.6431 77.2679 57.2375C77.1679 57.338 77.0679 57.4385 76.9649 57.5421C76.7606 57.7475 76.5563 57.9528 76.3519 58.1582C74.9763 59.541 73.6013 60.9243 72.2289 62.3103C71.3015 63.2469 70.3727 64.1819 69.442 65.1152C68.95 65.6087 68.4589 66.1029 67.9696 66.599C67.5098 67.0651 67.0481 67.5292 66.5849 67.9918C66.4153 68.1618 66.2465 68.3326 66.0785 68.5041C65.8489 68.7383 65.6168 68.9697 65.3838 69.2006C65.2546 69.3308 65.1254 69.461 64.9923 69.5951C64.5143 69.9473 64.1843 70.0083 63.5959 70.0312C63.1819 69.8351 63.0633 69.6965 62.8919 69.2737C62.8791 68.7248 63.0102 68.5033 63.3107 68.0351C63.7634 67.6262 64.255 67.273 64.7466 66.9126C65.0528 66.6813 65.3584 66.4495 65.6632 66.2165C65.7436 66.1551 65.824 66.0937 65.9068 66.0304C67.628 64.7087 69.2717 63.291 70.8941 61.8507C70.9837 61.7714 71.0733 61.692 71.1656 61.6103C75.7777 57.5089 79.0301 53.5888 79.4058 47.2367C79.5193 45.0099 79.4812 42.7968 79.3686 40.571C79.3622 40.4411 79.3558 40.3112 79.3492 40.1773C79.1802 36.8054 78.8738 33.4552 78.424 30.1093C75.4587 29.3157 71.6386 28.7534 68.8101 30.2985C66.8377 31.5322 65.1854 33.2353 63.5675 34.8884C63.4498 35.0085 63.3321 35.1285 63.2108 35.2522C61.7383 36.7604 60.3062 38.3042 58.888 39.8634C56.9653 41.9761 54.999 44.0482 53.0279 46.1158C52.3405 46.8386 51.6635 47.5696 50.9938 48.3088C48.6509 50.8878 46.7271 52.8299 43.2658 53.6518C42.4176 53.8706 41.6032 54.1831 40.7834 54.4901C40.7834 54.5372 40.7834 54.5842 40.7834 54.6327C40.8925 54.6331 41.0016 54.6334 41.114 54.6338C43.7663 54.6422 46.4186 54.6529 49.0709 54.6663C50.3535 54.6727 51.6361 54.6784 52.9188 54.6821C54.0365 54.6854 55.1542 54.6901 56.2719 54.6967C56.8639 54.7001 57.4559 54.7028 58.048 54.7037C58.6049 54.7045 59.1618 54.7074 59.7187 54.7118C59.9234 54.713 60.1281 54.7135 60.3328 54.7133C60.6117 54.7131 60.8906 54.7157 61.1696 54.7185C61.3258 54.7191 61.4821 54.7198 61.6431 54.7204C62.0275 54.7753 62.0275 54.7753 62.2922 54.9615C62.5635 55.3634 62.4971 55.7326 62.4553 56.2011C62.1701 56.6288 62.1701 56.6288 61.9006 56.7257C61.4022 56.8014 60.9022 56.792 60.3993 56.7914C60.2771 56.7918 60.1548 56.7923 60.0288 56.7927C59.6185 56.7939 59.2082 56.7942 58.7978 56.7944C58.5039 56.795 58.21 56.7957 57.9161 56.7965C57.1172 56.7984 56.3183 56.7993 55.5194 56.7999C55.0205 56.8004 54.5216 56.8009 54.0227 56.8016C52.4625 56.8035 50.9023 56.8049 49.342 56.8055C47.5397 56.8061 45.7373 56.8086 43.935 56.8127C42.5425 56.8158 41.15 56.8172 39.7575 56.8174C38.9254 56.8176 38.0934 56.8184 37.2613 56.821C36.479 56.8233 35.6967 56.8236 34.9144 56.8224C34.6271 56.8223 34.3397 56.8229 34.0524 56.8243C33.6606 56.8261 33.2688 56.8253 32.877 56.8238C32.7059 56.8255 32.7059 56.8255 32.5314 56.8273C31.8857 56.8215 31.4521 56.7575 30.9455 56.3437C30.7726 55.8465 30.7577 55.5986 30.9576 55.1102C31.2306 54.7753 31.2306 54.7753 31.6588 54.6813C31.9152 54.6779 31.9152 54.6779 32.1769 54.6745C32.3621 54.6704 32.5472 54.6662 32.738 54.662C32.9336 54.6611 33.1292 54.6602 33.3248 54.6595C33.522 54.6562 33.7193 54.6525 33.9165 54.6486C34.3995 54.6402 34.8823 54.635 35.3654 54.6327C35.3971 54.5423 35.4289 54.4518 35.4615 54.3587C35.7968 53.403 36.1323 52.4475 36.468 51.4921C36.5927 51.1372 36.7172 50.7823 36.8417 50.4273C36.9018 50.2561 36.9618 50.0849 37.0237 49.9084C37.0833 49.7385 37.1428 49.5686 37.2042 49.3935C37.3246 49.0518 37.446 48.7105 37.5685 48.3695C37.8295 47.6418 38.0847 46.9182 38.2939 46.1737C38.8911 44.1391 40.1655 42.9264 41.6834 41.4977C41.9241 41.2644 42.1644 41.0307 42.4044 40.7965C42.8398 40.3739 43.2764 39.9528 43.7175 39.5361C43.8051 39.4534 43.8926 39.3707 43.9828 39.2855C44.337 38.977 44.4962 38.9487 44.9805 38.9135C45.4885 38.9491 45.4885 38.9491 45.7647 39.1006C46.0211 39.5682 46.0025 39.8485 45.9162 40.3749C45.185 41.4352 44.1297 42.3204 43.2161 43.2265C43.0626 43.3792 42.9092 43.532 42.7558 43.6848C42.3839 44.0552 42.0115 44.4252 41.6388 44.7948C42.204 45.4722 42.7934 46.1117 43.42 46.7324C43.5042 46.8165 43.5884 46.9005 43.6752 46.9871C43.9407 47.2518 44.2066 47.5159 44.4726 47.7801C44.6542 47.9609 44.8358 48.1419 45.0173 48.3228C45.4591 48.7631 45.9014 49.2029 46.3439 49.6425C47.0135 49.0831 47.6479 48.5015 48.2631 47.883C48.3501 47.7961 48.4371 47.7092 48.5268 47.6197C48.8156 47.3311 49.104 47.042 49.3923 46.7528C49.6003 46.5448 49.8084 46.3368 50.0165 46.1288C50.5794 45.5659 51.1418 45.0026 51.7042 44.4393C52.2927 43.8499 52.8816 43.2609 53.4704 42.6719C54.5846 41.5572 55.6984 40.4423 56.8121 39.3271C58.0804 38.0573 59.3491 36.7878 60.6178 35.5184C63.2268 32.9079 65.8353 30.2968 68.4435 27.6855C68.3105 27.5287 68.1773 27.3721 68.044 27.2156C67.9698 27.1284 67.8956 27.0412 67.8192 26.9513C67.4518 26.5318 67.0584 26.1402 66.6624 25.7478C66.5782 25.6638 66.494 25.5798 66.4072 25.4932C66.1417 25.2285 65.8758 24.9644 65.6098 24.7002C65.4282 24.5193 65.2466 24.3384 65.0651 24.1575C64.6233 23.7172 64.181 23.2774 63.7385 22.8378C62.8993 23.5338 62.1304 24.2848 61.3621 25.0577C61.2262 25.1939 61.0902 25.33 60.9543 25.4661C60.6634 25.7574 60.3728 26.0489 60.0823 26.3406C59.6232 26.8017 59.1635 27.2622 58.7037 27.7227C57.729 28.699 56.7549 29.6759 55.7808 30.6529C54.7266 31.7102 53.6723 32.7674 52.6173 33.824C52.16 34.282 51.7031 34.7403 51.2465 35.1989C50.9631 35.4833 50.6795 35.7673 50.3959 36.0513C50.2011 36.2465 50.0068 36.4419 49.8124 36.6374C49.6971 36.7528 49.5818 36.8681 49.463 36.9869C49.3625 37.0877 49.2621 37.1884 49.1586 37.2922C48.7928 37.6328 48.648 37.6643 48.1351 37.7016C47.6271 37.6659 47.6271 37.6659 47.3509 37.5144C47.0945 37.0469 47.1131 36.7665 47.1994 36.2401C47.3857 35.9786 47.3857 35.9786 47.6316 35.7088C47.7224 35.6091 47.8131 35.5094 47.9067 35.4067C48.3806 34.9061 48.865 34.4173 49.3553 33.9327C49.5146 33.7742 49.5146 33.7742 49.6771 33.6126C50.0123 33.2791 50.3479 32.9462 50.6837 32.6133C51.1294 32.1713 51.5747 31.7289 52.0198 31.2861C52.1741 31.1335 52.1741 31.1335 52.3316 30.9779C52.4254 30.8845 52.5193 30.7911 52.6159 30.6949C52.699 30.6126 52.7822 30.5302 52.8678 30.4454C53.0612 30.2781 53.0612 30.2781 53.0451 30.1093C42.8821 30.1093 32.7192 30.1093 22.2482 30.1093C22.2183 37.0346 22.2183 37.0346 22.1929 43.9599C22.1858 45.2974 22.1858 45.2974 22.1819 45.923C22.1794 46.3611 22.178 46.7993 22.1773 47.2375C22.1765 47.7959 22.1736 48.3542 22.1692 48.9126C22.1679 49.1179 22.1674 49.3231 22.1677 49.5284C22.1679 49.805 22.1653 50.0817 22.1625 50.3583C22.1615 50.5911 22.1615 50.5911 22.1605 50.8287C22.1056 51.2108 22.1056 51.2108 21.9094 51.4713C21.4742 51.7858 21.0837 51.7996 20.564 51.7188C20.4611 51.6923 20.3582 51.6659 20.2521 51.6386C20.1418 51.2465 20.0913 50.8973 20.0898 50.4904C20.089 50.376 20.0882 50.2617 20.0874 50.1438C20.0873 50.019 20.0871 49.8942 20.087 49.7656C20.0859 49.5657 20.0859 49.5657 20.0849 49.3618C20.0827 48.9144 20.0815 48.4669 20.0803 48.0194C20.0789 47.6991 20.0775 47.3787 20.076 47.0583C20.0721 46.1876 20.0691 45.3169 20.0663 44.4462C20.0632 43.5366 20.0593 42.627 20.0555 41.7174C20.0491 40.1904 20.0433 38.6634 20.0379 37.1364C20.0323 35.5636 20.0264 33.9908 20.0201 32.418C20.0197 32.321 20.0193 32.2241 20.0189 32.1242C20.0169 31.6378 20.015 31.1514 20.013 30.6651C19.9968 26.6302 19.9815 22.5953 19.967 18.5605C18.8068 18.5605 17.5042 19.4805 16.696 20.2497ZM40.3556 47.0761C40.2079 47.4645 40.0628 47.8536 39.919 48.2434C39.877 48.3531 39.835 48.4627 39.7917 48.5757C39.477 49.3888 39.477 49.3888 39.6428 50.2128C39.9076 50.5394 40.2013 50.825 40.5071 51.1128C40.7865 51.3804 41.0659 51.648 41.3537 51.9237C42.2947 51.5944 43.2357 51.265 44.2053 50.9257C43.9274 50.37 43.6172 50.011 43.1849 49.5823C43.1132 49.5104 43.0415 49.4384 42.9676 49.3642C42.8165 49.2129 42.665 49.0619 42.5132 48.9113C42.2802 48.6799 42.0489 48.447 41.8176 48.2139C41.6705 48.067 41.5233 47.9201 41.376 47.7734C41.3066 47.7034 41.2372 47.6335 41.1658 47.5614C40.8246 47.1839 40.8246 47.1839 40.3556 47.0761Z" fill="#8100DD"/>
<path d="M77.5684 64.4702C77.966 64.8278 77.9969 65.0487 78.0514 65.587C78.0543 65.8117 78.0549 66.0364 78.0537 66.2611C78.0547 66.384 78.0557 66.5069 78.0567 66.6336C78.0593 67.0397 78.0587 67.4458 78.0579 67.852C78.0586 68.1343 78.0593 68.4166 78.0602 68.6989C78.0615 69.2905 78.0611 69.8821 78.0597 70.4737C78.0581 71.2322 78.0609 71.9907 78.0651 72.7492C78.0677 73.3321 78.0677 73.9151 78.0669 74.498C78.0668 74.7777 78.0677 75.0574 78.0695 75.3371C78.0716 75.7279 78.0701 76.1186 78.0676 76.5094C78.069 76.6251 78.0704 76.7408 78.0718 76.8601C78.0655 77.3379 78.0302 77.6727 77.7836 78.0867C77.2663 78.3955 76.7775 78.381 76.1921 78.3763C76.0678 78.3776 75.9435 78.3788 75.8154 78.3801C75.4046 78.3833 74.9939 78.3823 74.5831 78.381C74.2976 78.3818 74.0121 78.3827 73.7266 78.3837C73.1283 78.3852 72.53 78.3845 71.9317 78.3825C71.1645 78.38 70.3975 78.3834 69.6303 78.3884C69.0407 78.3915 68.4512 78.3913 67.8617 78.3901C67.5788 78.39 67.2959 78.391 67.0131 78.3931C66.6177 78.3956 66.2227 78.3935 65.8274 78.3903C65.6518 78.3928 65.6518 78.3928 65.4727 78.3953C64.9131 78.386 64.6513 78.3534 64.2332 77.9677C64.0234 77.5874 64.0234 77.5874 63.9967 77.1151C64.3578 75.9937 65.443 75.1485 66.263 74.329C66.3679 74.2236 66.4729 74.1183 66.581 74.0097C66.9242 73.6651 67.268 73.321 67.6118 72.977C67.852 72.7364 68.0922 72.4957 68.3323 72.2551C68.8338 71.7527 69.3356 71.2506 69.8376 70.7487C70.4813 70.1051 71.124 69.4605 71.7664 68.8156C72.2611 68.3193 72.7565 67.8236 73.2521 67.328C73.4895 67.0905 73.7266 66.8528 73.9634 66.6148C74.2937 66.2831 74.6249 65.9523 74.9564 65.6218C75.0541 65.5233 75.1518 65.4247 75.2525 65.3233C75.343 65.2333 75.4335 65.1434 75.5268 65.0508C75.6439 64.9335 75.6439 64.9335 75.7634 64.8139C76.3685 64.2996 76.7961 64.2736 77.5684 64.4702ZM75.075 68.7978C74.9698 68.9034 74.9698 68.9034 74.8624 69.0112C74.7887 69.0847 74.715 69.1582 74.639 69.2339C74.3941 69.4782 74.1497 69.723 73.9053 69.9678C73.7361 70.1369 73.5669 70.306 73.3977 70.4751C73.0425 70.83 72.6877 71.1852 72.333 71.5405C71.8771 71.9972 71.4207 72.4531 70.964 72.9089C70.6143 73.2581 70.265 73.6077 69.9157 73.9573C69.7475 74.1256 69.5792 74.2938 69.4107 74.4619C69.1758 74.6965 68.9414 74.9315 68.707 75.1666C68.6366 75.2367 68.5662 75.3069 68.4936 75.3792C68.1597 75.6517 68.1597 75.6517 68.0156 76.019C70.5564 76.019 73.0971 76.019 75.7148 76.019C75.7148 73.4783 75.7148 70.9375 75.7148 68.3198C75.4291 68.3198 75.2659 68.608 75.075 68.7978Z" fill="#8100DD"/>
</g>
<path d="M23.4401 115.978C24.7601 115.978 25.9181 116.236 26.9141 116.752C27.9221 117.268 28.6961 118.006 29.2361 118.966C29.7881 119.914 30.0641 121.018 30.0641 122.278C30.0641 123.538 29.7881 124.642 29.2361 125.59C28.6961 126.526 27.9221 127.252 26.9141 127.768C25.9181 128.284 24.7601 128.542 23.4401 128.542H19.0481V115.978H23.4401ZM23.3501 126.4C24.6701 126.4 25.6901 126.04 26.4101 125.32C27.1301 124.6 27.4901 123.586 27.4901 122.278C27.4901 120.97 27.1301 119.95 26.4101 119.218C25.6901 118.474 24.6701 118.102 23.3501 118.102H21.5681V126.4H23.3501ZM41.2205 123.34C41.2205 123.7 41.1965 124.024 41.1485 124.312H33.8585C33.9185 125.032 34.1705 125.596 34.6145 126.004C35.0585 126.412 35.6045 126.616 36.2525 126.616C37.1885 126.616 37.8545 126.214 38.2505 125.41H40.9685C40.6805 126.37 40.1285 127.162 39.3125 127.786C38.4965 128.398 37.4945 128.704 36.3065 128.704C35.3465 128.704 34.4825 128.494 33.7145 128.074C32.9585 127.642 32.3645 127.036 31.9325 126.256C31.5125 125.476 31.3025 124.576 31.3025 123.556C31.3025 122.524 31.5125 121.618 31.9325 120.838C32.3525 120.058 32.9405 119.458 33.6965 119.038C34.4525 118.618 35.3225 118.408 36.3065 118.408C37.2545 118.408 38.1005 118.612 38.8445 119.02C39.6005 119.428 40.1825 120.01 40.5905 120.766C41.0105 121.51 41.2205 122.368 41.2205 123.34ZM38.6105 122.62C38.5985 121.972 38.3645 121.456 37.9085 121.072C37.4525 120.676 36.8945 120.478 36.2345 120.478C35.6105 120.478 35.0825 120.67 34.6505 121.054C34.2305 121.426 33.9725 121.948 33.8765 122.62H38.6105ZM46.8759 128.704C46.0599 128.704 45.3279 128.56 44.6799 128.272C44.0319 127.972 43.5159 127.57 43.1319 127.066C42.7599 126.562 42.5559 126.004 42.5199 125.392H45.0579C45.1059 125.776 45.2919 126.094 45.6159 126.346C45.9519 126.598 46.3659 126.724 46.8579 126.724C47.3379 126.724 47.7099 126.628 47.9739 126.436C48.2499 126.244 48.3879 125.998 48.3879 125.698C48.3879 125.374 48.2199 125.134 47.8839 124.978C47.5599 124.81 47.0379 124.63 46.3179 124.438C45.5739 124.258 44.9619 124.072 44.4819 123.88C44.0139 123.688 43.6059 123.394 43.2579 122.998C42.9219 122.602 42.7539 122.068 42.7539 121.396C42.7539 120.844 42.9099 120.34 43.2219 119.884C43.5459 119.428 44.0019 119.068 44.5899 118.804C45.1899 118.54 45.8919 118.408 46.6959 118.408C47.8839 118.408 48.8319 118.708 49.5399 119.308C50.2479 119.896 50.6379 120.694 50.7099 121.702H48.2979C48.2619 121.306 48.0939 120.994 47.7939 120.766C47.5059 120.526 47.1159 120.406 46.6239 120.406C46.1679 120.406 45.8139 120.49 45.5619 120.658C45.3219 120.826 45.2019 121.06 45.2019 121.36C45.2019 121.696 45.3699 121.954 45.7059 122.134C46.0419 122.302 46.5639 122.476 47.2719 122.656C47.9919 122.836 48.5859 123.022 49.0539 123.214C49.5219 123.406 49.9239 123.706 50.2599 124.114C50.6079 124.51 50.7879 125.038 50.7999 125.698C50.7999 126.274 50.6379 126.79 50.3139 127.246C50.0019 127.702 49.5459 128.062 48.9459 128.326C48.3579 128.578 47.6679 128.704 46.8759 128.704ZM54.1465 117.382C53.7025 117.382 53.3305 117.244 53.0305 116.968C52.7425 116.68 52.5985 116.326 52.5985 115.906C52.5985 115.486 52.7425 115.138 53.0305 114.862C53.3305 114.574 53.7025 114.43 54.1465 114.43C54.5905 114.43 54.9565 114.574 55.2445 114.862C55.5445 115.138 55.6945 115.486 55.6945 115.906C55.6945 116.326 55.5445 116.68 55.2445 116.968C54.9565 117.244 54.5905 117.382 54.1465 117.382ZM55.3885 118.57V128.542H52.8685V118.57H55.3885ZM61.7842 118.408C62.5282 118.408 63.1822 118.558 63.7462 118.858C64.3102 119.146 64.7542 119.524 65.0782 119.992V118.57H67.6162V128.614C67.6162 129.538 67.4302 130.36 67.0582 131.08C66.6862 131.812 66.1282 132.388 65.3842 132.808C64.6402 133.24 63.7402 133.456 62.6842 133.456C61.2682 133.456 60.1042 133.126 59.1922 132.466C58.2922 131.806 57.7822 130.906 57.6622 129.766H60.1642C60.2962 130.222 60.5782 130.582 61.0102 130.846C61.4542 131.122 61.9882 131.26 62.6122 131.26C63.3442 131.26 63.9382 131.038 64.3942 130.594C64.8502 130.162 65.0782 129.502 65.0782 128.614V127.066C64.7542 127.534 64.3042 127.924 63.7282 128.236C63.1642 128.548 62.5162 128.704 61.7842 128.704C60.9442 128.704 60.1762 128.488 59.4802 128.056C58.7842 127.624 58.2322 127.018 57.8242 126.238C57.4282 125.446 57.2302 124.54 57.2302 123.52C57.2302 122.512 57.4282 121.618 57.8242 120.838C58.2322 120.058 58.7782 119.458 59.4622 119.038C60.1582 118.618 60.9322 118.408 61.7842 118.408ZM65.0782 123.556C65.0782 122.944 64.9582 122.422 64.7182 121.99C64.4782 121.546 64.1542 121.21 63.7462 120.982C63.3382 120.742 62.9002 120.622 62.4322 120.622C61.9642 120.622 61.5322 120.736 61.1362 120.964C60.7402 121.192 60.4162 121.528 60.1642 121.972C59.9242 122.404 59.8042 122.92 59.8042 123.52C59.8042 124.12 59.9242 124.648 60.1642 125.104C60.4162 125.548 60.7402 125.89 61.1362 126.13C61.5442 126.37 61.9762 126.49 62.4322 126.49C62.9002 126.49 63.3382 126.376 63.7462 126.148C64.1542 125.908 64.4782 125.572 64.7182 125.14C64.9582 124.696 65.0782 124.168 65.0782 123.556ZM75.6034 118.426C76.7914 118.426 77.7514 118.804 78.4834 119.56C79.2154 120.304 79.5814 121.348 79.5814 122.692V128.542H77.0614V123.034C77.0614 122.242 76.8634 121.636 76.4674 121.216C76.0714 120.784 75.5314 120.568 74.8474 120.568C74.1514 120.568 73.5994 120.784 73.1914 121.216C72.7954 121.636 72.5974 122.242 72.5974 123.034V128.542H70.0774V118.57H72.5974V119.812C72.9334 119.38 73.3594 119.044 73.8754 118.804C74.4034 118.552 74.9794 118.426 75.6034 118.426Z" fill="black"/>
<path d="M122.542 67.771H125.736" stroke="black" stroke-width="6.3886" stroke-linecap="round"/>
<path d="M138.514 67.771H141.708" stroke="black" stroke-width="6.3886" stroke-linecap="round"/>
<path d="M154.485 67.771H157.679" stroke="black" stroke-width="6.3886" stroke-linecap="round"/>
<path d="M182.435 66.3878C183.5 67.0025 183.5 68.5394 182.435 69.1541L172.852 74.6868C171.787 75.3016 170.456 74.5331 170.456 73.3037V62.2383C170.456 61.0088 171.787 60.2404 172.852 60.8551L182.435 66.3878Z" fill="black"/>
<defs>
<filter id="filter0_ii_613_7695" x="-0.554753" y="-6.34086" width="99.6515" height="111.224" filterUnits="userSpaceOnUse" color-interpolation-filters="sRGB">
<feFlood flood-opacity="0" result="BackgroundImageFix"/>
<feBlend mode="normal" in="SourceGraphic" in2="BackgroundImageFix" result="shape"/>
<feColorMatrix in="SourceAlpha" type="matrix" values="0 0 0 0 0 0 0 0 0 0 0 0 0 0 0 0 0 0 127 0" result="hardAlpha"/>
<feOffset dx="0.554753" dy="6.34086"/>
<feGaussianBlur stdDeviation="3.18254"/>
<feComposite in2="hardAlpha" operator="arithmetic" k2="-1" k3="1"/>
<feColorMatrix type="matrix" values="0 0 0 0 0.951822 0 0 0 0 0.951822 0 0 0 0 0.951822 0 0 0 1 0"/>
<feBlend mode="normal" in2="shape" result="effect1_innerShadow_613_7695"/>
<feColorMatrix in="SourceAlpha" type="matrix" values="0 0 0 0 0 0 0 0 0 0 0 0 0 0 0 0 0 0 127 0" result="hardAlpha"/>
<feOffset dx="-0.554753" dy="-6.34086"/>
<feGaussianBlur stdDeviation="3.18254"/>
<feComposite in2="hardAlpha" operator="arithmetic" k2="-1" k3="1"/>
<feColorMatrix type="matrix" values="0 0 0 0 0.724929 0 0 0 0 0.724929 0 0 0 0 0.724929 0 0 0 1 0"/>
<feBlend mode="normal" in2="effect1_innerShadow_613_7695" result="effect2_innerShadow_613_7695"/>
</filter>
<clipPath id="clip0_613_7695">
<rect width="73" height="73" fill="white" transform="translate(12.6951 13)"/>
</clipPath>
</defs>
</svg>
