<svg width="195" height="136" viewBox="0 0 195 136" fill="none" xmlns="http://www.w3.org/2000/svg">
<g filter="url(#filter0_ii_613_7714)">
<rect x="5.729" width="98.542" height="98.542" rx="12.3177" fill="#D9D9D9"/>
</g>
<path d="M44.5661 16.2564C44.6765 16.2559 44.787 16.2555 44.9008 16.255C45.1342 16.2542 45.3677 16.2539 45.6011 16.2539C45.9579 16.2536 46.3146 16.251 46.6714 16.2483C46.8983 16.2479 47.1253 16.2476 47.3522 16.2475C47.4587 16.2465 47.5653 16.2454 47.675 16.2444C48.6253 16.2486 48.6253 16.2486 49.0623 16.5655C49.2864 17.0201 49.2172 17.5107 49.2117 18.0091C49.211 18.1166 49.2104 18.2241 49.2097 18.3349C49.2081 18.6006 49.2056 18.8663 49.2029 19.1319C49.3682 19.1554 49.5335 19.179 49.7039 19.2032C51.3007 19.5658 52.7878 20.6026 53.9841 21.6983C54.0905 21.793 54.1969 21.8876 54.3066 21.9851C56.2945 23.8619 57.3638 26.4262 57.781 29.1124C57.781 29.2535 57.781 29.3947 57.781 29.5401C57.9347 29.5548 58.0884 29.5695 58.2468 29.5847C58.7654 29.6827 58.7654 29.6827 59.0049 29.839C59.2866 30.2583 59.2445 30.6281 59.2482 31.1302C59.249 31.2295 59.2497 31.3288 59.2505 31.4311C59.2514 31.641 59.2512 31.8508 59.25 32.0607C59.2488 32.3812 59.2528 32.7014 59.2573 33.0219C59.2575 33.226 59.2574 33.4301 59.257 33.6342C59.2573 33.8197 59.2575 34.0051 59.2578 34.1961C59.1873 34.6729 59.1873 34.6729 58.9339 35.0195C58.486 35.3436 58.0623 35.3052 57.5349 35.2789C57.4368 35.2763 57.3388 35.2737 57.2377 35.2711C56.9969 35.2644 56.7561 35.2542 56.5154 35.2432C56.5118 35.3987 56.5081 35.5542 56.5044 35.7144C56.3834 39.3903 55.2985 42.7762 52.8372 45.5484C52.5368 45.8329 52.2129 46.0566 51.8748 46.293C51.5531 46.5258 51.5531 46.5258 51.3123 46.7921C51.2712 47.2994 51.2917 47.4779 51.4529 47.9327C51.4859 48.0413 51.5189 48.1499 51.5529 48.2618C51.6836 48.6417 51.845 48.9952 52.0154 49.3585C52.071 49.504 52.1267 49.6496 52.184 49.7996C52.5074 50.467 52.7933 50.9247 53.4771 51.2098C54.1842 51.4247 54.9026 51.5708 55.6255 51.7199C56.4635 51.897 57.2106 52.1822 57.9919 52.5308C59.0515 52.9969 59.9917 53.2143 61.1434 53.2866C61.5779 53.3507 61.5779 53.3507 61.841 53.5439C62.2046 54.081 62.1549 54.602 62.1492 55.2309C62.1479 55.4123 62.1466 55.5937 62.1453 55.7806C62.1429 55.9893 62.1429 55.9893 62.1404 56.2022C62.5753 56.3302 62.9536 56.3889 63.406 56.3448C63.6534 56.1481 63.6534 56.1481 63.8537 55.8636C64.2375 55.3857 64.6351 54.943 65.0671 54.5091C65.1864 54.3893 65.3057 54.2694 65.4286 54.146C65.674 53.9009 65.9193 53.6559 66.1647 53.4108C66.6917 52.8813 67.2117 52.3538 67.6945 51.7823C68.4028 50.9445 69.1955 50.1886 69.9739 49.4186C70.2122 49.1801 70.4478 48.9386 70.6801 48.694C70.9998 48.3604 70.9998 48.3604 71.2953 48.1032C71.5913 47.8076 71.7262 47.6265 71.8435 47.2198C71.7563 46.3728 71.5151 45.5879 71.2634 44.7782C71.1662 44.4492 71.0704 44.1199 70.9756 43.7902C70.9163 43.5859 70.8553 43.3821 70.7925 43.1789C70.4683 42.1009 70.4683 42.1009 70.5779 41.5167C70.8622 41.093 71.2073 40.7394 71.5623 40.3761C71.7156 40.2154 71.7156 40.2154 71.8721 40.0515C72.2153 39.6951 72.562 39.3427 72.9097 38.9909C73.0356 38.8631 73.1616 38.7353 73.2913 38.6037C73.5555 38.3357 73.8198 38.0679 74.0844 37.8003C74.4236 37.4572 74.7622 37.1134 75.1006 36.7695C75.4246 36.4403 75.7492 36.1116 76.0738 35.7829C76.1954 35.6594 76.3169 35.5358 76.4422 35.4085C76.5544 35.2952 76.6667 35.1818 76.7823 35.0651C76.8811 34.965 76.98 34.8649 77.0818 34.7617C77.4293 34.435 77.5683 34.3901 78.051 34.3626C78.6206 34.389 79.1336 34.496 79.6801 34.6484C79.78 34.6756 79.8799 34.7027 79.9829 34.7306C80.1927 34.788 80.4024 34.846 80.6118 34.9047C80.9309 34.9936 81.2508 35.0793 81.5708 35.1647C81.7756 35.2211 81.9803 35.2778 82.1849 35.3346C82.2797 35.3597 82.3745 35.3848 82.4722 35.4107C83.0705 35.5818 83.4938 35.7971 83.9373 36.2413C84.0427 36.7047 84.0427 36.7047 83.9373 37.2393C83.348 38.0733 82.5683 38.7682 81.8317 39.4654C81.6219 39.6687 81.4124 39.8723 81.203 40.0761C80.8774 40.393 80.5508 40.7082 80.2197 41.0191C79.8972 41.3227 79.581 41.6319 79.2653 41.9427C79.1654 42.034 79.0656 42.1252 78.9627 42.2192C78.6834 42.5005 78.4838 42.7253 78.3123 43.085C78.3106 43.6404 78.4377 44.1242 78.5935 44.6534C78.6478 44.8996 78.7007 45.1461 78.7517 45.393C78.8126 45.6621 78.8126 45.6621 78.8748 45.9366C79.0836 45.9631 79.0836 45.9631 79.2966 45.9901C79.6867 46.0453 80.0589 46.1273 80.4392 46.2307C80.9061 46.3452 81.2174 46.4176 81.6873 46.3643C81.9923 46.157 81.9923 46.157 82.2661 45.8562C82.3749 45.7453 82.4837 45.6344 82.5959 45.5202C82.7113 45.399 82.8268 45.2778 82.9457 45.153C83.1258 44.9684 83.1258 44.9684 83.3096 44.78C83.6934 44.386 84.0746 43.9896 84.4558 43.593C84.839 43.1974 85.2226 42.8023 85.6066 42.4075C85.8455 42.1615 86.0838 41.9149 86.3216 41.6677C86.4829 41.5008 86.4829 41.5008 86.6474 41.3304C86.7421 41.2319 86.8368 41.1335 86.9343 41.032C87.255 40.7236 87.4127 40.6656 87.8572 40.6167C88.2966 40.6612 88.2966 40.6612 88.5846 40.8842C88.9256 41.3156 89.0553 41.7462 89.1909 42.2713C89.2319 42.4222 89.2319 42.4222 89.2736 42.5761C89.3308 42.7886 89.387 43.0013 89.4423 43.2143C89.5264 43.5367 89.6141 43.8579 89.7023 44.1792C90.3209 46.4728 90.3209 46.4728 90.1248 47.2198C89.9461 47.4767 89.9461 47.4767 89.7087 47.7407C89.6192 47.8403 89.5297 47.9398 89.4375 48.0424C88.9083 48.6088 88.3684 49.1634 87.8237 49.7144C87.7009 49.839 87.5781 49.9636 87.4516 50.092C87.194 50.3533 86.9362 50.6144 86.6783 50.8753C86.4139 51.1429 86.1496 51.4106 85.8858 51.6788C85.5038 52.067 85.1213 52.4547 84.7387 52.8422C84.6202 52.9626 84.5017 53.083 84.3796 53.2071C84.2702 53.3176 84.1608 53.4281 84.048 53.5419C83.9517 53.6395 83.8554 53.7371 83.7561 53.8376C83.3525 54.2164 83.0282 54.2543 82.4834 54.2474C81.5314 54.1424 80.6024 53.8113 79.6841 53.5421C79.4038 53.4605 79.1231 53.3807 78.8423 53.3011C78.5935 53.2283 78.5935 53.2283 78.3396 53.154C77.8701 53.0615 77.64 53.0701 77.1873 53.2081C76.8831 53.4345 76.8831 53.4345 76.604 53.7347C76.4942 53.846 76.3845 53.9573 76.2714 54.072C76.1551 54.1929 76.0387 54.3138 75.9189 54.4384C75.7981 54.5616 75.6774 54.6848 75.553 54.8118C75.1677 55.2056 74.7844 55.6014 74.4011 55.9973C74.1402 56.2646 73.8792 56.5319 73.6181 56.799C72.9782 57.4541 72.3399 58.1107 71.7029 58.7686C71.7872 58.8679 71.7872 58.8679 71.8732 58.9691C71.9852 59.1012 71.9852 59.1012 72.0995 59.2359C72.1731 59.3226 72.2467 59.4094 72.3226 59.4988C73.1931 60.5397 73.1931 60.5397 73.3552 61.1835C73.2159 61.7602 72.9218 62.0624 72.5219 62.4857C72.2718 62.7539 72.0565 63.0321 71.8435 63.3311C71.9182 63.476 71.9929 63.6208 72.0698 63.77C73.531 66.6423 73.531 66.6423 73.531 67.7511C73.665 67.7461 73.7989 67.7411 73.9369 67.736C74.1133 67.7322 74.2897 67.7283 74.4714 67.7243C74.646 67.7194 74.8206 67.7144 75.0004 67.7093C75.5427 67.7546 75.7917 67.8205 76.2029 68.1788C76.5283 68.8611 76.5491 69.5722 76.5808 70.3175C76.5863 70.4364 76.5918 70.5554 76.5975 70.6779C76.7066 73.489 76.7066 73.489 76.2029 74.7374C75.6697 75.0978 75.2454 75.0545 74.6296 75.0404C74.5242 75.0391 74.4188 75.0378 74.3102 75.0365C74.0505 75.0331 73.7907 75.028 73.531 75.0225C73.5158 75.1642 73.5005 75.3059 73.4849 75.4519C73.4007 76.0458 73.2171 76.577 73.0037 77.1345C72.9479 77.2829 72.9479 77.2829 72.891 77.4344C72.589 78.2238 72.2423 78.9833 71.8435 79.7276C71.9349 79.807 72.0262 79.8864 72.1204 79.9682C73.0552 80.8342 73.0552 80.8342 73.208 81.335C73.2175 81.7646 73.1624 82.0753 72.9158 82.4277C72.4464 82.7388 72.136 82.7397 71.5758 82.7401C71.3977 82.7406 71.2197 82.741 71.0363 82.7415C70.8369 82.7413 70.6374 82.7411 70.438 82.7408C70.2276 82.7411 70.0172 82.7414 69.8068 82.7418C69.2265 82.7427 68.6462 82.7427 68.066 82.7425C67.4409 82.7425 66.8159 82.7432 66.1909 82.7439C64.9656 82.7451 63.7403 82.7455 62.515 82.7456C61.5193 82.7456 60.5237 82.7459 59.5281 82.7464C56.7078 82.7476 53.8875 82.7483 51.0672 82.7482C50.9151 82.7482 50.7629 82.7482 50.6061 82.7482C50.4538 82.7482 50.3014 82.7482 50.1444 82.7482C47.6746 82.7481 45.2047 82.7495 42.7348 82.7515C40.2012 82.7535 37.6676 82.7545 35.1339 82.7544C33.7105 82.7543 32.2871 82.7547 30.8637 82.7563C29.6518 82.7576 28.44 82.7579 27.2282 82.7569C26.6095 82.7564 25.9908 82.7564 25.3722 82.7577C24.8063 82.7588 24.2404 82.7586 23.6745 82.7573C23.4693 82.7571 23.2641 82.7574 23.059 82.7582C22.7809 82.7592 22.5028 82.7583 22.2248 82.7572C21.9927 82.7573 21.9927 82.7573 21.756 82.7573C21.3585 82.7217 21.1274 82.6584 20.7966 82.4366C20.5791 81.9954 20.634 81.5293 20.6333 81.045C20.6326 80.9307 20.632 80.8163 20.6312 80.6985C20.6292 80.3183 20.6282 79.938 20.6274 79.5577C20.6266 79.2922 20.6258 79.0267 20.625 78.7612C20.6235 78.2026 20.6227 77.6439 20.6222 77.0852C20.6215 76.3758 20.6181 75.6664 20.6141 74.957C20.6114 74.4071 20.6107 73.8573 20.6105 73.3074C20.6101 73.0464 20.609 72.7853 20.6071 72.5243C20.5927 70.358 20.8119 68.2998 21.4382 66.2183C21.4734 66.1015 21.5085 65.9847 21.5447 65.8643C23.3028 60.3009 27.2666 55.8694 32.3317 53.1897C34.1217 52.2757 36.0172 51.6458 37.9968 51.3278C38.6795 51.1738 38.9591 50.9723 39.3503 50.3833C39.5025 50.0937 39.6455 49.799 39.781 49.5011C39.8411 49.3739 39.8411 49.3739 39.9024 49.2442C40.5208 48.0683 40.5208 48.0683 40.6248 46.7921C40.3651 46.5164 40.3651 46.5164 40.0095 46.2841C37.3495 44.2509 36.0337 40.9957 35.5062 37.7501C35.3986 36.9166 35.4077 36.0825 35.4216 35.2432C35.2759 35.2482 35.1301 35.2532 34.98 35.2583C34.7874 35.2623 34.5947 35.2662 34.4021 35.27C34.3062 35.2736 34.2103 35.2771 34.1115 35.2808C33.7015 35.2869 33.3759 35.2743 33.0034 35.0924C32.6329 34.6879 32.669 34.2891 32.675 33.7645C32.6742 33.6108 32.6742 33.6108 32.6734 33.454C32.673 33.2375 32.6741 33.0209 32.6764 32.8043C32.6794 32.4735 32.6765 32.143 32.6729 31.8122C32.6732 31.6016 32.6739 31.3909 32.675 31.1803C32.6739 31.0817 32.6728 30.9831 32.6716 30.8814C32.6807 30.4037 32.7223 30.1478 33.0071 29.7606C33.4066 29.472 33.6766 29.4959 34.156 29.5401C34.158 29.4637 34.16 29.3872 34.162 29.3084C34.314 26.7769 35.4597 24.4242 37.1091 22.5538C37.213 22.4351 37.3169 22.3163 37.4239 22.194C38.7855 20.7254 40.4119 19.72 42.3123 19.1319C42.4051 19.1319 42.4979 19.1319 42.5935 19.1319C42.5886 18.9961 42.5837 18.8603 42.5787 18.7203C42.5749 18.5415 42.5711 18.3627 42.5671 18.1784C42.5622 18.0014 42.5574 17.8244 42.5523 17.6421C42.5962 17.1031 42.6856 16.843 43.0154 16.4229C43.5371 16.2466 44.0227 16.2572 44.5661 16.2564ZM44.7029 18.419C44.7029 22.089 44.7029 25.7589 44.7029 29.5401C45.4918 29.5401 46.2807 29.5401 47.0935 29.5401C47.0935 25.8702 47.0935 22.2002 47.0935 18.419C46.3046 18.419 45.5157 18.419 44.7029 18.419ZM41.4509 21.8498C41.2198 21.9714 41.2198 21.9714 40.984 22.0954C39.9073 22.7212 39.9073 22.7212 39.2605 23.7352C39.2293 24.1111 39.2323 24.471 39.2493 24.8478C39.2509 24.9825 39.2525 25.1172 39.2541 25.2559C39.2604 25.6833 39.2745 26.1099 39.2888 26.5371C39.2945 26.8279 39.2996 27.1187 39.3042 27.4095C39.3156 28.1202 39.3376 28.8294 39.3591 29.5401C40.4265 29.5401 41.4938 29.5401 42.5935 29.5401C42.5935 26.8582 42.5935 24.1763 42.5935 21.4132C42.1505 21.4132 41.8395 21.6418 41.4509 21.8498ZM49.2029 21.4132C49.2029 24.0951 49.2029 26.777 49.2029 29.5401C50.3166 29.5401 51.4304 29.5401 52.5779 29.5401C52.6038 28.6848 52.6261 27.8309 52.6397 26.9756C52.6453 26.685 52.653 26.3944 52.6628 26.1039C52.6765 25.6852 52.6828 25.2668 52.6877 24.8478C52.6936 24.7189 52.6994 24.5899 52.7053 24.4571C52.7057 23.901 52.6908 23.5501 52.3373 23.1092C51.7725 22.5988 51.1637 22.2045 50.4949 21.8498C50.3402 21.7662 50.1856 21.6826 50.0263 21.5964C49.634 21.3839 49.634 21.3839 49.2029 21.4132ZM37.1091 26.4034C36.5255 27.9318 36.5255 27.9318 36.2654 29.5401C36.5902 29.5401 36.9151 29.5401 37.2498 29.5401C37.2498 28.505 37.2498 27.4699 37.2498 26.4034C37.2034 26.4034 37.1569 26.4034 37.1091 26.4034ZM54.6873 26.4034C54.6873 27.4385 54.6873 28.4736 54.6873 29.5401C55.0121 29.5401 55.3369 29.5401 55.6716 29.5401C55.4607 28.4599 55.2493 27.4207 54.8279 26.4034C54.7815 26.4034 54.7351 26.4034 54.6873 26.4034ZM34.8591 31.6788C34.8591 32.1493 34.8591 32.6198 34.8591 33.1046C42.1913 33.1046 49.5235 33.1046 57.0779 33.1046C57.0779 32.6341 57.0779 32.1636 57.0779 31.6788C49.7457 31.6788 42.4135 31.6788 34.8591 31.6788ZM37.531 35.2432C37.531 38.4348 38.3714 41.377 40.4841 43.7979C40.5572 43.8871 40.6302 43.9762 40.7055 44.068C41.854 45.3674 43.6703 46.2664 45.3709 46.4083C47.5356 46.5046 49.2554 45.7614 50.8992 44.3593C53.4914 41.8876 54.2032 38.7382 54.406 35.2432C48.8373 35.2432 43.2685 35.2432 37.531 35.2432ZM77.752 37.141C77.6404 37.2445 77.5288 37.348 77.4139 37.4546C76.9081 37.937 76.4054 38.4221 75.9064 38.9116C75.6423 39.1679 75.3754 39.4211 75.1055 39.671C73.63 40.9157 73.63 40.9157 72.7621 42.5715C72.7823 43.2364 72.9949 43.8046 73.2746 44.3999C73.4295 44.7391 73.5167 45.0852 73.6041 45.4476C73.6953 45.7757 73.7877 46.1032 73.8834 46.4301C74.0731 47.1219 74.1883 47.6614 73.9529 48.3604C73.5645 48.8518 73.1224 49.2761 72.6697 49.706C72.4317 49.9372 72.194 50.1687 71.9567 50.4005C71.8406 50.5135 71.7245 50.6265 71.605 50.743C71.2335 51.1173 70.8947 51.5114 70.5549 51.9149C69.9149 52.6463 69.209 53.3176 68.5223 54.0034C67.8911 54.6376 67.2829 55.2793 66.7046 55.9634C66.3898 56.3304 66.0443 56.6605 65.6961 56.9942C65.4842 57.1898 65.4842 57.1898 65.5154 57.4854C65.8866 57.6736 66.2579 57.8618 66.6404 58.0557C66.7725 57.9193 66.7725 57.9193 66.9073 57.7801C67.0797 57.6033 67.0797 57.6033 67.2556 57.423C67.3698 57.3056 67.484 57.1882 67.6017 57.0672C67.9594 56.7209 68.0924 56.6406 68.5828 56.5854C69.1321 56.64 69.3153 56.8539 69.7341 57.2003C70.2832 57.1649 70.5413 56.8547 70.9084 56.4656C71.088 56.2772 71.088 56.2772 71.2713 56.0851C71.3347 56.0177 71.398 55.9502 71.4633 55.8808C71.6627 55.6692 71.8637 55.4595 72.0653 55.2501C72.6382 54.6549 73.2093 54.0581 73.776 53.4567C74.1231 53.0886 74.4733 52.7238 74.8256 52.3608C75.0233 52.1552 75.2176 51.9461 75.4118 51.7371C76.4208 50.7019 76.4208 50.7019 77.1442 50.6829C77.4557 50.7206 77.4557 50.7206 77.7498 50.7843C77.9213 50.8196 78.0928 50.8549 78.2695 50.8912C78.4352 50.9399 78.6008 50.9886 78.7715 51.0388C78.8617 51.0644 78.9518 51.0901 79.0448 51.1165C79.3284 51.1973 79.6114 51.2801 79.8943 51.3635C80.2695 51.4739 80.6453 51.5822 81.0215 51.6893C81.269 51.7621 81.269 51.7621 81.5215 51.8364C81.9886 51.9289 82.2205 51.9167 82.6716 51.7823C82.9646 51.5764 82.9646 51.5764 83.2313 51.3022C83.3359 51.2008 83.4405 51.0993 83.5482 50.9947C83.6588 50.8841 83.7694 50.7735 83.8834 50.6595C83.9982 50.5457 84.1131 50.4318 84.2314 50.3145C84.4735 50.0732 84.7148 49.831 84.9554 49.5881C85.3242 49.2177 85.6978 48.8529 86.0719 48.488C86.3066 48.2527 86.541 48.0171 86.775 47.7812C86.8874 47.6729 86.9997 47.5646 87.1154 47.453C87.68 46.8931 87.68 46.8931 87.9145 46.1565C87.8817 45.83 87.8251 45.5381 87.7341 45.2237C87.6991 45.0897 87.6642 44.9557 87.6281 44.8177C87.5906 44.7135 87.5531 44.6093 87.5144 44.5019C87.447 44.3148 87.3796 44.1276 87.3123 43.9405C86.6609 44.4903 86.0505 45.0628 85.4616 45.6804C85.3021 45.8453 85.1425 46.0102 84.9829 46.175C84.7357 46.4309 84.489 46.6872 84.2433 46.9447C84.0032 47.1959 83.7614 47.4452 83.5192 47.6943C83.4467 47.7713 83.3742 47.8482 83.2994 47.9274C82.8401 48.3964 82.4732 48.6697 81.8279 48.7882C81.3386 48.7249 81.3386 48.7249 80.8067 48.5865C80.7121 48.5622 80.6176 48.5378 80.5201 48.5127C80.3214 48.4609 80.123 48.4078 79.9249 48.3537C79.622 48.2714 79.3182 48.194 79.014 48.117C78.8205 48.0659 78.627 48.0145 78.4337 47.9628C78.1711 47.8928 78.1711 47.8928 77.9032 47.8215C77.428 47.6313 77.2833 47.5281 77.0466 47.0772C76.9084 46.688 76.9084 46.688 76.7901 46.2457C76.7255 46.0043 76.7255 46.0043 76.6596 45.7581C76.6162 45.5906 76.5728 45.423 76.5281 45.2504C76.483 45.0846 76.438 44.9187 76.3916 44.7478C75.9343 43.0111 75.9343 43.0111 76.0623 42.3721C76.3349 41.937 76.6868 41.5935 77.0466 41.2315C77.1925 41.0813 77.3382 40.9309 77.4838 40.7804C77.9879 40.2618 78.497 39.7485 79.0066 39.2354C79.1851 39.0552 79.3635 38.8749 79.5419 38.6946C79.9754 38.2567 80.4093 37.8192 80.8435 37.3819C80.4012 37.1501 79.9804 36.9966 79.4988 36.8651C79.2984 36.8094 79.2984 36.8094 79.0939 36.7526C78.4359 36.5998 78.2353 36.6907 77.752 37.141ZM42.7341 47.9327C42.683 48.0689 42.6319 48.2051 42.5792 48.3454C42.1853 49.378 41.7685 50.3577 41.2153 51.3161C41.058 51.6179 40.9702 51.8767 40.906 52.21C42.4629 53.4931 44.2592 54.3296 46.3085 54.2457C48.106 54.0499 49.6413 53.3885 51.031 52.21C50.939 51.6871 50.7109 51.32 50.4333 50.8734C49.8759 49.9295 49.5333 48.9762 49.2029 47.9327C49.0539 47.979 49.0539 47.979 48.9019 48.0263C46.8709 48.585 44.7472 48.5584 42.7341 47.9327ZM30.0779 57.2003C30.0024 57.261 29.9269 57.3218 29.8491 57.3844C26.1229 60.4031 23.4337 64.8875 22.8138 69.7326C22.5619 72.0356 22.6085 74.3486 22.616 76.6622C22.6168 77.0433 22.6173 77.4245 22.6179 77.8056C22.6194 78.7314 22.6218 79.6573 22.6248 80.5831C25.4521 80.6064 28.2795 80.624 31.1069 80.6348C32.4198 80.6399 33.7325 80.647 35.0453 80.6584C36.1896 80.6683 37.3339 80.6748 38.4782 80.677C39.0841 80.6783 39.6899 80.6813 40.2957 80.6886C40.8662 80.6954 41.4365 80.6975 42.007 80.696C42.2162 80.6962 42.4254 80.6982 42.6345 80.7021C43.7448 80.759 43.7448 80.759 44.738 80.3533C44.9494 80.1063 45.1159 79.8741 45.2654 79.585C45.2264 79.5051 45.1873 79.4251 45.1471 79.3427C44.4584 77.9284 43.8255 76.5557 43.4373 75.0225C43.2797 75.0172 43.1222 75.0119 42.9599 75.0064C42.7528 74.997 42.5457 74.9875 42.3386 74.978C42.183 74.9732 42.183 74.9732 42.0241 74.9682C41.2699 74.9302 41.2699 74.9302 40.9131 74.7134C40.4399 73.8768 40.5986 72.6978 40.5987 71.7674C40.5984 71.4777 40.5958 71.1881 40.5932 70.8984C40.5904 69.0005 40.5904 69.0005 40.906 68.1788C41.3451 67.7898 41.9249 67.8362 42.488 67.8045C42.7545 67.7885 42.7545 67.7885 43.0264 67.7722C43.162 67.7652 43.2976 67.7582 43.4373 67.7511C43.4867 67.5992 43.5362 67.4474 43.5872 67.291C44.0038 66.0418 44.4688 64.8885 45.1072 63.7383C45.3036 63.3517 45.3036 63.3517 45.1824 63.0209C44.9691 62.7411 44.7437 62.5146 44.4832 62.2796C44.1705 61.9652 44.0005 61.7643 43.8152 61.3529C43.9303 60.1853 45.0296 59.2293 45.8191 58.4478C45.962 58.3023 45.962 58.3023 46.1078 58.1538C47.5187 56.7383 47.5187 56.7383 48.3503 56.523C48.9191 56.6643 49.2172 56.9625 49.6346 57.3679C49.8992 57.6215 50.1736 57.8398 50.4685 58.0557C50.6048 57.9817 50.7411 57.9076 50.8816 57.8313C52.2191 57.1205 53.5155 56.6231 54.9685 56.2022C54.9685 55.4024 54.9685 54.6025 54.9685 53.7784C54.7017 53.7049 54.4348 53.6314 54.1599 53.5556C54.0098 53.5143 53.8597 53.4729 53.7051 53.4303C53.2823 53.3509 53.1057 53.3221 52.7185 53.4932C52.455 53.6844 52.1978 53.8847 51.9451 54.0903C49.9425 55.6634 47.6549 56.3655 45.1248 56.2022C42.9876 55.9107 40.7883 55.1546 39.263 53.5255C37.6538 52.0054 31.3204 56.1834 30.0779 57.2003ZM57.0779 55.3468C57.0726 55.4723 57.0674 55.5978 57.0619 55.7271C57.0527 55.8927 57.0435 56.0583 57.0339 56.229C57.0258 56.3927 57.0176 56.5565 57.0092 56.7252C56.9304 57.2455 56.8564 57.5157 56.5154 57.9132C56.1655 58.0359 55.8646 58.1146 55.5046 58.1805C54.0017 58.509 52.5597 59.0584 51.3035 59.9716C50.9166 60.2465 50.7251 60.3427 50.2488 60.4528C49.6385 60.3066 49.3365 60.0221 48.8931 59.5851C48.628 59.3124 48.628 59.3124 48.2185 59.0538C47.1034 60.009 47.1034 60.009 46.2498 61.1925C46.3411 61.2719 46.4325 61.3513 46.5266 61.4331C47.6071 62.4339 47.6071 62.4339 47.6472 63.0371C47.5711 63.6657 47.2375 64.1545 46.904 64.6773C46.1745 65.8225 45.7786 67.0193 45.406 68.3214C45.0186 69.5697 45.0186 69.5697 44.8435 69.7471C44.4646 69.7809 44.0893 69.8073 43.7097 69.8273C43.3414 69.8479 42.973 69.8685 42.5935 69.8897C42.5935 70.8778 42.5935 71.8659 42.5935 72.8839C42.9067 72.8986 43.22 72.9133 43.5427 72.9284C44.4385 72.9705 44.4385 72.9705 44.8875 73.1735C45.2466 73.5983 45.3226 74.0888 45.4412 74.6215C45.785 76.0149 46.3198 77.345 47.1127 78.5433C47.61 79.316 47.5154 79.5243 47.5154 80.5831C54.7548 80.5831 61.9941 80.5831 69.4529 80.5831C69.4529 80.1596 69.4529 79.7362 69.4529 79.2999C69.6743 78.7981 69.6743 78.7981 69.9714 78.3286C70.076 78.1556 70.1798 77.9822 70.2829 77.8084C70.3336 77.7233 70.3844 77.6383 70.4366 77.5507C71.0884 76.4115 71.4091 75.1763 71.6902 73.9036C71.8435 73.4542 71.8435 73.4542 72.0781 73.1846C72.5302 72.9665 72.927 72.9518 73.4255 72.9284C73.6032 72.919 73.7808 72.9097 73.9639 72.9C74.1673 72.892 74.1673 72.892 74.3748 72.8839C74.4997 71.859 74.5171 70.9131 74.3748 69.8897C74.2172 69.8894 74.0597 69.889 73.8974 69.8886C73.6903 69.8833 73.4832 69.8777 73.2761 69.8719C73.1205 69.8725 73.1205 69.8725 72.9616 69.873C72.6581 69.8619 72.6581 69.8619 72.1248 69.7471C71.742 69.2058 71.6096 68.6054 71.448 67.9649C71.0816 66.6272 70.626 65.3298 69.822 64.1955C69.5497 63.7986 69.4479 63.5939 69.3386 63.1084C69.4829 62.4896 69.7635 62.1834 70.1945 61.7338C70.4634 61.4651 70.4634 61.4651 70.7185 61.0499C70.1097 60.3107 69.4858 59.663 68.7498 59.0538C68.6852 59.1106 68.6207 59.1674 68.5542 59.2259C68.3764 59.3816 68.1978 59.5364 68.0186 59.6904C67.8348 59.8493 67.6541 60.0118 67.4753 60.1766C67.0705 60.4149 66.8265 60.3875 66.3591 60.337C65.9429 60.149 65.5612 59.9089 65.1726 59.6687C64.0468 59.0029 62.9713 58.5593 61.7185 58.1983C61.443 58.1154 61.1677 58.0322 60.8923 57.9488C60.7825 57.9172 60.6726 57.8856 60.5594 57.853C60.3123 57.7706 60.3123 57.7706 60.1716 57.628C60.1383 57.2441 60.1123 56.8631 60.0925 56.4785C60.0865 56.3703 60.0804 56.2621 60.0741 56.1507C60.0592 55.8828 60.045 55.6148 60.031 55.3468C59.6971 55.3188 59.3631 55.2922 59.0291 55.2666C58.9355 55.2586 58.842 55.2506 58.7456 55.2423C58.1645 55.199 57.6478 55.2252 57.0779 55.3468Z" fill="#8100DD"/>
<path d="M63.6873 64.0424C65.5639 65.4756 66.9127 67.538 67.304 69.9142C67.5698 72.6135 67.0357 74.9977 65.4187 77.2041C63.9476 78.9581 61.7488 80.2049 59.4735 80.4205C59.3318 80.4296 59.3318 80.4296 59.1873 80.4388C59.0856 80.4464 58.9839 80.4539 58.8791 80.4617C56.5895 80.5496 54.3507 79.7496 52.6306 78.22C52.4227 78.012 52.2172 77.8014 52.0154 77.5873C51.9385 77.5138 51.8617 77.4403 51.7825 77.3645C50.325 75.8554 49.6423 73.5166 49.572 71.4653C49.6547 68.9402 50.5345 66.7012 52.2966 64.8978C55.5455 62.0094 60.0613 61.5747 63.6873 64.0424ZM53.4392 66.8672C52.2897 68.247 51.6255 69.9811 51.6946 71.8045C51.8996 73.6951 52.6843 75.5004 54.1649 76.709C55.7514 77.885 57.4867 78.5452 59.4685 78.2339C61.2822 77.8674 62.8383 77.0083 63.9696 75.4999C65.0494 73.86 65.4708 72.1161 65.1644 70.1543C64.7516 68.3053 63.7614 66.7983 62.2195 65.6998C59.3057 63.8735 55.8032 64.3477 53.4392 66.8672Z" fill="#8100DD"/>
<path d="M3.762 118.012V121.162H7.992V123.16H3.762V126.49H8.532V128.542H1.242V115.96H8.532V118.012H3.762ZM16.3481 118.426C17.5361 118.426 18.4961 118.804 19.2281 119.56C19.9601 120.304 20.3261 121.348 20.3261 122.692V128.542H17.8061V123.034C17.8061 122.242 17.6081 121.636 17.2121 121.216C16.8161 120.784 16.2761 120.568 15.5921 120.568C14.8961 120.568 14.3441 120.784 13.9361 121.216C13.5401 121.636 13.3421 122.242 13.3421 123.034V128.542H10.8221V118.57H13.3421V119.812C13.6781 119.38 14.1041 119.044 14.6201 118.804C15.1481 118.552 15.7241 118.426 16.3481 118.426ZM26.6285 118.408C27.3725 118.408 28.0265 118.558 28.5905 118.858C29.1545 119.146 29.5985 119.524 29.9225 119.992V118.57H32.4605V128.614C32.4605 129.538 32.2745 130.36 31.9025 131.08C31.5305 131.812 30.9725 132.388 30.2285 132.808C29.4845 133.24 28.5845 133.456 27.5285 133.456C26.1125 133.456 24.9485 133.126 24.0365 132.466C23.1365 131.806 22.6265 130.906 22.5065 129.766H25.0085C25.1405 130.222 25.4225 130.582 25.8545 130.846C26.2985 131.122 26.8325 131.26 27.4565 131.26C28.1885 131.26 28.7825 131.038 29.2385 130.594C29.6945 130.162 29.9225 129.502 29.9225 128.614V127.066C29.5985 127.534 29.1485 127.924 28.5725 128.236C28.0085 128.548 27.3605 128.704 26.6285 128.704C25.7885 128.704 25.0205 128.488 24.3245 128.056C23.6285 127.624 23.0765 127.018 22.6685 126.238C22.2725 125.446 22.0745 124.54 22.0745 123.52C22.0745 122.512 22.2725 121.618 22.6685 120.838C23.0765 120.058 23.6225 119.458 24.3065 119.038C25.0025 118.618 25.7765 118.408 26.6285 118.408ZM29.9225 123.556C29.9225 122.944 29.8025 122.422 29.5625 121.99C29.3225 121.546 28.9985 121.21 28.5905 120.982C28.1825 120.742 27.7445 120.622 27.2765 120.622C26.8085 120.622 26.3765 120.736 25.9805 120.964C25.5845 121.192 25.2605 121.528 25.0085 121.972C24.7685 122.404 24.6485 122.92 24.6485 123.52C24.6485 124.12 24.7685 124.648 25.0085 125.104C25.2605 125.548 25.5845 125.89 25.9805 126.13C26.3885 126.37 26.8205 126.49 27.2765 126.49C27.7445 126.49 28.1825 126.376 28.5905 126.148C28.9985 125.908 29.3225 125.572 29.5625 125.14C29.8025 124.696 29.9225 124.168 29.9225 123.556ZM36.1997 117.382C35.7557 117.382 35.3837 117.244 35.0837 116.968C34.7957 116.68 34.6517 116.326 34.6517 115.906C34.6517 115.486 34.7957 115.138 35.0837 114.862C35.3837 114.574 35.7557 114.43 36.1997 114.43C36.6437 114.43 37.0097 114.574 37.2977 114.862C37.5977 115.138 37.7477 115.486 37.7477 115.906C37.7477 116.326 37.5977 116.68 37.2977 116.968C37.0097 117.244 36.6437 117.382 36.1997 117.382ZM37.4417 118.57V128.542H34.9217V118.57H37.4417ZM45.4575 118.426C46.6455 118.426 47.6055 118.804 48.3375 119.56C49.0695 120.304 49.4355 121.348 49.4355 122.692V128.542H46.9155V123.034C46.9155 122.242 46.7175 121.636 46.3215 121.216C45.9255 120.784 45.3855 120.568 44.7015 120.568C44.0055 120.568 43.4535 120.784 43.0455 121.216C42.6495 121.636 42.4515 122.242 42.4515 123.034V128.542H39.9315V118.57H42.4515V119.812C42.7875 119.38 43.2135 119.044 43.7295 118.804C44.2575 118.552 44.8335 118.426 45.4575 118.426ZM61.1018 123.34C61.1018 123.7 61.0778 124.024 61.0298 124.312H53.7398C53.7998 125.032 54.0518 125.596 54.4958 126.004C54.9398 126.412 55.4858 126.616 56.1338 126.616C57.0698 126.616 57.7358 126.214 58.1318 125.41H60.8498C60.5618 126.37 60.0098 127.162 59.1938 127.786C58.3778 128.398 57.3758 128.704 56.1878 128.704C55.2278 128.704 54.3638 128.494 53.5958 128.074C52.8398 127.642 52.2458 127.036 51.8138 126.256C51.3938 125.476 51.1838 124.576 51.1838 123.556C51.1838 122.524 51.3938 121.618 51.8138 120.838C52.2338 120.058 52.8218 119.458 53.5778 119.038C54.3338 118.618 55.2038 118.408 56.1878 118.408C57.1358 118.408 57.9818 118.612 58.7258 119.02C59.4818 119.428 60.0638 120.01 60.4718 120.766C60.8918 121.51 61.1018 122.368 61.1018 123.34ZM58.4918 122.62C58.4798 121.972 58.2458 121.456 57.7898 121.072C57.3338 120.676 56.7758 120.478 56.1158 120.478C55.4918 120.478 54.9638 120.67 54.5318 121.054C54.1118 121.426 53.8538 121.948 53.7578 122.62H58.4918ZM72.2112 123.34C72.2112 123.7 72.1872 124.024 72.1392 124.312H64.8492C64.9092 125.032 65.1612 125.596 65.6052 126.004C66.0492 126.412 66.5952 126.616 67.2432 126.616C68.1792 126.616 68.8452 126.214 69.2412 125.41H71.9592C71.6712 126.37 71.1192 127.162 70.3032 127.786C69.4872 128.398 68.4852 128.704 67.2972 128.704C66.3372 128.704 65.4732 128.494 64.7052 128.074C63.9492 127.642 63.3552 127.036 62.9232 126.256C62.5032 125.476 62.2932 124.576 62.2932 123.556C62.2932 122.524 62.5032 121.618 62.9232 120.838C63.3432 120.058 63.9312 119.458 64.6872 119.038C65.4432 118.618 66.3132 118.408 67.2972 118.408C68.2452 118.408 69.0912 118.612 69.8352 119.02C70.5912 119.428 71.1732 120.01 71.5812 120.766C72.0012 121.51 72.2112 122.368 72.2112 123.34ZM69.6012 122.62C69.5892 121.972 69.3552 121.456 68.8992 121.072C68.4432 120.676 67.8852 120.478 67.2252 120.478C66.6012 120.478 66.0732 120.67 65.6412 121.054C65.2212 121.426 64.9632 121.948 64.8672 122.62H69.6012ZM76.5706 120.118C76.8946 119.59 77.3146 119.176 77.8306 118.876C78.3586 118.576 78.9586 118.426 79.6306 118.426V121.072H78.9646C78.1726 121.072 77.5726 121.258 77.1646 121.63C76.7686 122.002 76.5706 122.65 76.5706 123.574V128.542H74.0506V118.57H76.5706V120.118ZM82.6059 117.382C82.1619 117.382 81.7899 117.244 81.4899 116.968C81.2019 116.68 81.0579 116.326 81.0579 115.906C81.0579 115.486 81.2019 115.138 81.4899 114.862C81.7899 114.574 82.1619 114.43 82.6059 114.43C83.0499 114.43 83.4159 114.574 83.7039 114.862C84.0039 115.138 84.1539 115.486 84.1539 115.906C84.1539 116.326 84.0039 116.68 83.7039 116.968C83.4159 117.244 83.0499 117.382 82.6059 117.382ZM83.8479 118.57V128.542H81.3279V118.57H83.8479ZM91.8637 118.426C93.0517 118.426 94.0117 118.804 94.7437 119.56C95.4757 120.304 95.8417 121.348 95.8417 122.692V128.542H93.3217V123.034C93.3217 122.242 93.1237 121.636 92.7277 121.216C92.3317 120.784 91.7917 120.568 91.1077 120.568C90.4117 120.568 89.8597 120.784 89.4517 121.216C89.0557 121.636 88.8577 122.242 88.8577 123.034V128.542H86.3377V118.57H88.8577V119.812C89.1937 119.38 89.6197 119.044 90.1357 118.804C90.6637 118.552 91.2397 118.426 91.8637 118.426ZM102.144 118.408C102.888 118.408 103.542 118.558 104.106 118.858C104.67 119.146 105.114 119.524 105.438 119.992V118.57H107.976V128.614C107.976 129.538 107.79 130.36 107.418 131.08C107.046 131.812 106.488 132.388 105.744 132.808C105 133.24 104.1 133.456 103.044 133.456C101.628 133.456 100.464 133.126 99.5521 132.466C98.6521 131.806 98.1421 130.906 98.0221 129.766H100.524C100.656 130.222 100.938 130.582 101.37 130.846C101.814 131.122 102.348 131.26 102.972 131.26C103.704 131.26 104.298 131.038 104.754 130.594C105.21 130.162 105.438 129.502 105.438 128.614V127.066C105.114 127.534 104.664 127.924 104.088 128.236C103.524 128.548 102.876 128.704 102.144 128.704C101.304 128.704 100.536 128.488 99.8401 128.056C99.1441 127.624 98.5921 127.018 98.1841 126.238C97.7881 125.446 97.5901 124.54 97.5901 123.52C97.5901 122.512 97.7881 121.618 98.1841 120.838C98.5921 120.058 99.1381 119.458 99.8221 119.038C100.518 118.618 101.292 118.408 102.144 118.408ZM105.438 123.556C105.438 122.944 105.318 122.422 105.078 121.99C104.838 121.546 104.514 121.21 104.106 120.982C103.698 120.742 103.26 120.622 102.792 120.622C102.324 120.622 101.892 120.736 101.496 120.964C101.1 121.192 100.776 121.528 100.524 121.972C100.284 122.404 100.164 122.92 100.164 123.52C100.164 124.12 100.284 124.648 100.524 125.104C100.776 125.548 101.1 125.89 101.496 126.13C101.904 126.37 102.336 126.49 102.792 126.49C103.26 126.49 103.698 126.376 104.106 126.148C104.514 125.908 104.838 125.572 105.078 125.14C105.318 124.696 105.438 124.168 105.438 123.556Z" fill="black"/>
<path d="M134 67.771H137.194" stroke="black" stroke-width="6.3886" stroke-linecap="round"/>
<path d="M149.972 67.771H153.166" stroke="black" stroke-width="6.3886" stroke-linecap="round"/>
<path d="M165.943 67.771H169.137" stroke="black" stroke-width="6.3886" stroke-linecap="round"/>
<path d="M193.893 66.3878C194.958 67.0025 194.958 68.5394 193.893 69.1541L184.31 74.6868C183.245 75.3016 181.914 74.5331 181.914 73.3037V62.2383C181.914 61.0088 183.245 60.2404 184.31 60.8551L193.893 66.3878Z" fill="black"/>
<defs>
<filter id="filter0_ii_613_7714" x="5.17425" y="-6.34086" width="99.6515" height="111.224" filterUnits="userSpaceOnUse" color-interpolation-filters="sRGB">
<feFlood flood-opacity="0" result="BackgroundImageFix"/>
<feBlend mode="normal" in="SourceGraphic" in2="BackgroundImageFix" result="shape"/>
<feColorMatrix in="SourceAlpha" type="matrix" values="0 0 0 0 0 0 0 0 0 0 0 0 0 0 0 0 0 0 127 0" result="hardAlpha"/>
<feOffset dx="0.554753" dy="6.34086"/>
<feGaussianBlur stdDeviation="3.18254"/>
<feComposite in2="hardAlpha" operator="arithmetic" k2="-1" k3="1"/>
<feColorMatrix type="matrix" values="0 0 0 0 0.951822 0 0 0 0 0.951822 0 0 0 0 0.951822 0 0 0 1 0"/>
<feBlend mode="normal" in2="shape" result="effect1_innerShadow_613_7714"/>
<feColorMatrix in="SourceAlpha" type="matrix" values="0 0 0 0 0 0 0 0 0 0 0 0 0 0 0 0 0 0 127 0" result="hardAlpha"/>
<feOffset dx="-0.554753" dy="-6.34086"/>
<feGaussianBlur stdDeviation="3.18254"/>
<feComposite in2="hardAlpha" operator="arithmetic" k2="-1" k3="1"/>
<feColorMatrix type="matrix" values="0 0 0 0 0.724929 0 0 0 0 0.724929 0 0 0 0 0.724929 0 0 0 1 0"/>
<feBlend mode="normal" in2="effect1_innerShadow_613_7714" result="effect2_innerShadow_613_7714"/>
</filter>
</defs>
</svg>
